<svg width="67" height="38" viewBox="0 0 67 38" fill="none" xmlns="http://www.w3.org/2000/svg">
<path fill-rule="evenodd" clip-rule="evenodd" d="M26.3922 5.19752C26.3922 5.99752 26.5422 6.77752 26.5922 7.56752C26.5867 7.62298 26.5926 7.67897 26.6095 7.73209C26.6264 7.7852 26.6539 7.83432 26.6904 7.87643C26.7269 7.91855 26.7716 7.95278 26.8218 7.97704C26.8719 8.0013 26.9265 8.01507 26.9822 8.01752C27.0886 8.01779 27.1911 7.97768 27.2691 7.90529C27.347 7.8329 27.3946 7.73363 27.4022 7.62752C27.5622 6.82752 27.6222 6.01752 27.6822 5.27752V4.81752H28.0622H30.5722C30.6256 4.82301 30.6795 4.81772 30.7307 4.80196C30.782 4.78619 30.8296 4.76028 30.8706 4.72576C30.9117 4.69125 30.9454 4.64882 30.9697 4.60102C30.994 4.55322 31.0085 4.50102 31.0122 4.44752C31.0209 4.34602 30.9906 4.24502 30.9275 4.16512C30.8643 4.08521 30.773 4.03242 30.6722 4.01752C29.8522 3.84752 29.0122 3.68752 28.1522 3.57752H27.7122V3.35752C27.6522 2.51752 27.5622 1.75752 27.4622 1.01752C27.4692 0.967864 27.4658 0.917294 27.4521 0.869046C27.4385 0.820799 27.4149 0.775938 27.3829 0.737338C27.3509 0.698739 27.3111 0.667252 27.2663 0.644896C27.2214 0.62254 27.1723 0.609808 27.1222 0.607516C27.0284 0.604765 26.9372 0.638771 26.8681 0.702283C26.799 0.765796 26.7574 0.853792 26.7522 0.947516C26.6122 1.78752 26.4522 2.61752 26.3922 3.45752H25.9522C25.0963 3.53123 24.2451 3.65141 23.4022 3.81752C23.3506 3.80882 23.2977 3.81149 23.2472 3.82532C23.1968 3.83916 23.1499 3.86384 23.11 3.89763C23.07 3.93142 23.0379 3.97352 23.0159 4.021C22.9938 4.06847 22.9824 4.12018 22.9824 4.17252C22.9824 4.22485 22.9938 4.27656 23.0159 4.32403C23.0379 4.37151 23.07 4.41361 23.11 4.4474C23.1499 4.4812 23.1968 4.50587 23.2472 4.51971C23.2977 4.53354 23.3506 4.53621 23.4022 4.52752C24.2222 4.57752 25.0422 4.68752 25.8922 4.75752H26.3422C26.3922 4.92752 26.3822 5.06752 26.3922 5.19752Z" fill="black"/>
<path fill-rule="evenodd" clip-rule="evenodd" d="M43.9222 4.77752C43.8551 4.71275 43.7655 4.67656 43.6722 4.67656C43.579 4.67656 43.4894 4.71275 43.4222 4.77752C42.6547 5.49005 41.9238 6.24101 41.2322 7.02752C40.8322 7.50752 40.4722 8.02752 40.1222 8.52752C39.6722 9.19752 39.2622 9.87752 38.8322 10.5275C38.7742 10.4763 38.6996 10.4479 38.6222 10.4475C38.1022 10.1375 37.6222 9.78752 37.0222 9.44752C36.4222 9.10752 36.0222 8.81752 35.5622 8.53752C34.8822 8.14752 34.2222 7.83752 33.5622 7.53752C33.8922 6.84752 34.2222 6.15752 34.5622 5.45752C34.7222 5.08752 34.8722 4.71752 35.0122 4.33752C35.1522 3.95752 35.2822 3.58752 35.4022 3.19752C35.6722 2.29752 35.8822 1.39752 36.1522 0.487521C36.17 0.444253 36.1788 0.397873 36.1783 0.35112C36.1778 0.304366 36.168 0.258187 36.1493 0.215308C36.1307 0.172429 36.1036 0.133721 36.0698 0.101468C36.0359 0.0692144 35.996 0.0440706 35.9522 0.0275209C35.9096 0.00952953 35.8638 0.000176243 35.8175 2.4668e-06C35.7712 -0.000171309 35.7254 0.00883788 35.6826 0.0265085C35.6398 0.0441791 35.6009 0.0701602 35.5683 0.102948C35.5356 0.135735 35.5098 0.174678 35.4922 0.217521C35.0322 1.05752 34.5722 1.87752 34.1822 2.74752C34.0117 3.11226 33.8614 3.48616 33.7322 3.86752C33.5922 4.24752 33.4722 4.62752 33.3522 5.01752C32.3522 8.40752 32.5722 7.30752 32.6322 8.01752C31.8925 8.25183 31.1706 8.53924 30.4722 8.87752C29.3443 9.35896 28.2797 9.97691 27.3022 10.7175C26.8524 11.1949 26.5503 11.7923 26.4322 12.4375C26.2945 13.2599 26.2475 14.0949 26.2922 14.9275C26.2922 16.0975 26.4422 17.2375 26.6022 18.3775C26.8322 20.0775 27.1822 21.7475 27.6022 23.4375C27.6217 23.5405 27.6808 23.6317 27.7668 23.6915C27.8529 23.7514 27.9589 23.7751 28.0622 23.7575C28.0966 23.8566 28.1675 23.9387 28.2605 23.987C28.3535 24.0354 28.4615 24.0463 28.5622 24.0175C30.2122 23.4875 31.8322 22.9475 33.4122 22.3075C34.4822 21.8775 35.5222 21.3875 36.5622 20.8475C37.2779 20.459 37.9486 19.9928 38.5622 19.4575C39.0648 19.0355 39.4332 18.4759 39.6222 17.8475C39.771 16.6421 39.771 15.4229 39.6222 14.2175C39.5551 13.3169 39.4113 12.4237 39.1922 11.5475C39.259 11.5128 39.3119 11.4564 39.3422 11.3875C39.3422 11.3875 39.3422 11.2975 39.3422 11.2475C39.9122 10.6475 40.4822 10.0575 41.0222 9.41752C41.2822 9.12752 41.5222 8.82752 41.7622 8.51752C42.0022 8.20752 42.2222 7.89752 42.4422 7.57752C42.9422 6.81752 43.3822 6.03752 43.8922 5.27752C43.9288 5.24781 43.9587 5.21083 43.9802 5.16893C44.0017 5.12703 44.0143 5.08112 44.0171 5.03411C44.0199 4.98711 44.0129 4.94003 43.9966 4.89586C43.9803 4.85169 43.955 4.81139 43.9222 4.77752ZM38.3922 17.5075C38.2532 17.8784 38.0144 18.2037 37.7022 18.4475C37.1276 18.9089 36.5078 19.311 35.8522 19.6475C34.6422 20.3675 33.4022 20.9875 32.1422 21.5775C29.4722 22.8375 29.3722 23.0775 28.3922 22.7875C28.1622 22.7175 28.1422 21.6175 28.0922 21.3175C28.0022 20.7375 27.9422 20.1675 27.9422 20.1675C27.9422 19.8075 27.8522 19.4475 27.8222 19.0875C27.6868 17.6985 27.6267 16.3031 27.6422 14.9075C27.6049 14.1753 27.6452 13.4413 27.7622 12.7175C27.8163 12.3211 27.979 11.9473 28.2322 11.6375C29.2206 10.7701 30.3122 10.0278 31.4822 9.42752C32.1167 9.07625 32.7872 8.79462 33.4822 8.58752C33.8422 8.89752 34.1822 9.20752 34.5722 9.50752C34.9622 9.80752 35.1822 9.92752 35.4922 10.1175C35.8022 10.3075 36.1422 10.4875 36.4922 10.6575C37.1421 10.9615 37.81 11.2253 38.4922 11.4475C38.6364 12.1484 38.7101 12.862 38.7122 13.5775C38.7762 14.8959 38.6686 16.2169 38.3922 17.5075Z" fill="black"/>
<path fill-rule="evenodd" clip-rule="evenodd" d="M34.1323 12.0775C33.8808 12.0058 33.6229 11.9589 33.3623 11.9375C33.1029 11.9125 32.8417 11.9125 32.5823 11.9375C32.4033 11.9521 32.226 11.9822 32.0523 12.0275C31.8706 12.0759 31.6933 12.1394 31.5223 12.2175C31.0805 12.3745 30.717 12.6968 30.5081 13.1164C30.2992 13.5361 30.2612 14.0204 30.4023 14.4675C30.6702 15.1709 31.1355 15.7821 31.7423 16.2275C31.2323 16.8075 30.7423 17.3775 30.2123 18.0375C29.9523 18.3875 29.7123 18.7475 29.4823 19.1175C29.2523 19.4875 29.0523 19.8775 28.8623 20.2675C28.8023 20.3875 28.7623 20.5075 28.7123 20.6275C28.4623 22.8575 29.1523 21.9675 29.7123 21.3775C29.8823 21.0975 30.0723 20.8275 30.2423 20.5475C30.5423 20.0775 30.8423 19.5475 31.1323 19.1175C31.6223 18.2775 32.0523 17.4575 32.4923 16.6775C32.5623 16.6775 32.6223 16.7475 32.6823 16.7675C32.7686 16.8049 32.8661 16.8069 32.9539 16.7733C33.0418 16.7397 33.113 16.673 33.1523 16.5875C33.3923 16.0475 32.0723 15.7175 31.6023 14.5875C31.5433 14.4823 31.5096 14.3648 31.5037 14.2443C31.4978 14.1238 31.52 14.0035 31.5685 13.893C31.6169 13.7826 31.6904 13.6848 31.783 13.6075C31.8756 13.5302 31.9849 13.4754 32.1023 13.4475L32.7323 13.3075C32.9153 13.2926 33.0992 13.2926 33.2823 13.3075C33.4578 13.3229 33.6318 13.353 33.8023 13.3975C34.1454 13.4896 34.4475 13.6946 34.6598 13.9794C34.8721 14.2643 34.9822 14.6124 34.9723 14.9675C34.9839 15.1522 34.9547 15.3371 34.8868 15.5092C34.8189 15.6814 34.7139 15.8364 34.5793 15.9634C34.4447 16.0903 34.2838 16.1861 34.1081 16.2438C33.9323 16.3016 33.7459 16.3199 33.5623 16.2975C33.4629 16.3019 33.3685 16.3423 33.2967 16.4112C33.2249 16.4801 33.1805 16.5727 33.172 16.6718C33.1634 16.7709 33.1912 16.8698 33.2501 16.95C33.309 17.0301 33.3951 17.0861 33.4923 17.1075C33.8014 17.1641 34.1192 17.1528 34.4235 17.0745C34.7279 16.9961 35.0116 16.8526 35.2551 16.6539C35.4985 16.4551 35.6959 16.2059 35.8335 15.9233C35.9712 15.6408 36.0458 15.3317 36.0523 15.0175C36.11 14.3829 35.9518 13.7473 35.6034 13.2137C35.2549 12.6802 34.7366 12.2798 34.1323 12.0775Z" fill="black"/>
<path d="M-0.01 35.0333V29.9933H1.5195C1.57317 29.9933 1.66417 29.9944 1.7925 29.9968C1.92317 29.9991 2.048 30.0084 2.167 30.0248C2.54967 30.0784 2.86933 30.2208 3.126 30.4518C3.38267 30.6828 3.57517 30.9768 3.7035 31.3338C3.83183 31.6908 3.896 32.0839 3.896 32.5133C3.896 32.9426 3.83183 33.3358 3.7035 33.6928C3.57517 34.0498 3.38267 34.3438 3.126 34.5748C2.86933 34.8058 2.54967 34.9481 2.167 35.0018C2.05033 35.0158 1.9255 35.0251 1.7925 35.0298C1.6595 35.0321 1.5685 35.0333 1.5195 35.0333H-0.01ZM0.522 34.5398H1.5195C1.61517 34.5398 1.71783 34.5374 1.8275 34.5328C1.9395 34.5258 2.03517 34.5141 2.1145 34.4978C2.4085 34.4464 2.64533 34.3274 2.825 34.1408C3.007 33.9541 3.14 33.7208 3.224 33.4408C3.308 33.1584 3.35 32.8493 3.35 32.5133C3.35 32.1749 3.308 31.8646 3.224 31.5823C3.14 31.2999 3.007 31.0666 2.825 30.8823C2.643 30.6979 2.40617 30.5801 2.1145 30.5288C2.03517 30.5124 1.93833 30.5019 1.824 30.4973C1.712 30.4903 1.6105 30.4868 1.5195 30.4868H0.522V34.5398ZM6.29263 35.1383C5.92396 35.1383 5.60429 35.0566 5.33363 34.8933C5.06529 34.7299 4.85646 34.5001 4.70713 34.2038C4.55779 33.9074 4.48313 33.5598 4.48313 33.1608C4.48313 32.7478 4.55663 32.3908 4.70363 32.0898C4.85063 31.7888 5.05713 31.5566 5.32313 31.3933C5.59146 31.2299 5.90763 31.1483 6.27163 31.1483C6.64496 31.1483 6.96346 31.2346 7.22713 31.4073C7.49079 31.5776 7.69029 31.8226 7.82563 32.1423C7.96096 32.4619 8.02279 32.8434 8.01113 33.2868H7.48613V33.1048C7.47679 32.6148 7.37063 32.2449 7.16763 31.9953C6.96696 31.7456 6.67296 31.6208 6.28563 31.6208C5.87963 31.6208 5.56813 31.7526 5.35113 32.0163C5.13646 32.2799 5.02913 32.6556 5.02913 33.1433C5.02913 33.6193 5.13646 33.9891 5.35113 34.2528C5.56813 34.5141 5.87496 34.6448 6.27163 34.6448C6.54229 34.6448 6.77796 34.5829 6.97863 34.4593C7.18163 34.3333 7.34146 34.1524 7.45813 33.9168L7.93763 34.1023C7.78829 34.4313 7.56779 34.6868 7.27613 34.8688C6.98679 35.0484 6.65896 35.1383 6.29263 35.1383ZM4.84713 33.2868V32.8563H7.73463V33.2868H4.84713ZM10.1984 35.1348C9.75502 35.1348 9.38985 35.0391 9.10285 34.8478C8.81818 34.6564 8.64318 34.3904 8.57785 34.0498L9.10285 33.9623C9.15885 34.1769 9.28602 34.3484 9.48435 34.4768C9.68502 34.6028 9.93235 34.6658 10.2264 34.6658C10.5134 34.6658 10.7397 34.6063 10.9054 34.4873C11.071 34.3659 11.1539 34.2014 11.1539 33.9938C11.1539 33.8771 11.127 33.7826 11.0734 33.7103C11.022 33.6356 10.9159 33.5668 10.7549 33.5038C10.5939 33.4408 10.3535 33.3661 10.0339 33.2798C9.69085 33.1864 9.42252 33.0931 9.22885 32.9998C9.03518 32.9064 8.89752 32.7991 8.81585 32.6778C8.73418 32.5541 8.69335 32.4036 8.69335 32.2263C8.69335 32.0116 8.75402 31.8238 8.87535 31.6628C8.99668 31.4994 9.16468 31.3734 9.37935 31.2848C9.59402 31.1938 9.84368 31.1483 10.1284 31.1483C10.413 31.1483 10.6674 31.1949 10.8914 31.2883C11.1177 31.3793 11.2997 31.5076 11.4374 31.6733C11.575 31.8389 11.6567 32.0314 11.6824 32.2508L11.1574 32.3453C11.1224 32.1236 11.0115 31.9486 10.8249 31.8203C10.6405 31.6896 10.406 31.6219 10.1214 31.6173C9.85302 31.6103 9.63485 31.6616 9.46685 31.7713C9.29885 31.8786 9.21485 32.0221 9.21485 32.2018C9.21485 32.3021 9.24518 32.3884 9.30585 32.4608C9.36652 32.5308 9.47618 32.5973 9.63485 32.6603C9.79585 32.7233 10.0245 32.7921 10.3209 32.8668C10.6685 32.9554 10.9415 33.0488 11.1399 33.1468C11.3382 33.2448 11.4794 33.3603 11.5634 33.4933C11.6474 33.6263 11.6894 33.7908 11.6894 33.9868C11.6894 34.3438 11.5564 34.6249 11.2904 34.8303C11.0267 35.0333 10.6627 35.1348 10.1984 35.1348ZM12.5356 30.5358V29.9583H13.0501V30.5358H12.5356ZM12.5356 35.0333V31.2533H13.0501V35.0333H12.5356ZM15.6009 36.8183C15.4072 36.8183 15.2159 36.7891 15.0269 36.7308C14.8402 36.6748 14.6675 36.5849 14.5089 36.4613C14.3502 36.3399 14.2172 36.1813 14.1099 35.9853L14.5754 35.7263C14.6804 35.9363 14.8274 36.0868 15.0164 36.1778C15.2077 36.2711 15.4025 36.3178 15.6009 36.3178C15.8739 36.3178 16.0944 36.2664 16.2624 36.1638C16.4327 36.0634 16.5564 35.9141 16.6334 35.7158C16.7104 35.5174 16.7477 35.2701 16.7454 34.9738V33.9658H16.8049V31.2533H17.2634V34.9808C17.2634 35.0881 17.2599 35.1908 17.2529 35.2888C17.2482 35.3891 17.2377 35.4871 17.2214 35.5828C17.177 35.8651 17.0849 36.0973 16.9449 36.2793C16.8072 36.4613 16.6252 36.5966 16.3989 36.6853C16.1749 36.7739 15.9089 36.8183 15.6009 36.8183ZM15.5659 35.1383C15.2135 35.1383 14.9125 35.0508 14.6629 34.8758C14.4132 34.6984 14.2219 34.4593 14.0889 34.1583C13.9559 33.8573 13.8894 33.5178 13.8894 33.1398C13.8894 32.7641 13.9547 32.4258 14.0854 32.1248C14.2184 31.8238 14.4085 31.5858 14.6559 31.4108C14.9032 31.2358 15.1995 31.1483 15.5449 31.1483C15.8995 31.1483 16.1982 31.2346 16.4409 31.4073C16.6835 31.5799 16.8667 31.8168 16.9904 32.1178C17.1164 32.4164 17.1794 32.7571 17.1794 33.1398C17.1794 33.5154 17.1175 33.8549 16.9939 34.1583C16.8702 34.4593 16.6882 34.6984 16.4479 34.8758C16.2075 35.0508 15.9135 35.1383 15.5659 35.1383ZM15.6184 34.6588C15.8867 34.6588 16.1084 34.5934 16.2834 34.4628C16.4584 34.3321 16.589 34.1524 16.6754 33.9238C16.7617 33.6928 16.8049 33.4314 16.8049 33.1398C16.8049 32.8434 16.7617 32.5821 16.6754 32.3558C16.589 32.1271 16.4584 31.9486 16.2834 31.8203C16.1107 31.6919 15.8925 31.6278 15.6289 31.6278C15.3582 31.6278 15.1342 31.6943 14.9569 31.8273C14.7795 31.9603 14.6477 32.1411 14.5614 32.3698C14.4774 32.5984 14.4354 32.8551 14.4354 33.1398C14.4354 33.4268 14.4785 33.6858 14.5649 33.9168C14.6535 34.1454 14.7854 34.3263 14.9604 34.4593C15.1354 34.5923 15.3547 34.6588 15.6184 34.6588ZM20.972 35.0333V33.1048C20.972 32.8948 20.9521 32.7023 20.9125 32.5273C20.8728 32.3499 20.8086 32.1959 20.72 32.0653C20.6336 31.9323 20.5205 31.8296 20.3805 31.7573C20.2428 31.6849 20.0748 31.6488 19.8765 31.6488C19.6945 31.6488 19.5335 31.6803 19.3935 31.7433C19.2558 31.8063 19.1391 31.8973 19.0435 32.0163C18.9501 32.1329 18.879 32.2753 18.83 32.4433C18.781 32.6113 18.7565 32.8026 18.7565 33.0173L18.3925 32.9368C18.3925 32.5494 18.4601 32.2239 18.5955 31.9603C18.7308 31.6966 18.9175 31.4971 19.1555 31.3618C19.3935 31.2264 19.6665 31.1588 19.9745 31.1588C20.2008 31.1588 20.398 31.1938 20.566 31.2638C20.7363 31.3338 20.8798 31.4283 20.9965 31.5473C21.1155 31.6663 21.2111 31.8028 21.2835 31.9568C21.3558 32.1084 21.4083 32.2706 21.441 32.4433C21.4736 32.6136 21.49 32.7839 21.49 32.9543V35.0333H20.972ZM18.2385 35.0333V31.2533H18.704V32.1843H18.7565V35.0333H18.2385ZM25.4201 35.1383C25.1401 35.1383 24.8799 35.0986 24.6396 35.0193C24.4016 34.9376 24.2021 34.8104 24.0411 34.6378C23.9151 34.5024 23.8217 34.3519 23.7611 34.1863C23.7004 34.0183 23.6666 33.8409 23.6596 33.6543C23.6572 33.4769 23.6829 33.3008 23.7366 33.1258C23.7902 32.9508 23.8742 32.7956 23.9886 32.6603C24.0562 32.5763 24.1321 32.5063 24.2161 32.4503C24.3024 32.3943 24.3911 32.3464 24.4821 32.3068C24.3071 32.1248 24.1729 31.9568 24.0796 31.8028C23.9886 31.6464 23.9431 31.4551 23.9431 31.2288C23.9431 30.9698 24.0084 30.7329 24.1391 30.5183C24.2721 30.3036 24.4552 30.1438 24.6886 30.0388C24.8076 29.9851 24.9289 29.9478 25.0526 29.9268C25.1786 29.9034 25.3034 29.8918 25.4271 29.8918C25.6161 29.8918 25.8016 29.9186 25.9836 29.9723C26.1656 30.0236 26.3207 30.1053 26.4491 30.2173C26.5354 30.2849 26.6112 30.3654 26.6766 30.4588C26.7419 30.5498 26.7932 30.6454 26.8306 30.7458L26.3336 30.8928C26.2846 30.7668 26.2029 30.6606 26.0886 30.5743C25.9999 30.5043 25.8972 30.4553 25.7806 30.4273C25.6662 30.3993 25.5507 30.3853 25.4341 30.3853C25.2357 30.3853 25.0561 30.4238 24.8951 30.5008C24.7551 30.5708 24.6501 30.6676 24.5801 30.7913C24.5101 30.9149 24.4751 31.0596 24.4751 31.2253C24.4751 31.3676 24.4984 31.4854 24.5451 31.5788C24.5917 31.6698 24.6594 31.7689 24.7481 31.8763C24.7994 31.9323 24.8566 31.9894 24.9196 32.0478C24.9826 32.1038 25.0467 32.1621 25.1121 32.2228L26.7081 33.7033C26.7174 33.6379 26.7232 33.5749 26.7256 33.5143C26.7279 33.4513 26.7291 33.3894 26.7291 33.3288L26.7256 32.5903H27.2121V33.3638C27.2121 33.5481 27.2051 33.6986 27.1911 33.8153C27.1771 33.9319 27.1584 34.0288 27.1351 34.1058L27.7861 34.7043L27.4466 35.0648L26.8901 34.5398C26.8131 34.6401 26.7151 34.7299 26.5961 34.8093C26.4794 34.8886 26.3627 34.9504 26.2461 34.9948C26.1201 35.0508 25.9871 35.0881 25.8471 35.1068C25.7071 35.1278 25.5647 35.1383 25.4201 35.1383ZM25.4271 34.6413C25.5601 34.6413 25.6802 34.6331 25.7876 34.6168C25.8949 34.6004 25.9976 34.5666 26.0956 34.5153C26.2192 34.4499 26.3114 34.3893 26.3721 34.3333C26.4327 34.2749 26.4817 34.2236 26.5191 34.1793L24.8811 32.6813C24.7831 32.7116 24.6909 32.7536 24.6046 32.8073C24.5206 32.8586 24.4482 32.9204 24.3876 32.9928C24.3199 33.0768 24.2697 33.1736 24.2371 33.2833C24.2044 33.3929 24.1881 33.5084 24.1881 33.6298C24.1927 33.7581 24.2137 33.8771 24.2511 33.9868C24.2907 34.0941 24.3491 34.1898 24.4261 34.2738C24.5357 34.4021 24.6827 34.4954 24.8671 34.5538C25.0514 34.6121 25.2381 34.6413 25.4271 34.6413ZM29.7605 35.0333V29.9933H31.7065C31.7555 29.9933 31.8103 29.9956 31.871 30.0003C31.934 30.0026 31.997 30.0096 32.06 30.0213C32.3237 30.0609 32.5465 30.1531 32.7285 30.2978C32.9128 30.4401 33.0517 30.6198 33.145 30.8368C33.2407 31.0538 33.2885 31.2941 33.2885 31.5578C33.2885 31.8191 33.2407 32.0583 33.145 32.2753C33.0493 32.4923 32.9093 32.6731 32.725 32.8178C32.543 32.9601 32.3213 33.0511 32.06 33.0908C31.997 33.1001 31.934 33.1071 31.871 33.1118C31.8103 33.1164 31.7555 33.1188 31.7065 33.1188H30.275V35.0333H29.7605ZM30.275 32.6288H31.6925C31.7345 32.6288 31.7835 32.6264 31.8395 32.6218C31.8955 32.6171 31.9503 32.6089 32.004 32.5973C32.1767 32.5599 32.3178 32.4888 32.4275 32.3838C32.5395 32.2788 32.6223 32.1539 32.676 32.0093C32.732 31.8646 32.76 31.7141 32.76 31.5578C32.76 31.4014 32.732 31.2509 32.676 31.1063C32.6223 30.9593 32.5395 30.8333 32.4275 30.7283C32.3178 30.6233 32.1767 30.5521 32.004 30.5148C31.9503 30.5031 31.8955 30.4961 31.8395 30.4938C31.7835 30.4891 31.7345 30.4868 31.6925 30.4868H30.275V32.6288ZM33.9851 35.0333V31.2533H34.4471V32.1633L34.3561 32.0443C34.3981 31.9323 34.453 31.8296 34.5206 31.7363C34.5883 31.6406 34.6618 31.5624 34.7411 31.5018C34.8391 31.4154 34.9535 31.3501 35.0841 31.3058C35.2148 31.2591 35.3466 31.2323 35.4796 31.2253C35.6126 31.2159 35.734 31.2253 35.8436 31.2533V31.7363C35.706 31.7013 35.5555 31.6931 35.3921 31.7118C35.2288 31.7304 35.0783 31.7958 34.9406 31.9078C34.8146 32.0058 34.7201 32.1236 34.6571 32.2613C34.5941 32.3966 34.5521 32.5413 34.5311 32.6953C34.5101 32.8469 34.4996 32.9974 34.4996 33.1468V35.0333H33.9851ZM38.0177 35.1383C37.6421 35.1383 37.3212 35.0531 37.0552 34.8828C36.7892 34.7124 36.5851 34.4768 36.4427 34.1758C36.3004 33.8748 36.2292 33.5294 36.2292 33.1398C36.2292 32.7431 36.3016 32.3954 36.4462 32.0968C36.5909 31.7981 36.7962 31.5659 37.0622 31.4003C37.3306 31.2323 37.6491 31.1483 38.0177 31.1483C38.3957 31.1483 38.7177 31.2334 38.9837 31.4038C39.2521 31.5718 39.4562 31.8063 39.5962 32.1073C39.7386 32.4059 39.8097 32.7501 39.8097 33.1398C39.8097 33.5364 39.7386 33.8853 39.5962 34.1863C39.4539 34.4849 39.2486 34.7183 38.9802 34.8863C38.7119 35.0543 38.3911 35.1383 38.0177 35.1383ZM38.0177 34.6448C38.4377 34.6448 38.7504 34.5059 38.9557 34.2283C39.1611 33.9483 39.2637 33.5854 39.2637 33.1398C39.2637 32.6824 39.1599 32.3184 38.9522 32.0478C38.7469 31.7771 38.4354 31.6418 38.0177 31.6418C37.7354 31.6418 37.5021 31.7059 37.3177 31.8343C37.1357 31.9603 36.9992 32.1364 36.9082 32.3628C36.8196 32.5868 36.7752 32.8458 36.7752 33.1398C36.7752 33.5948 36.8802 33.9599 37.0902 34.2353C37.3002 34.5083 37.6094 34.6448 38.0177 34.6448ZM42.6398 35.0333C42.4275 35.0776 42.2175 35.0951 42.0098 35.0858C41.8045 35.0764 41.6201 35.0321 41.4568 34.9528C41.2958 34.8734 41.1733 34.7498 41.0893 34.5818C41.0216 34.4418 40.9843 34.3006 40.9773 34.1583C40.9726 34.0136 40.9703 33.8491 40.9703 33.6648V30.2033H41.4813V33.6438C41.4813 33.8024 41.4825 33.9354 41.4848 34.0428C41.4895 34.1478 41.514 34.2411 41.5583 34.3228C41.6423 34.4791 41.7753 34.5724 41.9573 34.6028C42.1416 34.6331 42.3691 34.6261 42.6398 34.5818V35.0333ZM40.1618 31.6943V31.2533H42.6398V31.6943H40.1618ZM44.8263 35.1383C44.4506 35.1383 44.1298 35.0531 43.8638 34.8828C43.5978 34.7124 43.3936 34.4768 43.2513 34.1758C43.109 33.8748 43.0378 33.5294 43.0378 33.1398C43.0378 32.7431 43.1101 32.3954 43.2548 32.0968C43.3995 31.7981 43.6048 31.5659 43.8708 31.4003C44.1391 31.2323 44.4576 31.1483 44.8263 31.1483C45.2043 31.1483 45.5263 31.2334 45.7923 31.4038C46.0606 31.5718 46.2648 31.8063 46.4048 32.1073C46.5471 32.4059 46.6183 32.7501 46.6183 33.1398C46.6183 33.5364 46.5471 33.8853 46.4048 34.1863C46.2625 34.4849 46.0571 34.7183 45.7888 34.8863C45.5205 35.0543 45.1996 35.1383 44.8263 35.1383ZM44.8263 34.6448C45.2463 34.6448 45.559 34.5059 45.7643 34.2283C45.9696 33.9483 46.0723 33.5854 46.0723 33.1398C46.0723 32.6824 45.9685 32.3184 45.7608 32.0478C45.5555 31.7771 45.244 31.6418 44.8263 31.6418C44.544 31.6418 44.3106 31.7059 44.1263 31.8343C43.9443 31.9603 43.8078 32.1364 43.7168 32.3628C43.6281 32.5868 43.5838 32.8458 43.5838 33.1398C43.5838 33.5948 43.6888 33.9599 43.8988 34.2353C44.1088 34.5083 44.418 34.6448 44.8263 34.6448ZM49.4484 35.0333C49.2361 35.0776 49.0261 35.0951 48.8184 35.0858C48.6131 35.0764 48.4287 35.0321 48.2654 34.9528C48.1044 34.8734 47.9819 34.7498 47.8979 34.5818C47.8302 34.4418 47.7929 34.3006 47.7859 34.1583C47.7812 34.0136 47.7789 33.8491 47.7789 33.6648V30.2033H48.2899V33.6438C48.2899 33.8024 48.2911 33.9354 48.2934 34.0428C48.2981 34.1478 48.3226 34.2411 48.3669 34.3228C48.4509 34.4791 48.5839 34.5724 48.7659 34.6028C48.9502 34.6331 49.1777 34.6261 49.4484 34.5818V35.0333ZM46.9704 31.6943V31.2533H49.4484V31.6943H46.9704ZM50.6296 36.7133L51.3611 34.7288L51.3716 35.3168L49.7161 31.2533H50.2621L51.6201 34.6518H51.3961L52.6491 31.2533H53.1741L51.1441 36.7133H50.6296ZM55.4795 35.1383C55.1318 35.1383 54.8378 35.0508 54.5975 34.8758C54.3572 34.6984 54.1752 34.4593 54.0515 34.1583C53.9278 33.8549 53.866 33.5154 53.866 33.1398C53.866 32.7571 53.9278 32.4164 54.0515 32.1178C54.1775 31.8168 54.3618 31.5799 54.6045 31.4073C54.8472 31.2346 55.1458 31.1483 55.5005 31.1483C55.8458 31.1483 56.1422 31.2358 56.3895 31.4108C56.6368 31.5858 56.8258 31.8238 56.9565 32.1248C57.0895 32.4258 57.156 32.7641 57.156 33.1398C57.156 33.5178 57.0895 33.8573 56.9565 34.1583C56.8235 34.4593 56.6322 34.6984 56.3825 34.8758C56.1328 35.0508 55.8318 35.1383 55.4795 35.1383ZM53.7785 36.7133V31.2533H54.2405V34.0988H54.2965V36.7133H53.7785ZM55.427 34.6588C55.6907 34.6588 55.91 34.5923 56.085 34.4593C56.26 34.3263 56.3907 34.1454 56.477 33.9168C56.5657 33.6858 56.61 33.4268 56.61 33.1398C56.61 32.8551 56.5668 32.5984 56.4805 32.3698C56.3942 32.1411 56.2623 31.9603 56.085 31.8273C55.91 31.6943 55.6872 31.6278 55.4165 31.6278C55.1528 31.6278 54.9335 31.6919 54.7585 31.8203C54.5858 31.9486 54.4563 32.1271 54.37 32.3558C54.2837 32.5821 54.2405 32.8434 54.2405 33.1398C54.2405 33.4314 54.2837 33.6928 54.37 33.9238C54.4563 34.1524 54.587 34.3321 54.762 34.4628C54.937 34.5934 55.1587 34.6588 55.427 34.6588ZM57.9946 30.5358V29.9583H58.5091V30.5358H57.9946ZM57.9946 35.0333V31.2533H58.5091V35.0333H57.9946ZM62.2884 35.0333V33.1048C62.2884 32.8948 62.2685 32.7023 62.2289 32.5273C62.1892 32.3499 62.125 32.1959 62.0364 32.0653C61.95 31.9323 61.8369 31.8296 61.6969 31.7573C61.5592 31.6849 61.3912 31.6488 61.1929 31.6488C61.0109 31.6488 60.8499 31.6803 60.7099 31.7433C60.5722 31.8063 60.4555 31.8973 60.3599 32.0163C60.2665 32.1329 60.1954 32.2753 60.1464 32.4433C60.0974 32.6113 60.0729 32.8026 60.0729 33.0173L59.7089 32.9368C59.7089 32.5494 59.7765 32.2239 59.9119 31.9603C60.0472 31.6966 60.2339 31.4971 60.4719 31.3618C60.7099 31.2264 60.9829 31.1588 61.2909 31.1588C61.5172 31.1588 61.7144 31.1938 61.8824 31.2638C62.0527 31.3338 62.1962 31.4283 62.3129 31.5473C62.4319 31.6663 62.5275 31.8028 62.5999 31.9568C62.6722 32.1084 62.7247 32.2706 62.7574 32.4433C62.79 32.6136 62.8064 32.7839 62.8064 32.9543V35.0333H62.2884ZM59.5549 35.0333V31.2533H60.0204V32.1843H60.0729V35.0333H59.5549ZM65.2161 36.8183C65.0224 36.8183 64.8311 36.7891 64.6421 36.7308C64.4554 36.6748 64.2828 36.5849 64.1241 36.4613C63.9654 36.3399 63.8324 36.1813 63.7251 35.9853L64.1906 35.7263C64.2956 35.9363 64.4426 36.0868 64.6316 36.1778C64.8229 36.2711 65.0178 36.3178 65.2161 36.3178C65.4891 36.3178 65.7096 36.2664 65.8776 36.1638C66.0479 36.0634 66.1716 35.9141 66.2486 35.7158C66.3256 35.5174 66.3629 35.2701 66.3606 34.9738V33.9658H66.4201V31.2533H66.8786V34.9808C66.8786 35.0881 66.8751 35.1908 66.8681 35.2888C66.8634 35.3891 66.8529 35.4871 66.8366 35.5828C66.7923 35.8651 66.7001 36.0973 66.5601 36.2793C66.4224 36.4613 66.2404 36.5966 66.0141 36.6853C65.7901 36.7739 65.5241 36.8183 65.2161 36.8183ZM65.1811 35.1383C64.8288 35.1383 64.5278 35.0508 64.2781 34.8758C64.0284 34.6984 63.8371 34.4593 63.7041 34.1583C63.5711 33.8573 63.5046 33.5178 63.5046 33.1398C63.5046 32.7641 63.5699 32.4258 63.7006 32.1248C63.8336 31.8238 64.0238 31.5858 64.2711 31.4108C64.5184 31.2358 64.8148 31.1483 65.1601 31.1483C65.5148 31.1483 65.8134 31.2346 66.0561 31.4073C66.2988 31.5799 66.4819 31.8168 66.6056 32.1178C66.7316 32.4164 66.7946 32.7571 66.7946 33.1398C66.7946 33.5154 66.7328 33.8549 66.6091 34.1583C66.4854 34.4593 66.3034 34.6984 66.0631 34.8758C65.8228 35.0508 65.5288 35.1383 65.1811 35.1383ZM65.2336 34.6588C65.5019 34.6588 65.7236 34.5934 65.8986 34.4628C66.0736 34.3321 66.2043 34.1524 66.2906 33.9238C66.3769 33.6928 66.4201 33.4314 66.4201 33.1398C66.4201 32.8434 66.3769 32.5821 66.2906 32.3558C66.2043 32.1271 66.0736 31.9486 65.8986 31.8203C65.7259 31.6919 65.5078 31.6278 65.2441 31.6278C64.9734 31.6278 64.7494 31.6943 64.5721 31.8273C64.3948 31.9603 64.2629 32.1411 64.1766 32.3698C64.0926 32.5984 64.0506 32.8551 64.0506 33.1398C64.0506 33.4268 64.0938 33.6858 64.1801 33.9168C64.2688 34.1454 64.4006 34.3263 64.5756 34.4593C64.7506 34.5923 64.9699 34.6588 65.2336 34.6588Z" fill="black"/>
</svg>
