<svg width="43" height="37" viewBox="0 0 43 37" fill="none" xmlns="http://www.w3.org/2000/svg">
<g clip-path="url(#clip0_3004_1471)">
<path fill-rule="evenodd" clip-rule="evenodd" d="M29.38 17.44C29.4277 17.1035 29.3843 16.7603 29.2543 16.4462C29.1243 16.1321 28.9124 15.8587 28.6407 15.6544C28.369 15.4501 28.0474 15.3225 27.7096 15.2848C27.3718 15.2471 27.03 15.3007 26.72 15.44C25.7796 15.889 24.929 16.5058 24.21 17.26C23.77 17.63 22.28 18.74 22.21 18.77C21.3947 18.7618 20.5891 18.5919 19.84 18.27C19.84 18.17 19.91 18.08 20.03 17.92C21.26 16.21 22.86 15.61 21.73 13.92C21.5538 13.6736 21.3039 13.4895 21.0164 13.3942C20.7288 13.299 20.4184 13.2975 20.13 13.39C18.31 13.67 16.5 15.5 14.77 16.18C14.69 16.18 14.61 16.18 14.59 16.23C14.3 14.23 12.44 14.77 11.73 14.76C11.02 14.75 9.42999 14.64 9.72999 15.33C9.7612 15.4077 9.82161 15.47 9.89826 15.5037C9.9749 15.5373 10.0617 15.5396 10.14 15.51C10.6557 15.4368 11.1801 15.4538 11.69 15.56C12.69 15.67 13.39 15.39 13.5 16.28V22.14C13.5 22.84 13.44 23.02 12.33 23.14C11.6621 23.1892 10.9907 23.159 10.33 23.05C10.2358 23.0328 10.1387 23.0536 10.0599 23.108C9.98116 23.1624 9.92722 23.2459 9.90999 23.34C9.89275 23.4342 9.91361 23.5313 9.968 23.6101C10.0224 23.6888 10.1058 23.7428 10.2 23.76C10.9026 23.9168 11.6201 23.9973 12.34 24C13.34 24 14.04 23.84 14.39 23L16.74 22.48C20.46 23.48 25.55 23.64 28.81 21.57C30.06 20.76 31.44 19.76 30.75 18.43C30.6378 18.1529 30.4498 17.913 30.2074 17.7379C29.9651 17.5628 29.6783 17.4595 29.38 17.44ZM24.83 18.12C25.83 17.47 27.18 16.12 27.95 16.41C28.1717 16.4857 28.3572 16.6415 28.47 16.8468C28.5828 17.0522 28.6149 17.2922 28.56 17.52C26.62 17.95 25.68 18.36 23.95 18.59C24.27 18.43 24.59 18.26 24.83 18.12ZM28.17 20.56C23.91 23.49 16.94 21.66 16.67 21.73C14.36 22.31 14.56 22.31 14.57 22.22C14.7151 20.4838 14.7385 18.7395 14.64 17C15.97 16.93 20.31 13.31 20.97 14.4C21.63 15.49 20.43 15.71 19.2 17.3C18.57 18.12 18.72 18.67 19.1 19.06C19.6573 19.4593 20.3018 19.7198 20.98 19.82C23.33 20.41 27.33 19.08 28.2 18.91C28.89 18.76 29.38 18.44 29.68 19.01C29.98 19.58 28.63 20.25 28.17 20.56Z" fill="black"/>
<path fill-rule="evenodd" clip-rule="evenodd" d="M20.4 10.82C20.4955 10.82 20.587 10.7821 20.6545 10.7146C20.722 10.647 20.76 10.5555 20.76 10.46C20.76 10.3645 20.722 10.273 20.6545 10.2054C20.587 10.1379 20.4955 10.1 20.4 10.1C19.74 10.07 16.5 7.42 16 7C15.5 6.58 15.5 6.87 15.85 6.52C16.2 6.17 16.63 5.89 16.78 5.76C17.9731 4.61116 19.2684 3.57353 20.65 2.66C20.7242 2.61757 20.7786 2.54737 20.8011 2.46485C20.8236 2.38234 20.8124 2.29426 20.77 2.22C20.7275 2.14574 20.6573 2.09138 20.5748 2.06887C20.4923 2.04637 20.4042 2.05757 20.33 2.1C18.2073 3.17147 16.2449 4.53469 14.5 6.15C14.3895 6.28876 14.3159 6.45324 14.2862 6.62811C14.2565 6.80298 14.2715 6.98253 14.33 7.15C14.6 7.69 19.4 10.86 20.4 10.82Z" fill="black"/>
<path fill-rule="evenodd" clip-rule="evenodd" d="M22.24 12.11C23.35 8.55 25.75 5.46 26.42 0.380005C26.4361 0.336468 26.4425 0.28995 26.4388 0.243676C26.4351 0.197402 26.4215 0.152482 26.3987 0.11203C26.3759 0.0715785 26.3446 0.0365647 26.307 0.00941785C26.2693 -0.017729 26.2262 -0.036359 26.1806 -0.0451797C26.1351 -0.0540003 26.0881 -0.0528004 26.043 -0.0416633C25.998 -0.0305261 25.9559 -0.00971827 25.9197 0.0193166C25.8834 0.0483515 25.854 0.0849183 25.8333 0.12648C25.8126 0.168042 25.8013 0.213604 25.7999 0.260005C24.9999 3.46 22.51 7.26 21.54 11.93C21.5281 11.976 21.5255 12.0238 21.5322 12.0708C21.5388 12.1178 21.5547 12.163 21.5788 12.2039C21.603 12.2447 21.6349 12.2804 21.6729 12.3089C21.7108 12.3374 21.754 12.3582 21.8 12.37C21.8459 12.3818 21.8938 12.3845 21.9407 12.3778C21.9877 12.3711 22.0329 12.3553 22.0738 12.3311C22.1147 12.307 22.1504 12.275 22.1789 12.2371C22.2074 12.1992 22.2281 12.156 22.24 12.11Z" fill="black"/>
<path fill-rule="evenodd" clip-rule="evenodd" d="M28.2999 2.32C28.2336 2.26696 28.149 2.24243 28.0646 2.25181C27.9802 2.26118 27.903 2.3037 27.8499 2.37C27.7969 2.43631 27.7724 2.52097 27.7817 2.60536C27.7911 2.68975 27.8336 2.76696 27.8999 2.82C28.3299 3.2 31.6999 6.19 31.9999 6.67C30.9099 8 26.8199 10.47 26.8399 10.56C26.7511 10.5875 26.6759 10.6473 26.6293 10.7277C26.5826 10.808 26.5679 10.903 26.588 10.9938C26.6082 11.0845 26.6618 11.1643 26.7381 11.2173C26.8144 11.2704 26.9079 11.2927 26.9999 11.28C27.3799 11.22 32.8099 8.28 33.2899 6.84C33.5799 5.92 31.4999 4.62 28.2999 2.32Z" fill="black"/>
</g>
<path d="M0.49 35V29.96H2.0195C2.07317 29.96 2.16417 29.9612 2.2925 29.9635C2.42317 29.9658 2.548 29.9752 2.667 29.9915C3.04967 30.0452 3.36933 30.1875 3.626 30.4185C3.88267 30.6495 4.07517 30.9435 4.2035 31.3005C4.33183 31.6575 4.396 32.0507 4.396 32.48C4.396 32.9093 4.33183 33.3025 4.2035 33.6595C4.07517 34.0165 3.88267 34.3105 3.626 34.5415C3.36933 34.7725 3.04967 34.9148 2.667 34.9685C2.55033 34.9825 2.4255 34.9918 2.2925 34.9965C2.1595 34.9988 2.0685 35 2.0195 35H0.49ZM1.022 34.5065H2.0195C2.11517 34.5065 2.21783 34.5042 2.3275 34.4995C2.4395 34.4925 2.53517 34.4808 2.6145 34.4645C2.9085 34.4132 3.14533 34.2942 3.325 34.1075C3.507 33.9208 3.64 33.6875 3.724 33.4075C3.808 33.1252 3.85 32.816 3.85 32.48C3.85 32.1417 3.808 31.8313 3.724 31.549C3.64 31.2667 3.507 31.0333 3.325 30.849C3.143 30.6647 2.90617 30.5468 2.6145 30.4955C2.53517 30.4792 2.43833 30.4687 2.324 30.464C2.212 30.457 2.1105 30.4535 2.0195 30.4535H1.022V34.5065ZM6.79263 35.105C6.42396 35.105 6.10429 35.0233 5.83363 34.86C5.56529 34.6967 5.35646 34.4668 5.20713 34.1705C5.05779 33.8742 4.98313 33.5265 4.98313 33.1275C4.98313 32.7145 5.05663 32.3575 5.20363 32.0565C5.35063 31.7555 5.55713 31.5233 5.82313 31.36C6.09146 31.1967 6.40763 31.115 6.77163 31.115C7.14496 31.115 7.46346 31.2013 7.72713 31.374C7.99079 31.5443 8.19029 31.7893 8.32563 32.109C8.46096 32.4287 8.52279 32.8102 8.51113 33.2535H7.98613V33.0715C7.97679 32.5815 7.87063 32.2117 7.66763 31.962C7.46696 31.7123 7.17296 31.5875 6.78563 31.5875C6.37963 31.5875 6.06813 31.7193 5.85113 31.983C5.63646 32.2467 5.52913 32.6223 5.52913 33.11C5.52913 33.586 5.63646 33.9558 5.85113 34.2195C6.06813 34.4808 6.37496 34.6115 6.77163 34.6115C7.04229 34.6115 7.27796 34.5497 7.47863 34.426C7.68163 34.3 7.84146 34.1192 7.95813 33.8835L8.43763 34.069C8.28829 34.398 8.06779 34.6535 7.77613 34.8355C7.48679 35.0152 7.15896 35.105 6.79263 35.105ZM5.34713 33.2535V32.823H8.23463V33.2535H5.34713ZM10.1731 35L8.80113 31.22H9.32263L10.4391 34.328L11.5486 31.22H12.0771L10.7051 35H10.1731ZM14.1686 35.105C13.7999 35.105 13.4803 35.0233 13.2096 34.86C12.9413 34.6967 12.7324 34.4668 12.5831 34.1705C12.4338 33.8742 12.3591 33.5265 12.3591 33.1275C12.3591 32.7145 12.4326 32.3575 12.5796 32.0565C12.7266 31.7555 12.9331 31.5233 13.1991 31.36C13.4674 31.1967 13.7836 31.115 14.1476 31.115C14.5209 31.115 14.8394 31.2013 15.1031 31.374C15.3668 31.5443 15.5663 31.7893 15.7016 32.109C15.8369 32.4287 15.8988 32.8102 15.8871 33.2535H15.3621V33.0715C15.3528 32.5815 15.2466 32.2117 15.0436 31.962C14.8429 31.7123 14.5489 31.5875 14.1616 31.5875C13.7556 31.5875 13.4441 31.7193 13.2271 31.983C13.0124 32.2467 12.9051 32.6223 12.9051 33.11C12.9051 33.586 13.0124 33.9558 13.2271 34.2195C13.4441 34.4808 13.7509 34.6115 14.1476 34.6115C14.4183 34.6115 14.6539 34.5497 14.8546 34.426C15.0576 34.3 15.2174 34.1192 15.3341 33.8835L15.8136 34.069C15.6643 34.398 15.4438 34.6535 15.1521 34.8355C14.8628 35.0152 14.5349 35.105 14.1686 35.105ZM12.7231 33.2535V32.823H15.6106V33.2535H12.7231ZM16.7338 35V29.855H17.2483V35H16.7338ZM19.8761 35.105C19.5005 35.105 19.1796 35.0198 18.9136 34.8495C18.6476 34.6792 18.4435 34.4435 18.3011 34.1425C18.1588 33.8415 18.0876 33.4962 18.0876 33.1065C18.0876 32.7098 18.16 32.3622 18.3046 32.0635C18.4493 31.7648 18.6546 31.5327 18.9206 31.367C19.189 31.199 19.5075 31.115 19.8761 31.115C20.2541 31.115 20.5761 31.2002 20.8421 31.3705C21.1105 31.5385 21.3146 31.773 21.4546 32.074C21.597 32.3727 21.6681 32.7168 21.6681 33.1065C21.6681 33.5032 21.597 33.852 21.4546 34.153C21.3123 34.4517 21.107 34.685 20.8386 34.853C20.5703 35.021 20.2495 35.105 19.8761 35.105ZM19.8761 34.6115C20.2961 34.6115 20.6088 34.4727 20.8141 34.195C21.0195 33.915 21.1221 33.5522 21.1221 33.1065C21.1221 32.6492 21.0183 32.2852 20.8106 32.0145C20.6053 31.7438 20.2938 31.6085 19.8761 31.6085C19.5938 31.6085 19.3605 31.6727 19.1761 31.801C18.9941 31.927 18.8576 32.1032 18.7666 32.3295C18.678 32.5535 18.6336 32.8125 18.6336 33.1065C18.6336 33.5615 18.7386 33.9267 18.9486 34.202C19.1586 34.475 19.4678 34.6115 19.8761 34.6115ZM24.1377 35.105C23.79 35.105 23.496 35.0175 23.2557 34.8425C23.0154 34.6652 22.8334 34.426 22.7097 34.125C22.586 33.8217 22.5242 33.4822 22.5242 33.1065C22.5242 32.7238 22.586 32.3832 22.7097 32.0845C22.8357 31.7835 23.02 31.5467 23.2627 31.374C23.5054 31.2013 23.804 31.115 24.1587 31.115C24.504 31.115 24.8004 31.2025 25.0477 31.3775C25.295 31.5525 25.484 31.7905 25.6147 32.0915C25.7477 32.3925 25.8142 32.7308 25.8142 33.1065C25.8142 33.4845 25.7477 33.824 25.6147 34.125C25.4817 34.426 25.2904 34.6652 25.0407 34.8425C24.791 35.0175 24.49 35.105 24.1377 35.105ZM22.4367 36.68V31.22H22.8987V34.0655H22.9547V36.68H22.4367ZM24.0852 34.6255C24.3489 34.6255 24.5682 34.559 24.7432 34.426C24.9182 34.293 25.0489 34.1122 25.1352 33.8835C25.2239 33.6525 25.2682 33.3935 25.2682 33.1065C25.2682 32.8218 25.225 32.5652 25.1387 32.3365C25.0524 32.1078 24.9205 31.927 24.7432 31.794C24.5682 31.661 24.3454 31.5945 24.0747 31.5945C23.811 31.5945 23.5917 31.6587 23.4167 31.787C23.244 31.9153 23.1145 32.0938 23.0282 32.3225C22.9419 32.5488 22.8987 32.8102 22.8987 33.1065C22.8987 33.3982 22.9419 33.6595 23.0282 33.8905C23.1145 34.1192 23.2452 34.2988 23.4202 34.4295C23.5952 34.5602 23.8169 34.6255 24.0852 34.6255ZM31.0908 35L31.0943 32.5185C31.0943 32.2268 31.0126 31.9982 30.8493 31.8325C30.6883 31.6645 30.4829 31.5805 30.2333 31.5805C30.0909 31.5805 29.9521 31.6132 29.8168 31.6785C29.6814 31.7438 29.5694 31.8488 29.4808 31.9935C29.3944 32.1382 29.3513 32.3272 29.3513 32.5605L29.0468 32.473C29.0398 32.2023 29.0923 31.9655 29.2043 31.7625C29.3186 31.5595 29.4749 31.402 29.6733 31.29C29.8739 31.1757 30.1003 31.1185 30.3523 31.1185C30.7326 31.1185 31.0371 31.2363 31.2658 31.472C31.4944 31.7053 31.6088 32.0215 31.6088 32.4205L31.6053 35H31.0908ZM26.5793 35V31.22H27.0413V32.151H27.0973V35H26.5793ZM28.8403 35L28.8438 32.5535C28.8438 32.2525 28.7633 32.0157 28.6023 31.843C28.4436 31.668 28.2336 31.5805 27.9723 31.5805C27.7109 31.5805 27.4998 31.6703 27.3388 31.85C27.1778 32.0273 27.0973 32.2642 27.0973 32.5605L26.7893 32.3925C26.7893 32.1498 26.8464 31.9328 26.9608 31.7415C27.0751 31.5478 27.2314 31.3962 27.4298 31.2865C27.6281 31.1745 27.8533 31.1185 28.1053 31.1185C28.3456 31.1185 28.5591 31.1698 28.7458 31.2725C28.9348 31.3752 29.0829 31.5245 29.1903 31.7205C29.2976 31.9165 29.3513 32.1545 29.3513 32.4345L29.3478 35H28.8403ZM34.0954 35.105C33.7267 35.105 33.407 35.0233 33.1364 34.86C32.868 34.6967 32.6592 34.4668 32.5099 34.1705C32.3605 33.8742 32.2859 33.5265 32.2859 33.1275C32.2859 32.7145 32.3594 32.3575 32.5064 32.0565C32.6534 31.7555 32.8599 31.5233 33.1259 31.36C33.3942 31.1967 33.7104 31.115 34.0744 31.115C34.4477 31.115 34.7662 31.2013 35.0299 31.374C35.2935 31.5443 35.493 31.7893 35.6284 32.109C35.7637 32.4287 35.8255 32.8102 35.8139 33.2535H35.2889V33.0715C35.2795 32.5815 35.1734 32.2117 34.9704 31.962C34.7697 31.7123 34.4757 31.5875 34.0884 31.5875C33.6824 31.5875 33.3709 31.7193 33.1539 31.983C32.9392 32.2467 32.8319 32.6223 32.8319 33.11C32.8319 33.586 32.9392 33.9558 33.1539 34.2195C33.3709 34.4808 33.6777 34.6115 34.0744 34.6115C34.345 34.6115 34.5807 34.5497 34.7814 34.426C34.9844 34.3 35.1442 34.1192 35.2609 33.8835L35.7404 34.069C35.591 34.398 35.3705 34.6535 35.0789 34.8355C34.7895 35.0152 34.4617 35.105 34.0954 35.105ZM32.6499 33.2535V32.823H35.5374V33.2535H32.6499ZM39.218 35V33.0715C39.218 32.8615 39.1982 32.669 39.1585 32.494C39.1189 32.3167 39.0547 32.1627 38.966 32.032C38.8797 31.899 38.7665 31.7963 38.6265 31.724C38.4889 31.6517 38.3209 31.6155 38.1225 31.6155C37.9405 31.6155 37.7795 31.647 37.6395 31.71C37.5019 31.773 37.3852 31.864 37.2895 31.983C37.1962 32.0997 37.125 32.242 37.076 32.41C37.027 32.578 37.0025 32.7693 37.0025 32.984L36.6385 32.9035C36.6385 32.5162 36.7062 32.1907 36.8415 31.927C36.9769 31.6633 37.1635 31.4638 37.4015 31.3285C37.6395 31.1932 37.9125 31.1255 38.2205 31.1255C38.4469 31.1255 38.644 31.1605 38.812 31.2305C38.9824 31.3005 39.1259 31.395 39.2425 31.514C39.3615 31.633 39.4572 31.7695 39.5295 31.9235C39.6019 32.0752 39.6544 32.2373 39.687 32.41C39.7197 32.5803 39.736 32.7507 39.736 32.921V35H39.218ZM36.4845 35V31.22H36.95V32.151H37.0025V35H36.4845ZM42.7023 35C42.49 35.0443 42.28 35.0618 42.0723 35.0525C41.867 35.0432 41.6826 34.9988 41.5193 34.9195C41.3583 34.8402 41.2358 34.7165 41.1518 34.5485C41.0841 34.4085 41.0468 34.2673 41.0398 34.125C41.0351 33.9803 41.0328 33.8158 41.0328 33.6315V30.17H41.5438V33.6105C41.5438 33.7692 41.545 33.9022 41.5473 34.0095C41.552 34.1145 41.5765 34.2078 41.6208 34.2895C41.7048 34.4458 41.8378 34.5392 42.0198 34.5695C42.2041 34.5998 42.4316 34.5928 42.7023 34.5485V35ZM40.2243 31.661V31.22H42.7023V31.661H40.2243Z" fill="black"/>
<defs>
<clipPath id="clip0_3004_1471">
<rect width="24" height="24" fill="white" transform="translate(9.5)"/>
</clipPath>
</defs>
</svg>
