<svg width="61" height="37" viewBox="0 0 61 37" fill="none" xmlns="http://www.w3.org/2000/svg">
<g clip-path="url(#clip0_3002_1464)">
<path d="M37.09 9.31C36.9083 9.21192 36.7063 9.15716 36.5 9.15C36.01 9.15 35.26 9.29 34.97 9.31C34.7968 9.29797 34.6231 9.29797 34.45 9.31C34.3145 9.34251 34.1924 9.41581 34.1 9.52C33.86 9.82 33.76 10.27 33.55 10.6C33.5172 10.6571 33.4709 10.7052 33.415 10.7401C33.3592 10.775 33.2956 10.7956 33.23 10.8C32.99 10.8 32.85 10.8 32.77 10.65C32.47 10.25 32.39 9.65 31.87 9.43C31.5872 9.3337 31.2877 9.29627 30.99 9.32C30.55 9.32 30.04 9.41 29.65 9.45C29.699 9.32637 29.7391 9.19937 29.77 9.07C29.89 8.47 29.77 7.82 29.9 7.21L30.08 7.27C30.2707 7.3151 30.4693 7.3151 30.66 7.27C31.3644 7.03815 31.9498 6.53902 32.29 5.88C32.4178 5.63988 32.4846 5.37202 32.4846 5.1C32.4846 4.82798 32.4178 4.56012 32.29 4.32C32.209 4.1786 32.0947 4.05913 31.957 3.97199C31.8193 3.88485 31.6624 3.83267 31.5 3.82C31.1943 3.78514 30.8856 3.78514 30.58 3.82H30.32C30.049 3.38331 29.8562 2.90281 29.75 2.4C29.6661 2.09937 29.5196 1.8199 29.32 1.58C29.0589 1.36791 28.7535 1.21733 28.4263 1.13943C28.0991 1.06153 27.7586 1.0583 27.43 1.13C27.346 1.13762 27.2681 1.17709 27.2123 1.24032C27.1565 1.30354 27.1271 1.38573 27.13 1.47C27.1325 1.51205 27.1433 1.55319 27.1618 1.59104C27.1803 1.6289 27.2061 1.66274 27.2377 1.69061C27.2693 1.71848 27.306 1.73984 27.3459 1.75347C27.3858 1.76709 27.4279 1.77271 27.47 1.77C28.22 1.77 28.61 1.77 28.82 2.05C28.9841 2.28523 29.0903 2.55592 29.13 2.84C29.2479 3.38823 29.4721 3.90804 29.79 4.37C29.8421 4.43888 29.9083 4.4959 29.9842 4.53728C30.06 4.57865 30.1438 4.60344 30.23 4.61H31.17C31.33 4.61 31.5 4.61 31.57 4.72C31.6454 4.88378 31.6704 5.06627 31.6419 5.24431C31.6134 5.42235 31.5327 5.58792 31.41 5.72C31.1622 6.05643 30.8109 6.30233 30.41 6.42C30.33 6.42 30.22 6.42 30.11 6.35C29.9103 6.30275 29.7041 6.28923 29.5 6.31C29.3656 6.31845 29.2379 6.3711 29.1366 6.45972C29.0353 6.54835 28.9662 6.66799 28.94 6.8C28.77 7.48 28.86 8.22 28.71 8.91C28.6643 9.09377 28.5901 9.26924 28.49 9.43C28.23 9.43 27.81 9.25 27.76 9.25C27.4706 9.16625 27.1712 9.12251 26.87 9.12C26.7248 8.65052 26.5162 8.20306 26.25 7.79C26.087 7.57266 25.8756 7.39625 25.6326 7.27475C25.3896 7.15325 25.1216 7.09 24.85 7.09C24.6103 7.07546 24.3708 7.12196 24.1539 7.22514C23.937 7.32833 23.7499 7.48482 23.61 7.68C23.2936 8.24034 23.0961 8.85991 23.03 9.5L22.63 9.57H21.01C20.6725 9.56902 20.3365 9.52534 20.01 9.44C19.76 9.38 19.71 9.16 19.71 8.92C19.7702 8.33652 19.9221 7.76618 20.16 7.23C20.6272 6.11704 21.3419 5.12524 22.25 4.33C23.1591 3.50924 24.2331 2.89214 25.4 2.52C25.4538 2.48788 25.4954 2.4386 25.5179 2.38006C25.5404 2.32152 25.5426 2.25711 25.5242 2.19716C25.5057 2.13721 25.4677 2.08519 25.4162 2.04944C25.3646 2.01369 25.3026 1.99628 25.24 2C23.9788 2.35485 22.8067 2.97159 21.8 3.81C20.7732 4.65569 19.9554 5.72678 19.41 6.94C19.0341 7.6837 18.842 8.50673 18.85 9.34C18.879 9.59024 18.9835 9.82571 19.1496 10.0151C19.3158 10.2044 19.5356 10.3387 19.78 10.4C20.1654 10.507 20.5608 10.5741 20.96 10.6H22.64C22.9031 10.6162 23.1669 10.6162 23.43 10.6C23.5491 10.5921 23.6631 10.5489 23.7575 10.4759C23.8519 10.4028 23.9224 10.3033 23.96 10.19C24.0441 9.60998 24.1882 9.04026 24.39 8.49C24.4215 8.38963 24.4839 8.30177 24.5683 8.23893C24.6527 8.17609 24.7548 8.14147 24.86 8.14C24.9726 8.13961 25.0837 8.16564 25.1845 8.21601C25.2852 8.26637 25.3727 8.33967 25.44 8.43C25.7028 8.88509 25.9141 9.36808 26.07 9.87C26.1145 9.96466 26.1815 10.047 26.2652 10.1097C26.3488 10.1725 26.4466 10.2138 26.55 10.23C26.9495 10.2576 27.3504 10.2576 27.75 10.23C27.85 10.23 28.51 10.32 28.75 10.31C28.8467 10.3121 28.9427 10.2925 29.031 10.2527C29.1192 10.2129 29.1974 10.1539 29.26 10.08V10.02C29.65 10.02 30.33 9.95 30.9 9.96C31.0973 9.95151 31.2944 9.9821 31.48 10.05C31.71 10.16 31.74 10.41 31.82 10.63C31.897 10.901 32.0455 11.1462 32.25 11.34C32.5096 11.5475 32.8388 11.6477 33.17 11.62C33.4698 11.6148 33.7575 11.5011 33.98 11.3C34.2288 10.9927 34.4402 10.6571 34.61 10.3C35.01 10.3 36.3 10.17 36.3 10.17C36.3 10.34 36.08 11.57 35.97 12.06C35.8613 12.5531 35.7278 13.0404 35.57 13.52L34.5 16.7C34.4261 16.9763 34.3325 17.247 34.22 17.51C34.1698 17.6278 34.0907 17.731 33.99 17.81C33.6679 18.0094 33.3061 18.1357 32.93 18.18C32.2947 18.24 31.6552 18.24 31.02 18.18H29.64C29.4901 18.1903 29.3398 18.1903 29.19 18.18C29.353 17.8048 29.4576 17.4069 29.5 17C29.6329 16.2593 29.6329 15.5007 29.5 14.76C29.4597 14.6586 29.393 14.5699 29.3069 14.5031C29.2207 14.4363 29.1182 14.3938 29.01 14.38L28.25 14.28C27.9729 14.2335 27.7136 14.1125 27.5 13.93C27.4122 13.8575 27.3402 13.7677 27.2886 13.6662C27.237 13.5647 27.2068 13.4537 27.2 13.34C27.2 13.06 27.2 12.91 27.38 12.88C27.7159 12.8621 28.0526 12.8924 28.38 12.97C28.6001 13.0234 28.8298 13.0234 29.05 12.97C29.1585 12.9017 29.2483 12.8074 29.3112 12.6957C29.374 12.5839 29.408 12.4582 29.41 12.33C29.4464 11.7806 29.4464 11.2294 29.41 10.68C29.4074 10.6379 29.3966 10.5968 29.3781 10.559C29.3596 10.5211 29.3339 10.4873 29.3023 10.4594C29.2707 10.4315 29.2339 10.4102 29.194 10.3965C29.1542 10.3829 29.112 10.3773 29.07 10.38C28.9869 10.3852 28.909 10.4225 28.853 10.4841C28.797 10.5457 28.7672 10.6268 28.77 10.71C28.8018 11.2473 28.7818 11.7865 28.71 12.32C28.4196 12.2839 28.1322 12.2271 27.85 12.15C27.5082 12.0823 27.1535 12.1391 26.85 12.31C26.6898 12.4351 26.5644 12.5991 26.4857 12.7864C26.4069 12.9737 26.3774 13.1781 26.4 13.38C26.4014 13.7415 26.5208 14.0926 26.74 14.38C27.0624 14.7754 27.4989 15.0617 27.99 15.2L28.59 15.31C28.634 15.7155 28.634 16.1245 28.59 16.53C28.5611 17.0105 28.417 17.4769 28.17 17.89C28.17 17.94 28.07 17.94 28.01 17.96C27.8012 18.0197 27.5867 18.0566 27.37 18.07H26.12C25.6289 18.0828 25.1376 18.0594 24.65 18C24.3755 17.9748 24.1079 17.9003 23.86 17.78C23.7145 17.7014 23.5909 17.5881 23.5 17.45C23.28 17.11 23.11 16.72 22.92 16.45C22.1405 15.4097 21.4386 14.3134 20.82 13.17C20.422 12.4093 20.1069 11.608 19.88 10.78C19.8757 10.7404 19.863 10.7023 19.8428 10.668C19.8225 10.6337 19.7953 10.6042 19.7627 10.5813C19.7302 10.5584 19.6931 10.5427 19.6541 10.5352C19.615 10.5278 19.5748 10.5287 19.5361 10.5381C19.4974 10.5474 19.4611 10.5648 19.4297 10.5892C19.3983 10.6137 19.3725 10.6445 19.3539 10.6797C19.3354 10.7149 19.3245 10.7536 19.3221 10.7933C19.3197 10.8331 19.3258 10.8728 19.34 10.91C19.5252 11.7941 19.8138 12.6534 20.2 13.47C20.783 14.6825 21.4513 15.8521 22.2 16.97C22.41 17.29 22.58 17.78 22.83 18.16C22.972 18.3838 23.1636 18.572 23.39 18.71C23.7366 18.8927 24.1121 19.0145 24.5 19.07L24.97 19.13V19.86C24.9758 20.0696 25.0198 20.2763 25.1 20.47C25.186 20.6779 25.3237 20.8603 25.5 21L25.68 21.1C25.6751 21.1298 25.6751 21.1602 25.68 21.19C25.7171 21.7717 25.8809 22.3382 26.16 22.85C26.3863 23.2279 26.7159 23.5332 27.11 23.73C27.5868 23.9402 28.1059 24.037 28.6264 24.0127C29.147 23.9884 29.6548 23.8437 30.11 23.59C30.5897 23.3548 30.9749 22.9631 31.2021 22.4795C31.4293 21.996 31.485 21.4494 31.36 20.93C31.5172 20.8544 31.6649 20.7604 31.8 20.65C32.024 20.438 32.2017 20.182 32.3222 19.8981C32.4426 19.6141 32.5032 19.3084 32.5 19H33.04C33.5428 18.9581 34.0306 18.808 34.47 18.56C34.7109 18.4111 34.9077 18.2005 35.04 17.95C35.1821 17.6581 35.3056 17.3575 35.41 17.05C35.7 16.32 36.03 15.6 36.32 14.87C36.45 14.54 36.57 14.22 36.68 13.87C36.85 13.36 37 12.87 37.12 12.31C37.239 11.7765 37.3192 11.2351 37.36 10.69C37.3921 10.3741 37.3921 10.0558 37.36 9.74C37.3461 9.65387 37.3151 9.57142 37.2687 9.49755C37.2223 9.42367 37.1615 9.35989 37.09 9.31ZM30.02 22.49C29.6505 22.7284 29.2281 22.8726 28.79 22.91C28.3565 22.9699 27.915 22.9289 27.5 22.79C27.1758 22.6861 26.897 22.4744 26.71 22.19C26.5432 21.9264 26.4152 21.6401 26.33 21.34H26.39C26.7902 21.4039 27.1947 21.4374 27.6 21.44C28.19 21.44 28.78 21.37 29.34 21.33C29.807 21.2921 30.2712 21.2253 30.73 21.13C30.7398 21.3988 30.6795 21.6656 30.555 21.904C30.4305 22.1425 30.2461 22.3444 30.02 22.49ZM31.27 20C30.6447 20.2856 29.9507 20.3863 29.27 20.29C28.63 20.34 27.96 20.39 27.27 20.4C27.0002 20.415 26.7298 20.415 26.46 20.4C26.3086 20.3924 26.1597 20.3585 26.02 20.3C25.8975 20.2636 25.7892 20.1903 25.71 20.09C25.638 19.9504 25.5971 19.7969 25.59 19.64C25.5803 19.4768 25.5803 19.3132 25.59 19.15H26.1C26.7319 19.165 27.364 19.1282 27.99 19.04C28.2827 18.9851 28.5594 18.8655 28.8 18.69C28.8441 18.7431 28.9034 18.7814 28.97 18.8C29.1813 18.8392 29.3952 18.8626 29.61 18.87H30.97L31.82 18.95C31.8056 19.1535 31.7493 19.3518 31.6547 19.5325C31.56 19.7132 31.4291 19.8723 31.27 20Z" fill="black"/>
<path d="M42.08 4.3C41.9143 3.85484 41.7206 3.42064 41.5 3C41.2046 2.32079 40.757 1.71862 40.1917 1.24004C39.6264 0.76146 38.9586 0.419294 38.24 0.239996C36.8505 -0.112082 35.3912 -0.077502 34.02 0.339996C33.9791 0.351486 33.9409 0.371009 33.9076 0.397427C33.8743 0.423846 33.8466 0.45663 33.8261 0.493866C33.8057 0.531102 33.7928 0.572044 33.7883 0.614303C33.7838 0.656562 33.7878 0.699291 33.8 0.739996C33.8255 0.818986 33.8797 0.885491 33.952 0.926263C34.0243 0.967035 34.1093 0.979079 34.19 0.959996C35.4427 0.610178 36.7673 0.610178 38.02 0.959996C38.6174 1.12367 39.1686 1.42384 39.6302 1.83685C40.0918 2.24986 40.4512 2.76442 40.68 3.34C40.75 3.51 40.91 3.86 41.03 4.21C41.15 4.56 41.23 4.67 41.19 4.8C41.15 4.93 41.06 4.91 40.98 4.97C40.75 5.12 40.46 5.26 40.23 5.4C40.089 5.48838 39.9611 5.59609 39.85 5.72C39.7913 5.78476 39.746 5.86054 39.7169 5.94294C39.6877 6.02534 39.6752 6.11272 39.68 6.2C39.68 6.36 39.75 6.62 39.75 6.74C39.7381 6.96533 39.673 7.18464 39.56 7.38C39.5315 7.45056 39.4852 7.51253 39.4256 7.55985C39.366 7.60718 39.2952 7.63824 39.22 7.65C38.99 7.65 38.89 7.51 38.79 7.36C38.6454 7.11476 38.478 6.88374 38.29 6.67C38.1127 6.4785 37.8833 6.34295 37.63 6.28C37.4692 6.23936 37.3008 6.23936 37.14 6.28C36.7775 6.42294 36.4265 6.59343 36.09 6.79C36.0059 6.83966 35.9149 6.87672 35.82 6.9C35.82 6.9 35.77 6.9 35.75 6.9C35.6732 6.79294 35.6063 6.67914 35.55 6.56C35.38 6.19 35.25 5.75 35.09 5.43L35.02 5.29C35.5311 4.99135 35.9712 4.58534 36.31 4.1C36.4797 3.83766 36.5441 3.52093 36.4903 3.21317C36.4366 2.9054 36.2686 2.62927 36.02 2.44C35.8949 2.31662 35.7465 2.21946 35.5833 2.15421C35.4202 2.08895 35.2457 2.05692 35.07 2.06C34.5479 2.16143 34.0383 2.31901 33.55 2.53L33.5 2.36L32.94 0.809996C32.9148 0.738388 32.8622 0.679721 32.7938 0.646903C32.7253 0.614084 32.6466 0.609801 32.575 0.634996C32.5034 0.660192 32.4447 0.712802 32.4119 0.781253C32.3791 0.849704 32.3748 0.928388 32.4 0.999997L32.89 2.57C32.89 2.57 32.98 2.89 33.03 3C33.0565 3.06841 33.1033 3.1271 33.164 3.1682C33.2248 3.20931 33.2967 3.23087 33.37 3.23C33.86 3.23 34.37 2.89 34.88 2.81C34.9909 2.78249 35.1071 2.78563 35.2163 2.8191C35.3255 2.85257 35.4236 2.9151 35.5 3C35.5989 3.08211 35.6646 3.19737 35.6848 3.3243C35.7051 3.45124 35.6785 3.5812 35.61 3.69C35.24 4.1466 34.7762 4.51833 34.25 4.78C34.1685 4.82632 34.1023 4.89553 34.0596 4.97905C34.017 5.06258 33.9997 5.15678 34.01 5.25C34.0594 5.47537 34.1367 5.69371 34.24 5.9C34.38 6.22 34.5 6.66 34.65 7.04C34.7342 7.23865 34.8416 7.42663 34.97 7.6C35.0642 7.72555 35.1866 7.82719 35.3273 7.89668C35.468 7.96617 35.6231 8.00156 35.78 8C36.1794 7.9557 36.5629 7.81873 36.9 7.6C37.1 7.49 37.43 7.36 37.43 7.36C37.5683 7.47778 37.6836 7.62019 37.77 7.78C37.9084 8.01401 38.0764 8.22913 38.27 8.42C38.4114 8.54985 38.5797 8.64678 38.763 8.70384C38.9463 8.7609 39.1399 8.77666 39.33 8.75C39.5282 8.72947 39.7198 8.66717 39.8922 8.56719C40.0646 8.46722 40.2138 8.33184 40.33 8.17C40.6266 7.76952 40.7941 7.28811 40.81 6.79C40.8351 6.62427 40.8351 6.45572 40.81 6.29C41.09 6.09 41.51 5.9 41.81 5.67C41.9644 5.53321 42.0843 5.3619 42.16 5.17C42.2221 4.87859 42.1942 4.57519 42.08 4.3Z" fill="black"/>
</g>
<path d="M0.06 35V29.96H0.5745V35H0.06ZM3.09029 35.105C2.73796 35.105 2.43696 35.0175 2.18729 34.8425C1.93762 34.6652 1.74629 34.426 1.61329 34.125C1.48029 33.824 1.41379 33.4845 1.41379 33.1065C1.41379 32.7308 1.47912 32.3925 1.60979 32.0915C1.74279 31.7905 1.93296 31.5525 2.18029 31.3775C2.42762 31.2025 2.72396 31.115 3.06929 31.115C3.42396 31.115 3.72262 31.2013 3.96529 31.374C4.20796 31.5467 4.39112 31.7835 4.51479 32.0845C4.64079 32.3832 4.70379 32.7238 4.70379 33.1065C4.70379 33.4822 4.64196 33.8217 4.51829 34.125C4.39462 34.426 4.21262 34.6652 3.97229 34.8425C3.73196 35.0175 3.43796 35.105 3.09029 35.105ZM3.14279 34.6255C3.41112 34.6255 3.63279 34.5602 3.80779 34.4295C3.98279 34.2988 4.11346 34.1192 4.19979 33.8905C4.28612 33.6595 4.32929 33.3982 4.32929 33.1065C4.32929 32.8102 4.28612 32.5488 4.19979 32.3225C4.11346 32.0938 3.98279 31.9153 3.80779 31.787C3.63512 31.6587 3.41696 31.5945 3.15329 31.5945C2.88262 31.5945 2.65862 31.661 2.48129 31.794C2.30396 31.927 2.17212 32.1078 2.08579 32.3365C2.00179 32.5652 1.95979 32.8218 1.95979 33.1065C1.95979 33.3935 2.00296 33.6525 2.08929 33.8835C2.17796 34.1122 2.30979 34.293 2.48479 34.426C2.65979 34.559 2.87912 34.6255 3.14279 34.6255ZM4.32929 35V32.1545H4.27329V29.96H4.79129V35H4.32929ZM7.3727 35.105C7.00404 35.105 6.68437 35.0233 6.4137 34.86C6.14537 34.6967 5.93654 34.4668 5.7872 34.1705C5.63787 33.8742 5.5632 33.5265 5.5632 33.1275C5.5632 32.7145 5.6367 32.3575 5.7837 32.0565C5.9307 31.7555 6.1372 31.5233 6.4032 31.36C6.67154 31.1967 6.9877 31.115 7.3517 31.115C7.72504 31.115 8.04354 31.2013 8.3072 31.374C8.57087 31.5443 8.77037 31.7893 8.9057 32.109C9.04104 32.4287 9.10287 32.8102 9.0912 33.2535H8.5662V33.0715C8.55687 32.5815 8.4507 32.2117 8.2477 31.962C8.04704 31.7123 7.75304 31.5875 7.3657 31.5875C6.9597 31.5875 6.6482 31.7193 6.4312 31.983C6.21654 32.2467 6.1092 32.6223 6.1092 33.11C6.1092 33.586 6.21654 33.9558 6.4312 34.2195C6.6482 34.4808 6.95504 34.6115 7.3517 34.6115C7.62237 34.6115 7.85804 34.5497 8.0587 34.426C8.2617 34.3 8.42154 34.1192 8.5382 33.8835L9.0177 34.069C8.86837 34.398 8.64787 34.6535 8.3562 34.8355C8.06687 35.0152 7.73904 35.105 7.3727 35.105ZM5.9272 33.2535V32.823H8.8147V33.2535H5.9272ZM10.8811 35.105C10.5964 35.105 10.3572 35.0537 10.1636 34.951C9.97224 34.8483 9.82874 34.7118 9.73307 34.5415C9.6374 34.3712 9.58957 34.1857 9.58957 33.985C9.58957 33.7797 9.6304 33.6047 9.71207 33.46C9.79607 33.313 9.90924 33.1928 10.0516 33.0995C10.1962 33.0062 10.3631 32.935 10.5521 32.886C10.7434 32.8393 10.9546 32.7985 11.1856 32.7635C11.4189 32.7262 11.6464 32.6947 11.8681 32.669C12.0921 32.641 12.2881 32.6142 12.4561 32.5885L12.2741 32.7005C12.2811 32.3272 12.2087 32.0507 12.0571 31.871C11.9054 31.6913 11.6417 31.6015 11.2661 31.6015C11.0071 31.6015 10.7877 31.6598 10.6081 31.7765C10.4307 31.8932 10.3059 32.0775 10.2336 32.3295L9.73307 32.1825C9.8194 31.8442 9.99324 31.5817 10.2546 31.395C10.5159 31.2083 10.8554 31.115 11.2731 31.115C11.6184 31.115 11.9112 31.1803 12.1516 31.311C12.3942 31.4393 12.5657 31.626 12.6661 31.871C12.7127 31.9807 12.7431 32.1032 12.7571 32.2385C12.7711 32.3738 12.7781 32.5115 12.7781 32.6515V35H12.3196V34.0515L12.4526 34.1075C12.3242 34.4318 12.1247 34.6792 11.8541 34.8495C11.5834 35.0198 11.2591 35.105 10.8811 35.105ZM10.9406 34.6605C11.1809 34.6605 11.3909 34.6173 11.5706 34.531C11.7502 34.4447 11.8949 34.3268 12.0046 34.1775C12.1142 34.0258 12.1854 33.8555 12.2181 33.6665C12.2461 33.5452 12.2612 33.4122 12.2636 33.2675C12.2659 33.1205 12.2671 33.0108 12.2671 32.9385L12.4631 33.04C12.2881 33.0633 12.0979 33.0867 11.8926 33.11C11.6896 33.1333 11.4889 33.1602 11.2906 33.1905C11.0946 33.2208 10.9172 33.257 10.7586 33.299C10.6512 33.3293 10.5474 33.3725 10.4471 33.4285C10.3467 33.4822 10.2639 33.5545 10.1986 33.6455C10.1356 33.7365 10.1041 33.8497 10.1041 33.985C10.1041 34.0947 10.1309 34.2008 10.1846 34.3035C10.2406 34.4062 10.3292 34.4913 10.4506 34.559C10.5742 34.6267 10.7376 34.6605 10.9406 34.6605ZM15.7472 35C15.5349 35.0443 15.3249 35.0618 15.1172 35.0525C14.9119 35.0432 14.7276 34.9988 14.5642 34.9195C14.4032 34.8402 14.2807 34.7165 14.1967 34.5485C14.1291 34.4085 14.0917 34.2673 14.0847 34.125C14.0801 33.9803 14.0777 33.8158 14.0777 33.6315V30.17H14.5887V33.6105C14.5887 33.7692 14.5899 33.9022 14.5922 34.0095C14.5969 34.1145 14.6214 34.2078 14.6657 34.2895C14.7497 34.4458 14.8827 34.5392 15.0647 34.5695C15.2491 34.5998 15.4766 34.5928 15.7472 34.5485V35ZM13.2692 31.661V31.22H15.7472V31.661H13.2692ZM16.562 30.5025V29.925H17.0765V30.5025H16.562ZM16.562 35V31.22H17.0765V35H16.562ZM19.7042 35.105C19.3286 35.105 19.0077 35.0198 18.7417 34.8495C18.4757 34.6792 18.2716 34.4435 18.1292 34.1425C17.9869 33.8415 17.9157 33.4962 17.9157 33.1065C17.9157 32.7098 17.9881 32.3622 18.1327 32.0635C18.2774 31.7648 18.4827 31.5327 18.7487 31.367C19.0171 31.199 19.3356 31.115 19.7042 31.115C20.0822 31.115 20.4042 31.2002 20.6702 31.3705C20.9386 31.5385 21.1427 31.773 21.2827 32.074C21.4251 32.3727 21.4962 32.7168 21.4962 33.1065C21.4962 33.5032 21.4251 33.852 21.2827 34.153C21.1404 34.4517 20.9351 34.685 20.6667 34.853C20.3984 35.021 20.0776 35.105 19.7042 35.105ZM19.7042 34.6115C20.1242 34.6115 20.4369 34.4727 20.6422 34.195C20.8476 33.915 20.9502 33.5522 20.9502 33.1065C20.9502 32.6492 20.8464 32.2852 20.6387 32.0145C20.4334 31.7438 20.1219 31.6085 19.7042 31.6085C19.4219 31.6085 19.1886 31.6727 19.0042 31.801C18.8222 31.927 18.6857 32.1032 18.5947 32.3295C18.5061 32.5535 18.4617 32.8125 18.4617 33.1065C18.4617 33.5615 18.5667 33.9267 18.7767 34.202C18.9867 34.475 19.2959 34.6115 19.7042 34.6115ZM24.9983 35V33.0715C24.9983 32.8615 24.9785 32.669 24.9388 32.494C24.8992 32.3167 24.835 32.1627 24.7463 32.032C24.66 31.899 24.5468 31.7963 24.4068 31.724C24.2692 31.6517 24.1012 31.6155 23.9028 31.6155C23.7208 31.6155 23.5598 31.647 23.4198 31.71C23.2822 31.773 23.1655 31.864 23.0698 31.983C22.9765 32.0997 22.9053 32.242 22.8563 32.41C22.8073 32.578 22.7828 32.7693 22.7828 32.984L22.4188 32.9035C22.4188 32.5162 22.4865 32.1907 22.6218 31.927C22.7572 31.6633 22.9438 31.4638 23.1818 31.3285C23.4198 31.1932 23.6928 31.1255 24.0008 31.1255C24.2272 31.1255 24.4243 31.1605 24.5923 31.2305C24.7627 31.3005 24.9062 31.395 25.0228 31.514C25.1418 31.633 25.2375 31.7695 25.3098 31.9235C25.3822 32.0752 25.4347 32.2373 25.4673 32.41C25.5 32.5803 25.5163 32.7507 25.5163 32.921V35H24.9983ZM22.2648 35V31.22H22.7303V32.151H22.7828V35H22.2648ZM29.4464 35.105C29.1664 35.105 28.9063 35.0653 28.6659 34.986C28.4279 34.9043 28.2284 34.7772 28.0674 34.6045C27.9414 34.4692 27.8481 34.3187 27.7874 34.153C27.7268 33.985 27.6929 33.8077 27.6859 33.621C27.6836 33.4437 27.7093 33.2675 27.7629 33.0925C27.8166 32.9175 27.9006 32.7623 28.0149 32.627C28.0826 32.543 28.1584 32.473 28.2424 32.417C28.3288 32.361 28.4174 32.3132 28.5084 32.2735C28.3334 32.0915 28.1993 31.9235 28.1059 31.7695C28.0149 31.6132 27.9694 31.4218 27.9694 31.1955C27.9694 30.9365 28.0348 30.6997 28.1654 30.485C28.2984 30.2703 28.4816 30.1105 28.7149 30.0055C28.8339 29.9518 28.9553 29.9145 29.0789 29.8935C29.2049 29.8702 29.3298 29.8585 29.4534 29.8585C29.6424 29.8585 29.8279 29.8853 30.0099 29.939C30.1919 29.9903 30.3471 30.072 30.4754 30.184C30.5618 30.2517 30.6376 30.3322 30.7029 30.4255C30.7683 30.5165 30.8196 30.6122 30.8569 30.7125L30.3599 30.8595C30.3109 30.7335 30.2293 30.6273 30.1149 30.541C30.0263 30.471 29.9236 30.422 29.8069 30.394C29.6926 30.366 29.5771 30.352 29.4604 30.352C29.2621 30.352 29.0824 30.3905 28.9214 30.4675C28.7814 30.5375 28.6764 30.6343 28.6064 30.758C28.5364 30.8817 28.5014 31.0263 28.5014 31.192C28.5014 31.3343 28.5248 31.4522 28.5714 31.5455C28.6181 31.6365 28.6858 31.7357 28.7744 31.843C28.8258 31.899 28.8829 31.9562 28.9459 32.0145C29.0089 32.0705 29.0731 32.1288 29.1384 32.1895L30.7344 33.67C30.7438 33.6047 30.7496 33.5417 30.7519 33.481C30.7543 33.418 30.7554 33.3562 30.7554 33.2955L30.7519 32.557H31.2384V33.3305C31.2384 33.5148 31.2314 33.6653 31.2174 33.782C31.2034 33.8987 31.1848 33.9955 31.1614 34.0725L31.8124 34.671L31.4729 35.0315L30.9164 34.5065C30.8394 34.6068 30.7414 34.6967 30.6224 34.776C30.5058 34.8553 30.3891 34.9172 30.2724 34.9615C30.1464 35.0175 30.0134 35.0548 29.8734 35.0735C29.7334 35.0945 29.5911 35.105 29.4464 35.105ZM29.4534 34.608C29.5864 34.608 29.7066 34.5998 29.8139 34.5835C29.9213 34.5672 30.0239 34.5333 30.1219 34.482C30.2456 34.4167 30.3378 34.356 30.3984 34.3C30.4591 34.2417 30.5081 34.1903 30.5454 34.146L28.9074 32.648C28.8094 32.6783 28.7173 32.7203 28.6309 32.774C28.5469 32.8253 28.4746 32.8872 28.4139 32.9595C28.3463 33.0435 28.2961 33.1403 28.2634 33.25C28.2308 33.3597 28.2144 33.4752 28.2144 33.5965C28.2191 33.7248 28.2401 33.8438 28.2774 33.9535C28.3171 34.0608 28.3754 34.1565 28.4524 34.2405C28.5621 34.3688 28.7091 34.4622 28.8934 34.5205C29.0778 34.5788 29.2644 34.608 29.4534 34.608ZM33.7869 35V29.96H35.7329C35.7819 29.96 35.8367 29.9623 35.8974 29.967C35.9604 29.9693 36.0234 29.9763 36.0864 29.988C36.35 30.0277 36.5729 30.1198 36.7549 30.2645C36.9392 30.4068 37.078 30.5865 37.1714 30.8035C37.267 31.0205 37.3149 31.2608 37.3149 31.5245C37.3149 31.7858 37.267 32.025 37.1714 32.242C37.0757 32.459 36.9357 32.6398 36.7514 32.7845C36.5694 32.9268 36.3477 33.0178 36.0864 33.0575C36.0234 33.0668 35.9604 33.0738 35.8974 33.0785C35.8367 33.0832 35.7819 33.0855 35.7329 33.0855H34.3014V35H33.7869ZM34.3014 32.5955H35.7189C35.7609 32.5955 35.8099 32.5932 35.8659 32.5885C35.9219 32.5838 35.9767 32.5757 36.0304 32.564C36.203 32.5267 36.3442 32.4555 36.4539 32.3505C36.5659 32.2455 36.6487 32.1207 36.7024 31.976C36.7584 31.8313 36.7864 31.6808 36.7864 31.5245C36.7864 31.3682 36.7584 31.2177 36.7024 31.073C36.6487 30.926 36.5659 30.8 36.4539 30.695C36.3442 30.59 36.203 30.5188 36.0304 30.4815C35.9767 30.4698 35.9219 30.4628 35.8659 30.4605C35.8099 30.4558 35.7609 30.4535 35.7189 30.4535H34.3014V32.5955ZM38.0815 35V29.855H38.596V35H38.0815ZM40.7268 35.105C40.4421 35.105 40.2029 35.0537 40.0093 34.951C39.8179 34.8483 39.6744 34.7118 39.5788 34.5415C39.4831 34.3712 39.4353 34.1857 39.4353 33.985C39.4353 33.7797 39.4761 33.6047 39.5578 33.46C39.6418 33.313 39.7549 33.1928 39.8973 33.0995C40.0419 33.0062 40.2088 32.935 40.3978 32.886C40.5891 32.8393 40.8003 32.7985 41.0313 32.7635C41.2646 32.7262 41.4921 32.6947 41.7138 32.669C41.9378 32.641 42.1338 32.6142 42.3018 32.5885L42.1198 32.7005C42.1268 32.3272 42.0544 32.0507 41.9028 31.871C41.7511 31.6913 41.4874 31.6015 41.1118 31.6015C40.8528 31.6015 40.6334 31.6598 40.4538 31.7765C40.2764 31.8932 40.1516 32.0775 40.0793 32.3295L39.5788 32.1825C39.6651 31.8442 39.8389 31.5817 40.1003 31.395C40.3616 31.2083 40.7011 31.115 41.1188 31.115C41.4641 31.115 41.7569 31.1803 41.9973 31.311C42.2399 31.4393 42.4114 31.626 42.5118 31.871C42.5584 31.9807 42.5888 32.1032 42.6028 32.2385C42.6168 32.3738 42.6238 32.5115 42.6238 32.6515V35H42.1653V34.0515L42.2983 34.1075C42.1699 34.4318 41.9704 34.6792 41.6998 34.8495C41.4291 35.0198 41.1048 35.105 40.7268 35.105ZM40.7863 34.6605C41.0266 34.6605 41.2366 34.6173 41.4163 34.531C41.5959 34.4447 41.7406 34.3268 41.8503 34.1775C41.9599 34.0258 42.0311 33.8555 42.0638 33.6665C42.0918 33.5452 42.1069 33.4122 42.1093 33.2675C42.1116 33.1205 42.1128 33.0108 42.1128 32.9385L42.3088 33.04C42.1338 33.0633 41.9436 33.0867 41.7383 33.11C41.5353 33.1333 41.3346 33.1602 41.1363 33.1905C40.9403 33.2208 40.7629 33.257 40.6043 33.299C40.4969 33.3293 40.3931 33.3725 40.2928 33.4285C40.1924 33.4822 40.1096 33.5545 40.0443 33.6455C39.9813 33.7365 39.9498 33.8497 39.9498 33.985C39.9498 34.0947 39.9766 34.2008 40.0303 34.3035C40.0863 34.4062 40.1749 34.4913 40.2963 34.559C40.4199 34.6267 40.5833 34.6605 40.7863 34.6605ZM46.2649 35V33.0715C46.2649 32.8615 46.2451 32.669 46.2054 32.494C46.1658 32.3167 46.1016 32.1627 46.0129 32.032C45.9266 31.899 45.8134 31.7963 45.6734 31.724C45.5358 31.6517 45.3678 31.6155 45.1694 31.6155C44.9874 31.6155 44.8264 31.647 44.6864 31.71C44.5488 31.773 44.4321 31.864 44.3364 31.983C44.2431 32.0997 44.1719 32.242 44.1229 32.41C44.0739 32.578 44.0494 32.7693 44.0494 32.984L43.6854 32.9035C43.6854 32.5162 43.7531 32.1907 43.8884 31.927C44.0238 31.6633 44.2104 31.4638 44.4484 31.3285C44.6864 31.1932 44.9594 31.1255 45.2674 31.1255C45.4938 31.1255 45.6909 31.1605 45.8589 31.2305C46.0293 31.3005 46.1728 31.395 46.2894 31.514C46.4084 31.633 46.5041 31.7695 46.5764 31.9235C46.6488 32.0752 46.7013 32.2373 46.7339 32.41C46.7666 32.5803 46.7829 32.7507 46.7829 32.921V35H46.2649ZM43.5314 35V31.22H43.9969V32.151H44.0494V35H43.5314ZM50.4212 35V33.0715C50.4212 32.8615 50.4013 32.669 50.3617 32.494C50.322 32.3167 50.2578 32.1627 50.1692 32.032C50.0828 31.899 49.9697 31.7963 49.8297 31.724C49.692 31.6517 49.524 31.6155 49.3257 31.6155C49.1437 31.6155 48.9827 31.647 48.8427 31.71C48.705 31.773 48.5883 31.864 48.4927 31.983C48.3993 32.0997 48.3282 32.242 48.2792 32.41C48.2302 32.578 48.2057 32.7693 48.2057 32.984L47.8417 32.9035C47.8417 32.5162 47.9093 32.1907 48.0447 31.927C48.18 31.6633 48.3667 31.4638 48.6047 31.3285C48.8427 31.1932 49.1157 31.1255 49.4237 31.1255C49.65 31.1255 49.8472 31.1605 50.0152 31.2305C50.1855 31.3005 50.329 31.395 50.4457 31.514C50.5647 31.633 50.6603 31.7695 50.7327 31.9235C50.805 32.0752 50.8575 32.2373 50.8902 32.41C50.9228 32.5803 50.9392 32.7507 50.9392 32.921V35H50.4212ZM47.6877 35V31.22H48.1532V32.151H48.2057V35H47.6877ZM51.9174 30.5025V29.925H52.4319V30.5025H51.9174ZM51.9174 35V31.22H52.4319V35H51.9174ZM56.2112 35V33.0715C56.2112 32.8615 56.1914 32.669 56.1517 32.494C56.112 32.3167 56.0479 32.1627 55.9592 32.032C55.8729 31.899 55.7597 31.7963 55.6197 31.724C55.482 31.6517 55.314 31.6155 55.1157 31.6155C54.9337 31.6155 54.7727 31.647 54.6327 31.71C54.495 31.773 54.3784 31.864 54.2827 31.983C54.1894 32.0997 54.1182 32.242 54.0692 32.41C54.0202 32.578 53.9957 32.7693 53.9957 32.984L53.6317 32.9035C53.6317 32.5162 53.6994 32.1907 53.8347 31.927C53.97 31.6633 54.1567 31.4638 54.3947 31.3285C54.6327 31.1932 54.9057 31.1255 55.2137 31.1255C55.44 31.1255 55.6372 31.1605 55.8052 31.2305C55.9755 31.3005 56.119 31.395 56.2357 31.514C56.3547 31.633 56.4504 31.7695 56.5227 31.9235C56.595 32.0752 56.6475 32.2373 56.6802 32.41C56.7129 32.5803 56.7292 32.7507 56.7292 32.921V35H56.2112ZM53.4777 35V31.22H53.9432V32.151H53.9957V35H53.4777ZM59.139 36.785C58.9453 36.785 58.754 36.7558 58.565 36.6975C58.3783 36.6415 58.2056 36.5517 58.047 36.428C57.8883 36.3067 57.7553 36.148 57.648 35.952L58.1135 35.693C58.2185 35.903 58.3655 36.0535 58.5545 36.1445C58.7458 36.2378 58.9406 36.2845 59.139 36.2845C59.412 36.2845 59.6325 36.2332 59.8005 36.1305C59.9708 36.0302 60.0945 35.8808 60.1715 35.6825C60.2485 35.4842 60.2858 35.2368 60.2835 34.9405V33.9325H60.343V31.22H60.8015V34.9475C60.8015 35.0548 60.798 35.1575 60.791 35.2555C60.7863 35.3558 60.7758 35.4538 60.7595 35.5495C60.7151 35.8318 60.623 36.064 60.483 36.246C60.3453 36.428 60.1633 36.5633 59.937 36.652C59.713 36.7407 59.447 36.785 59.139 36.785ZM59.104 35.105C58.7516 35.105 58.4506 35.0175 58.201 34.8425C57.9513 34.6652 57.76 34.426 57.627 34.125C57.494 33.824 57.4275 33.4845 57.4275 33.1065C57.4275 32.7308 57.4928 32.3925 57.6235 32.0915C57.7565 31.7905 57.9466 31.5525 58.194 31.3775C58.4413 31.2025 58.7376 31.115 59.083 31.115C59.4376 31.115 59.7363 31.2013 59.979 31.374C60.2216 31.5467 60.4048 31.7835 60.5285 32.0845C60.6545 32.3832 60.7175 32.7238 60.7175 33.1065C60.7175 33.4822 60.6556 33.8217 60.532 34.125C60.4083 34.426 60.2263 34.6652 59.986 34.8425C59.7456 35.0175 59.4516 35.105 59.104 35.105ZM59.1565 34.6255C59.4248 34.6255 59.6465 34.5602 59.8215 34.4295C59.9965 34.2988 60.1271 34.1192 60.2135 33.8905C60.2998 33.6595 60.343 33.3982 60.343 33.1065C60.343 32.8102 60.2998 32.5488 60.2135 32.3225C60.1271 32.0938 59.9965 31.9153 59.8215 31.787C59.6488 31.6587 59.4306 31.5945 59.167 31.5945C58.8963 31.5945 58.6723 31.661 58.495 31.794C58.3176 31.927 58.1858 32.1078 58.0995 32.3365C58.0155 32.5652 57.9735 32.8218 57.9735 33.1065C57.9735 33.3935 58.0166 33.6525 58.103 33.8835C58.1916 34.1122 58.3235 34.293 58.4985 34.426C58.6735 34.559 58.8928 34.6255 59.1565 34.6255Z" fill="black"/>
<defs>
<clipPath id="clip0_3002_1464">
<rect width="24" height="24" fill="white" transform="translate(18.5)"/>
</clipPath>
</defs>
</svg>
