<svg width="41" height="37" viewBox="0 0 41 37" fill="none" xmlns="http://www.w3.org/2000/svg">
<path fill-rule="evenodd" clip-rule="evenodd" d="M32.5016 20.9765C32.3616 19.9765 31.0816 18.8965 30.4516 18.4565L29.7816 17.9865C29.1016 17.4765 29.3516 17.2465 28.9516 17.2465C28.9516 16.2465 29.0816 15.3165 29.0816 14.4465V13.2465C29.0816 12.8565 29.0016 12.4465 28.9416 12.0465C28.8016 11.1765 28.6116 10.2965 28.3716 9.2765C28.3567 9.17452 28.3021 9.08257 28.2197 9.02074C28.1372 8.9589 28.0336 8.93221 27.9316 8.9465C27.8814 8.95379 27.8332 8.97104 27.7898 8.99724C27.7464 9.02344 27.7087 9.05806 27.6788 9.09906C27.649 9.14006 27.6277 9.18662 27.6162 9.23598C27.6046 9.28535 27.603 9.33653 27.6116 9.3865C27.6816 10.4465 27.6816 11.3865 27.7216 12.2365C27.7216 12.8765 27.7216 13.4965 27.8316 14.1265C27.9416 15.1265 28.1316 16.1265 28.3116 17.2665H26.3816C25.1816 17.2165 23.9716 17.0865 22.7716 17.0065C21.9516 16.9565 21.1416 16.9265 20.3316 16.9065C19.3316 16.9065 18.3816 16.9065 17.4116 17.0165C15.9616 17.1265 14.5316 17.3165 13.0816 17.4965C12.9914 17.4965 12.9049 17.5323 12.8412 17.5961C12.7774 17.6598 12.7416 17.7463 12.7416 17.8365C12.7416 17.9267 12.7774 18.0132 12.8412 18.0769C12.9049 18.1407 12.9914 18.1765 13.0816 18.1765H15.9616C17.3916 18.1765 18.8116 18.1765 20.2516 18.2565C21.1116 18.2565 21.9716 18.3065 22.8416 18.3265C23.7116 18.3465 24.5816 18.3265 25.4516 18.3265C26.4516 18.3265 27.5116 18.2465 28.5216 18.1465L29.2716 18.7365L29.9416 19.2565C30.3042 19.5186 30.6392 19.8168 30.9416 20.1465L26.8116 19.7865H22.7316C20.7316 19.7865 18.6616 19.9065 16.6316 19.9065C14.9516 19.9665 13.2516 20.1965 11.5616 20.2565H9.76158C9.94499 19.7993 10.1943 19.3715 10.5016 18.9865L11.1816 18.3765L12.1816 17.7165C12.2611 17.6741 12.3206 17.6018 12.3468 17.5155C12.3731 17.4292 12.364 17.3361 12.3216 17.2565C12.2842 17.1976 12.2296 17.1516 12.1652 17.1248C12.1008 17.0979 12.0297 17.0915 11.9616 17.1065L12.1016 15.2665C12.1716 14.3565 12.2816 13.4565 12.3516 12.5365C12.4216 11.6165 12.5016 10.7165 12.5016 9.7865C12.3916 7.4465 12.3016 8.5465 13.5016 8.3465L15.8716 7.9165C15.9644 7.88777 16.0432 7.82541 16.0925 7.74163C16.1417 7.65785 16.158 7.5587 16.1379 7.46359C16.1179 7.36848 16.0631 7.28428 15.9842 7.22747C15.9054 7.17067 15.8081 7.14536 15.7116 7.1565L13.4016 7.3565C13.2216 7.3565 12.4016 7.2865 12.0016 7.3565C11.8976 7.36841 11.7971 7.4011 11.7061 7.45264C11.615 7.50418 11.5353 7.57351 11.4716 7.6565C11.3617 7.84302 11.2934 8.05112 11.2716 8.2665C11.2016 8.7465 11.2716 9.4965 11.2716 9.7665C11.2716 10.6865 11.1716 11.6065 11.1616 12.5165C11.1516 13.4265 11.1616 14.3565 11.2316 15.2765L11.3216 17.5065L10.8316 17.8065L10.0216 18.4665C9.35685 19.1086 8.86204 19.9058 8.58158 20.7865C8.45484 21.143 8.44778 21.5312 8.56147 21.8921C8.67515 22.253 8.90339 22.567 9.21158 22.7865C9.54648 23.0077 9.92503 23.1544 10.3216 23.2165C10.8316 23.2875 11.3469 23.3142 11.8616 23.2965L15.1416 23.4365C18.0016 23.4365 20.8616 23.6065 23.7116 23.6165C24.9516 23.6165 26.1916 23.6165 27.4316 23.4865L29.5016 23.1665L30.7816 22.8365L31.6316 22.4765C31.9273 22.3652 32.1755 22.155 32.3341 21.8817C32.4927 21.6083 32.5518 21.2885 32.5016 20.9765ZM31.1816 21.5865L30.4816 21.8465L29.3116 22.1065L27.3916 22.2865H24.9616C21.6916 22.2865 18.4216 22.0865 15.1516 22.1165H11.8516C11.3924 22.1566 10.9307 22.1566 10.4716 22.1165C10.2226 22.0851 9.98172 22.007 9.76158 21.8865C9.60747 21.7769 9.49429 21.6191 9.43995 21.438C9.38562 21.2569 9.39323 21.0628 9.46158 20.8865C9.46158 20.8865 9.46158 20.8365 9.46158 20.8165C10.1508 20.9167 10.8453 20.9768 11.5416 20.9965C13.2216 21.0565 14.9316 20.9965 16.6016 20.9965H20.7016C22.7016 20.9465 24.7716 20.8065 26.8016 20.7365H31.3716H31.4316C31.4882 20.8048 31.5268 20.8863 31.5438 20.9735C31.5608 21.0606 31.5556 21.1506 31.5287 21.2352C31.5018 21.3199 31.4541 21.3964 31.39 21.4577C31.3258 21.5191 31.2473 21.5634 31.1616 21.5865H31.1816Z" fill="black"/>
<path fill-rule="evenodd" clip-rule="evenodd" d="M17.9116 6.78651C18.2596 7.10903 18.638 7.39704 19.0416 7.64651C19.0801 7.6811 19.1252 7.70766 19.1742 7.72463C19.2231 7.7416 19.275 7.74864 19.3267 7.74535C19.3784 7.74206 19.4289 7.7285 19.4753 7.70547C19.5217 7.68243 19.5631 7.65038 19.597 7.61118C19.6308 7.57198 19.6566 7.52643 19.6727 7.47718C19.6887 7.42792 19.6948 7.37596 19.6906 7.32432C19.6864 7.27269 19.6719 7.22241 19.648 7.17643C19.6242 7.13044 19.5914 7.08968 19.5516 7.05651C19.2818 6.81626 19.0311 6.55548 18.8016 6.27651C18.7052 6.15505 18.6431 6.01005 18.6216 5.85651L18.7916 5.59651C18.9723 5.32051 19.2156 5.09097 19.5016 4.92651C19.8331 4.72948 20.1945 4.58763 20.5716 4.50651L21.0016 4.43651C21.0016 4.43651 20.9216 4.53651 20.8916 4.59651C20.4366 5.36877 20.0995 6.20466 19.8916 7.07651C19.8007 7.41239 19.799 7.76616 19.8867 8.10289C19.9744 8.43961 20.1484 8.74763 20.3916 8.99651L21.1616 9.78651C21.416 10.0471 21.7367 10.2332 22.0892 10.3248C22.4417 10.4165 22.8124 10.4101 23.1616 10.3065C24.0405 10.072 24.8797 9.70803 25.6516 9.22651C25.7316 9.22651 25.8016 9.11651 25.8816 9.07651L25.7916 9.58651C25.7105 9.96358 25.5686 10.325 25.3716 10.6565C25.2034 10.9571 24.9671 11.214 24.6816 11.4065L24.4216 11.5765C24.268 11.555 24.123 11.4929 24.0016 11.3965C23.7249 11.1644 23.4643 10.9138 23.2216 10.6465C23.1533 10.5704 23.058 10.5241 22.956 10.5177C22.8539 10.5112 22.7535 10.545 22.6761 10.6118C22.5988 10.6787 22.5508 10.7732 22.5425 10.875C22.5342 10.9769 22.5661 11.078 22.6316 11.1565C22.881 11.5601 23.1691 11.9385 23.4916 12.2865C23.688 12.476 23.9286 12.6135 24.1916 12.6865C24.3761 12.7266 24.567 12.7266 24.7516 12.6865C24.9777 12.6407 25.1943 12.5561 25.3916 12.4365C25.8601 12.1579 26.2438 11.7568 26.5016 11.2765C26.6754 10.7996 26.7568 10.2939 26.7416 9.78651L26.6616 8.78651C26.6566 8.72662 26.6566 8.66641 26.6616 8.60651C27.3215 8.14459 27.9197 7.60017 28.4416 6.98651C29.249 5.9973 29.7957 4.82148 30.0316 3.56651C30.1073 3.01577 30.1073 2.45725 30.0316 1.90651C30.0164 1.40575 29.8293 0.925479 29.5016 0.546514C29.1481 0.241134 28.707 0.0555888 28.2416 0.0165144C27.6933 -0.022523 27.1423 0.00771542 26.6016 0.106514C25.3606 0.382099 24.2066 0.959092 23.2416 1.78651C22.624 2.32236 22.0764 2.93384 21.6116 3.60651H21.5016L20.5016 3.48651C19.9669 3.48308 19.4368 3.58502 18.9416 3.78651C18.439 4.04139 18.0219 4.43765 17.7416 4.92651C17.6275 5.11834 17.5464 5.32791 17.5016 5.54651C17.4614 5.72765 17.4614 5.91538 17.5016 6.09651C17.5826 6.35532 17.723 6.59161 17.9116 6.78651ZM23.9116 2.62651C24.7613 1.97301 25.7561 1.53394 26.8116 1.34651C27.1615 1.28613 27.5168 1.26266 27.8716 1.27651C28.1171 1.25603 28.3627 1.31568 28.5716 1.44651C28.7117 1.66281 28.7751 1.91989 28.7516 2.17651C28.7755 2.54058 28.7588 2.90618 28.7016 3.26651C28.5538 4.32535 28.141 5.32972 27.5016 6.18651C26.8374 7.06273 26.0169 7.8086 25.0816 8.38651C24.4109 8.84738 23.6764 9.20785 22.9016 9.45651C22.7007 9.52973 22.4841 9.54887 22.2735 9.51202C22.0629 9.47516 21.8656 9.3836 21.7016 9.24651L20.8916 8.47651C20.7476 8.30423 20.6515 8.09712 20.6129 7.87596C20.5743 7.65481 20.5945 7.42738 20.6716 7.21651C20.9224 6.44193 21.2899 5.71017 21.7616 5.04651C22.3396 4.12312 23.0778 3.31036 23.9416 2.64651L23.9116 2.62651Z" fill="black"/>
<path fill-rule="evenodd" clip-rule="evenodd" d="M16.6615 10.6665C16.7561 10.7353 16.8607 10.7893 16.9715 10.8265L16.8915 10.9365C16.4983 11.412 16.1626 11.9323 15.8915 12.4865C15.7528 12.8398 15.7249 13.227 15.8115 13.5965C15.8449 13.6992 15.9033 13.792 15.9815 13.8665C16.057 13.9435 16.1495 14.0017 16.2515 14.0365C16.6604 14.167 17.1018 14.1529 17.5015 13.9965C18.0528 13.7256 18.5698 13.3899 19.0415 12.9965L19.1515 12.9165C19.1906 13.0297 19.2444 13.1373 19.3115 13.2365C19.4153 13.4461 19.5958 13.6076 19.8155 13.6877C20.0352 13.7678 20.2773 13.7602 20.4915 13.6665C20.9153 13.4452 21.2376 13.0692 21.3915 12.6165C21.5004 12.2951 21.5412 11.9546 21.5115 11.6165C21.4756 11.1829 21.4122 10.7521 21.3215 10.3265C21.3156 10.2757 21.2992 10.2267 21.2734 10.1826C21.2476 10.1385 21.213 10.1002 21.1716 10.0701C21.1303 10.0401 21.0832 10.0189 21.0332 10.0079C20.9833 9.99699 20.9317 9.9965 20.8815 10.0065C20.8315 10.0127 20.7831 10.0287 20.7393 10.0538C20.6955 10.0788 20.6571 10.1123 20.6264 10.1523C20.5957 10.1924 20.5732 10.2381 20.5604 10.2869C20.5475 10.3357 20.5445 10.3866 20.5515 10.4365C20.6075 10.8308 20.6375 11.2283 20.6415 11.6265C20.6432 11.8488 20.6025 12.0694 20.5215 12.2765C20.5215 12.3665 20.3015 12.4465 20.2015 12.5365L20.1515 11.8765C20.105 11.7135 19.9957 11.5756 19.8475 11.4931C19.6994 11.4106 19.5246 11.3903 19.3615 11.4365L19.0815 11.5365L18.3515 11.9565C18.1115 12.1065 17.7615 12.3565 17.3515 12.5565H17.3015C17.4852 12.2116 17.6888 11.8776 17.9115 11.5565L18.3215 10.8065C18.3621 10.7194 18.3955 10.6291 18.4215 10.5365C18.4262 10.5067 18.4262 10.4763 18.4215 10.4465C18.4421 10.3694 18.446 10.2887 18.4329 10.2099C18.4198 10.1312 18.3899 10.0561 18.3454 9.98983C18.3009 9.92354 18.2427 9.86753 18.1748 9.82556C18.1069 9.7836 18.0307 9.75665 17.9515 9.74652L17.2315 9.78652C17.2315 9.78652 17.2315 9.73652 17.1715 9.78652C17.1115 9.83652 17.1715 9.88652 17.1715 9.87652C17.1715 9.86652 17.4415 9.54652 17.5915 9.48652C17.8008 9.3989 18.0247 9.35141 18.2515 9.34652C18.6495 9.34725 19.047 9.37397 19.4415 9.42652C19.4862 9.43359 19.5319 9.43166 19.5759 9.42084C19.6198 9.41003 19.6612 9.39054 19.6975 9.36353C19.7338 9.33652 19.7644 9.30252 19.7874 9.26354C19.8104 9.22456 19.8254 9.18137 19.8315 9.13652C19.8434 9.08602 19.8439 9.03352 19.833 8.9828C19.8221 8.93208 19.8001 8.88442 19.7685 8.84327C19.7369 8.80212 19.6966 8.7685 19.6504 8.74485C19.6042 8.7212 19.5534 8.7081 19.5015 8.70652C19.0787 8.61732 18.6514 8.55056 18.2215 8.50652C17.8842 8.47949 17.5449 8.51682 17.2215 8.61652C16.7934 8.78035 16.4385 9.09269 16.2215 9.49652C16.1316 9.71084 16.127 9.95146 16.2089 10.169C16.2907 10.3866 16.4526 10.5646 16.6615 10.6665Z" fill="black"/>
<path d="M9.06 34.6165V29.5765H9.5745V34.123H11.9685V34.6165H9.06ZM13.6467 34.7215C13.362 34.7215 13.1229 34.6702 12.9292 34.5675C12.7379 34.4648 12.5944 34.3283 12.4987 34.158C12.403 33.9877 12.3552 33.8022 12.3552 33.6015C12.3552 33.3962 12.396 33.2212 12.4777 33.0765C12.5617 32.9295 12.6749 32.8093 12.8172 32.716C12.9619 32.6227 13.1287 32.5515 13.3177 32.5025C13.509 32.4558 13.7202 32.415 13.9512 32.38C14.1845 32.3427 14.412 32.3112 14.6337 32.2855C14.8577 32.2575 15.0537 32.2307 15.2217 32.205L15.0397 32.317C15.0467 31.9437 14.9744 31.6672 14.8227 31.4875C14.671 31.3078 14.4074 31.218 14.0317 31.218C13.7727 31.218 13.5534 31.2763 13.3737 31.393C13.1964 31.5097 13.0715 31.694 12.9992 31.946L12.4987 31.799C12.585 31.4607 12.7589 31.1982 13.0202 31.0115C13.2815 30.8248 13.621 30.7315 14.0387 30.7315C14.384 30.7315 14.6769 30.7968 14.9172 30.9275C15.1599 31.0558 15.3314 31.2425 15.4317 31.4875C15.4784 31.5972 15.5087 31.7197 15.5227 31.855C15.5367 31.9903 15.5437 32.128 15.5437 32.268V34.6165H15.0852V33.668L15.2182 33.724C15.0899 34.0483 14.8904 34.2957 14.6197 34.466C14.349 34.6363 14.0247 34.7215 13.6467 34.7215ZM13.7062 34.277C13.9465 34.277 14.1565 34.2338 14.3362 34.1475C14.5159 34.0612 14.6605 33.9433 14.7702 33.794C14.8799 33.6423 14.951 33.472 14.9837 33.283C15.0117 33.1617 15.0269 33.0287 15.0292 32.884C15.0315 32.737 15.0327 32.6273 15.0327 32.555L15.2287 32.6565C15.0537 32.6798 14.8635 32.7032 14.6582 32.7265C14.4552 32.7498 14.2545 32.7767 14.0562 32.807C13.8602 32.8373 13.6829 32.8735 13.5242 32.9155C13.4169 32.9458 13.313 32.989 13.2127 33.045C13.1124 33.0987 13.0295 33.171 12.9642 33.262C12.9012 33.353 12.8697 33.4662 12.8697 33.6015C12.8697 33.7112 12.8965 33.8173 12.9502 33.92C13.0062 34.0227 13.0949 34.1078 13.2162 34.1755C13.3399 34.2432 13.5032 34.277 13.7062 34.277ZM17.9003 34.711C17.674 34.711 17.4757 34.676 17.3053 34.606C17.1373 34.536 16.9938 34.4415 16.8748 34.3225C16.7582 34.2035 16.6637 34.0682 16.5913 33.9165C16.519 33.7625 16.4665 33.6003 16.4338 33.43C16.4012 33.2573 16.3848 33.0858 16.3848 32.9155V30.8365H16.9028V32.765C16.9028 32.9727 16.9227 33.1652 16.9623 33.3425C17.002 33.5198 17.065 33.675 17.1513 33.808C17.24 33.9387 17.3532 34.0402 17.4908 34.1125C17.6308 34.1848 17.8 34.221 17.9983 34.221C18.1803 34.221 18.3402 34.1895 18.4778 34.1265C18.6178 34.0635 18.7345 33.9737 18.8278 33.857C18.9235 33.738 18.9958 33.5945 19.0448 33.4265C19.0938 33.2562 19.1183 33.0648 19.1183 32.8525L19.4823 32.933C19.4823 33.3203 19.4147 33.6458 19.2793 33.9095C19.144 34.1732 18.9573 34.3727 18.7193 34.508C18.4813 34.6433 18.2083 34.711 17.9003 34.711ZM19.1708 34.6165V33.6855H19.1183V30.8365H19.6328V34.6165H19.1708ZM23.3411 34.6165V32.688C23.3411 32.478 23.3213 32.2855 23.2816 32.1105C23.2419 31.9332 23.1778 31.7792 23.0891 31.6485C23.0028 31.5155 22.8896 31.4128 22.7496 31.3405C22.6119 31.2682 22.4439 31.232 22.2456 31.232C22.0636 31.232 21.9026 31.2635 21.7626 31.3265C21.6249 31.3895 21.5083 31.4805 21.4126 31.5995C21.3193 31.7162 21.2481 31.8585 21.1991 32.0265C21.1501 32.1945 21.1256 32.3858 21.1256 32.6005L20.7616 32.52C20.7616 32.1327 20.8293 31.8072 20.9646 31.5435C21.0999 31.2798 21.2866 31.0803 21.5246 30.945C21.7626 30.8097 22.0356 30.742 22.3436 30.742C22.5699 30.742 22.7671 30.777 22.9351 30.847C23.1054 30.917 23.2489 31.0115 23.3656 31.1305C23.4846 31.2495 23.5803 31.386 23.6526 31.54C23.7249 31.6917 23.7774 31.8538 23.8101 32.0265C23.8428 32.1968 23.8591 32.3672 23.8591 32.5375V34.6165H23.3411ZM20.6076 34.6165V30.8365H21.0731V31.7675H21.1256V34.6165H20.6076ZM26.3148 34.7215C25.9345 34.7215 25.6125 34.6363 25.3488 34.466C25.0852 34.2957 24.8845 34.0612 24.7468 33.7625C24.6115 33.4615 24.5415 33.1162 24.5368 32.7265C24.5415 32.3298 24.6138 31.9822 24.7538 31.6835C24.8938 31.3825 25.0957 31.1492 25.3593 30.9835C25.623 30.8155 25.9427 30.7315 26.3183 30.7315C26.701 30.7315 27.0335 30.8248 27.3158 31.0115C27.6005 31.1982 27.7953 31.4537 27.9003 31.778L27.3963 31.939C27.3077 31.7127 27.1665 31.5377 26.9728 31.414C26.7815 31.288 26.5622 31.225 26.3148 31.225C26.0372 31.225 25.8073 31.2892 25.6253 31.4175C25.4433 31.5435 25.308 31.7197 25.2193 31.946C25.1307 32.1723 25.0852 32.4325 25.0828 32.7265C25.0875 33.1792 25.1925 33.5432 25.3978 33.8185C25.6032 34.0915 25.9088 34.228 26.3148 34.228C26.5715 34.228 26.7897 34.1697 26.9693 34.053C27.1513 33.934 27.289 33.7613 27.3823 33.535L27.9003 33.689C27.7603 34.025 27.555 34.2817 27.2843 34.459C27.0137 34.634 26.6905 34.7215 26.3148 34.7215ZM31.3528 34.6165V32.688C31.3528 32.478 31.333 32.2855 31.2933 32.1105C31.2536 31.9332 31.1895 31.7792 31.1008 31.6485C31.0145 31.5155 30.9013 31.4128 30.7613 31.3405C30.6236 31.2682 30.4556 31.232 30.2573 31.232C30.0753 31.232 29.9143 31.2635 29.7743 31.3265C29.6366 31.3895 29.52 31.4805 29.4243 31.5995C29.331 31.7162 29.2598 31.8585 29.2108 32.0265C29.1618 32.1945 29.1373 32.3858 29.1373 32.6005L28.7733 32.52C28.7733 32.1327 28.841 31.8072 28.9763 31.5435C29.1116 31.2798 29.2983 31.0803 29.5363 30.945C29.7743 30.8097 30.0473 30.742 30.3553 30.742C30.5816 30.742 30.7788 30.777 30.9468 30.847C31.1171 30.917 31.2606 31.0115 31.3773 31.1305C31.4963 31.2495 31.592 31.386 31.6643 31.54C31.7366 31.6917 31.7891 31.8538 31.8218 32.0265C31.8545 32.1968 31.8708 32.3672 31.8708 32.5375V34.6165H31.3528ZM28.6193 34.6165V29.5765H29.0848V32.422H29.1373V34.6165H28.6193Z" fill="black"/>
</svg>
