<svg width="51" height="37" viewBox="0 0 51 37" fill="none" xmlns="http://www.w3.org/2000/svg">
<g clip-path="url(#clip0_3005_1516)">
<path fill-rule="evenodd" clip-rule="evenodd" d="M36.03 17.48C34.26 16.48 31.69 15.01 28.9 13.48L26.78 12.34C27.47 11.97 28.17 11.61 28.83 11.24C31.83 9.59 34.54 8.08 35.99 7.33C36.0279 7.31284 36.062 7.28822 36.0902 7.25761C36.1184 7.227 36.1402 7.19103 36.1542 7.15183C36.1682 7.11264 36.1741 7.07103 36.1717 7.02948C36.1693 6.98793 36.1585 6.9473 36.14 6.91C36.1034 6.83773 36.0407 6.78206 35.9646 6.75422C35.8885 6.72638 35.8047 6.72845 35.73 6.76C34.22 7.43 31.43 8.7 28.31 10.23L26.18 11.31C26.18 10.31 26.18 9.39 26.09 8.46C25.94 5 25.72 1.93 25.58 0.299999C25.5788 0.258398 25.5691 0.217476 25.5517 0.179673C25.5343 0.14187 25.5095 0.107959 25.4787 0.0799625C25.4479 0.0519662 25.4118 0.0304578 25.3725 0.0167196C25.3332 0.00298143 25.2916 -0.00270517 25.25 -1.13202e-06C25.1669 0.0051576 25.0891 0.042512 25.0331 0.104129C24.977 0.165746 24.9473 0.246772 24.95 0.329999V8.49V11.4C24.18 11 23.4 10.6 22.65 10.23C19.57 8.7 16.78 7.43 15.27 6.76C15.1944 6.72552 15.1082 6.72248 15.0304 6.75155C14.9526 6.78062 14.8895 6.83941 14.855 6.915C14.8205 6.99059 14.8175 7.07677 14.8466 7.1546C14.8756 7.23243 14.9344 7.29552 15.01 7.33C16.5 8.08 19.12 9.59 22.17 11.24C22.84 11.61 23.53 11.97 24.23 12.34L22.1 13.48C19.31 15.01 16.74 16.48 14.97 17.48C14.8891 17.5263 14.8292 17.6022 14.8031 17.6917C14.777 17.7813 14.7866 17.8774 14.83 17.96C14.852 18.0011 14.8819 18.0373 14.9181 18.0666C14.9543 18.096 14.9959 18.1178 15.0406 18.1308C15.0853 18.1439 15.1322 18.1479 15.1784 18.1426C15.2247 18.1373 15.2694 18.1228 15.31 18.1C17.12 17.19 19.78 15.9 22.62 14.47L25.04 13.24L25.1 15.49C25.22 18.66 25.36 21.63 25.43 23.65C25.4442 23.7339 25.4876 23.8101 25.5526 23.8651C25.6176 23.9201 25.6999 23.9502 25.785 23.9502C25.8701 23.9502 25.9525 23.9201 26.0175 23.8651C26.0825 23.8101 26.1259 23.7339 26.14 23.65C26.14 21.65 26.22 18.65 26.22 15.48V13.37C26.94 13.75 27.67 14.12 28.39 14.48C31.23 15.91 33.89 17.2 35.7 18.11C35.7406 18.1328 35.7854 18.1473 35.8316 18.1526C35.8779 18.1579 35.9247 18.1539 35.9694 18.1408C36.0141 18.1278 36.0558 18.106 36.0919 18.0766C36.1281 18.0473 36.158 18.0111 36.18 17.97C36.2027 17.928 36.2167 17.882 36.2215 17.8346C36.2262 17.7871 36.2214 17.7392 36.2074 17.6936C36.1935 17.6481 36.1706 17.6057 36.1402 17.569C36.1097 17.5323 36.0723 17.5021 36.03 17.48Z" fill="black"/>
</g>
<path d="M0.49 35V29.96H2.436C2.485 29.96 2.53983 29.9623 2.6005 29.967C2.6635 29.9693 2.7265 29.9763 2.7895 29.988C3.05317 30.0277 3.276 30.1198 3.458 30.2645C3.64233 30.4068 3.78117 30.5865 3.8745 30.8035C3.97017 31.0205 4.018 31.2608 4.018 31.5245C4.018 31.7858 3.97017 32.025 3.8745 32.242C3.77883 32.459 3.63883 32.6398 3.4545 32.7845C3.2725 32.9268 3.05083 33.0178 2.7895 33.0575C2.7265 33.0668 2.6635 33.0738 2.6005 33.0785C2.53983 33.0832 2.485 33.0855 2.436 33.0855H1.0045V35H0.49ZM1.0045 32.5955H2.422C2.464 32.5955 2.513 32.5932 2.569 32.5885C2.625 32.5838 2.67983 32.5757 2.7335 32.564C2.90617 32.5267 3.04733 32.4555 3.157 32.3505C3.269 32.2455 3.35183 32.1207 3.4055 31.976C3.4615 31.8313 3.4895 31.6808 3.4895 31.5245C3.4895 31.3682 3.4615 31.2177 3.4055 31.073C3.35183 30.926 3.269 30.8 3.157 30.695C3.04733 30.59 2.90617 30.5188 2.7335 30.4815C2.67983 30.4698 2.625 30.4628 2.569 30.4605C2.513 30.4558 2.464 30.4535 2.422 30.4535H1.0045V32.5955ZM4.71461 35V31.22H5.17661V32.13L5.08561 32.011C5.12761 31.899 5.18244 31.7963 5.25011 31.703C5.31778 31.6073 5.39128 31.5292 5.47061 31.4685C5.56861 31.3822 5.68294 31.3168 5.81361 31.2725C5.94428 31.2258 6.07611 31.199 6.20911 31.192C6.34211 31.1827 6.46344 31.192 6.57311 31.22V31.703C6.43544 31.668 6.28494 31.6598 6.12161 31.6785C5.95828 31.6972 5.80778 31.7625 5.67011 31.8745C5.54411 31.9725 5.44961 32.0903 5.38661 32.228C5.32361 32.3633 5.28161 32.508 5.26061 32.662C5.23961 32.8137 5.22911 32.9642 5.22911 33.1135V35H4.71461ZM7.30707 30.5025V29.925H7.82157V30.5025H7.30707ZM7.30707 35V31.22H7.82157V35H7.30707ZM10.4494 35.105C10.0737 35.105 9.75286 35.0198 9.48686 34.8495C9.22086 34.6792 9.01669 34.4435 8.87436 34.1425C8.73203 33.8415 8.66086 33.4962 8.66086 33.1065C8.66086 32.7098 8.73319 32.3622 8.87786 32.0635C9.02253 31.7648 9.22786 31.5327 9.49386 31.367C9.76219 31.199 10.0807 31.115 10.4494 31.115C10.8274 31.115 11.1494 31.2002 11.4154 31.3705C11.6837 31.5385 11.8879 31.773 12.0279 32.074C12.1702 32.3727 12.2414 32.7168 12.2414 33.1065C12.2414 33.5032 12.1702 33.852 12.0279 34.153C11.8855 34.4517 11.6802 34.685 11.4119 34.853C11.1435 35.021 10.8227 35.105 10.4494 35.105ZM10.4494 34.6115C10.8694 34.6115 11.182 34.4727 11.3874 34.195C11.5927 33.915 11.6954 33.5522 11.6954 33.1065C11.6954 32.6492 11.5915 32.2852 11.3839 32.0145C11.1785 31.7438 10.867 31.6085 10.4494 31.6085C10.167 31.6085 9.93369 31.6727 9.74936 31.801C9.56736 31.927 9.43086 32.1032 9.33986 32.3295C9.25119 32.5535 9.20686 32.8125 9.20686 33.1065C9.20686 33.5615 9.31186 33.9267 9.52186 34.202C9.73186 34.475 10.041 34.6115 10.4494 34.6115ZM13.0134 35V31.22H13.4754V32.13L13.3844 32.011C13.4264 31.899 13.4813 31.7963 13.5489 31.703C13.6166 31.6073 13.6901 31.5292 13.7694 31.4685C13.8674 31.3822 13.9818 31.3168 14.1124 31.2725C14.2431 31.2258 14.3749 31.199 14.5079 31.192C14.6409 31.1827 14.7623 31.192 14.8719 31.22V31.703C14.7343 31.668 14.5838 31.6598 14.4204 31.6785C14.2571 31.6972 14.1066 31.7625 13.9689 31.8745C13.8429 31.9725 13.7484 32.0903 13.6854 32.228C13.6224 32.3633 13.5804 32.508 13.5594 32.662C13.5384 32.8137 13.5279 32.9642 13.5279 33.1135V35H13.0134ZM15.6059 30.5025V29.925H16.1204V30.5025H15.6059ZM15.6059 35V31.22H16.1204V35H15.6059ZM19.2277 35C19.0154 35.0443 18.8054 35.0618 18.5977 35.0525C18.3924 35.0432 18.208 34.9988 18.0447 34.9195C17.8837 34.8402 17.7612 34.7165 17.6772 34.5485C17.6095 34.4085 17.5722 34.2673 17.5652 34.125C17.5605 33.9803 17.5582 33.8158 17.5582 33.6315V30.17H18.0692V33.6105C18.0692 33.7692 18.0704 33.9022 18.0727 34.0095C18.0774 34.1145 18.1019 34.2078 18.1462 34.2895C18.2302 34.4458 18.3632 34.5392 18.5452 34.5695C18.7295 34.5998 18.957 34.5928 19.2277 34.5485V35ZM16.7497 31.661V31.22H19.2277V31.661H16.7497ZM20.4089 36.68L21.1404 34.6955L21.1509 35.2835L19.4954 31.22H20.0414L21.3994 34.6185H21.1754L22.4284 31.22H22.9534L20.9234 36.68H20.4089ZM26.7127 35.105C26.3603 35.105 26.043 35.0467 25.7607 34.93C25.4807 34.811 25.2485 34.643 25.0642 34.426C24.8822 34.209 24.7632 33.9512 24.7072 33.6525L25.2322 33.565C25.3162 33.8917 25.4935 34.1483 25.7642 34.335C26.0348 34.5193 26.358 34.6115 26.7337 34.6115C26.981 34.6115 27.2027 34.573 27.3987 34.496C27.5947 34.4167 27.7487 34.3047 27.8607 34.16C27.9727 34.0153 28.0287 33.8438 28.0287 33.6455C28.0287 33.5148 28.0053 33.404 27.9587 33.313C27.912 33.2197 27.8502 33.1427 27.7732 33.082C27.6962 33.0213 27.6122 32.9712 27.5212 32.9315C27.4302 32.8895 27.3415 32.8557 27.2552 32.83L25.9777 32.4485C25.8237 32.4042 25.6813 32.3482 25.5507 32.2805C25.42 32.2105 25.3057 32.1277 25.2077 32.032C25.112 31.934 25.0373 31.8197 24.9837 31.689C24.93 31.5583 24.9032 31.409 24.9032 31.241C24.9032 30.9563 24.9778 30.7102 25.1272 30.5025C25.2765 30.2948 25.4807 30.135 25.7397 30.023C25.9987 29.911 26.2938 29.8562 26.6252 29.8585C26.9612 29.8585 27.261 29.918 27.5247 30.037C27.7907 30.156 28.01 30.3263 28.1827 30.548C28.3553 30.7673 28.4697 31.0275 28.5257 31.3285L27.9867 31.4265C27.9517 31.2072 27.8712 31.017 27.7452 30.856C27.6192 30.695 27.4582 30.5713 27.2622 30.485C27.0685 30.3963 26.855 30.3508 26.6217 30.3485C26.3953 30.3485 26.1935 30.387 26.0162 30.464C25.8412 30.5387 25.7023 30.6413 25.5997 30.772C25.497 30.9027 25.4457 31.052 25.4457 31.22C25.4457 31.3903 25.4923 31.5268 25.5857 31.6295C25.6813 31.7322 25.798 31.8127 25.9357 31.871C26.0757 31.9293 26.211 31.9772 26.3417 32.0145L27.3287 32.305C27.4313 32.333 27.5515 32.3738 27.6892 32.4275C27.8292 32.4788 27.9645 32.5535 28.0952 32.6515C28.2282 32.7472 28.3378 32.8732 28.4242 33.0295C28.5105 33.1858 28.5537 33.3842 28.5537 33.6245C28.5537 33.8578 28.507 34.0667 28.4137 34.251C28.3227 34.4353 28.1932 34.5905 28.0252 34.7165C27.8595 34.8425 27.6647 34.9382 27.4407 35.0035C27.219 35.0712 26.9763 35.105 26.7127 35.105ZM30.7216 35.0945C30.4953 35.0945 30.297 35.0595 30.1266 34.9895C29.9586 34.9195 29.8151 34.825 29.6961 34.706C29.5795 34.587 29.485 34.4517 29.4126 34.3C29.3403 34.146 29.2878 33.9838 29.2551 33.8135C29.2225 33.6408 29.2061 33.4693 29.2061 33.299V31.22H29.7241V33.1485C29.7241 33.3562 29.744 33.5487 29.7836 33.726C29.8233 33.9033 29.8863 34.0585 29.9726 34.1915C30.0613 34.3222 30.1745 34.4237 30.3121 34.496C30.4521 34.5683 30.6213 34.6045 30.8196 34.6045C31.0016 34.6045 31.1615 34.573 31.2991 34.51C31.4391 34.447 31.5558 34.3572 31.6491 34.2405C31.7448 34.1215 31.8171 33.978 31.8661 33.81C31.9151 33.6397 31.9396 33.4483 31.9396 33.236L32.3036 33.3165C32.3036 33.7038 32.236 34.0293 32.1006 34.293C31.9653 34.5567 31.7786 34.7562 31.5406 34.8915C31.3026 35.0268 31.0296 35.0945 30.7216 35.0945ZM31.9921 35V34.069H31.9396V31.22H32.4541V35H31.9921ZM35.1299 35.105C34.7822 35.105 34.4882 35.0175 34.2479 34.8425C34.0075 34.6652 33.8255 34.426 33.7019 34.125C33.5782 33.8217 33.5164 33.4822 33.5164 33.1065C33.5164 32.7238 33.5782 32.3832 33.7019 32.0845C33.8279 31.7835 34.0122 31.5467 34.2549 31.374C34.4975 31.2013 34.7962 31.115 35.1509 31.115C35.4962 31.115 35.7925 31.2025 36.0399 31.3775C36.2872 31.5525 36.4762 31.7905 36.6069 32.0915C36.7399 32.3925 36.8064 32.7308 36.8064 33.1065C36.8064 33.4845 36.7399 33.824 36.6069 34.125C36.4739 34.426 36.2825 34.6652 36.0329 34.8425C35.7832 35.0175 35.4822 35.105 35.1299 35.105ZM33.4289 36.68V31.22H33.8909V34.0655H33.9469V36.68H33.4289ZM35.0774 34.6255C35.341 34.6255 35.5604 34.559 35.7354 34.426C35.9104 34.293 36.041 34.1122 36.1274 33.8835C36.216 33.6525 36.2604 33.3935 36.2604 33.1065C36.2604 32.8218 36.2172 32.5652 36.1309 32.3365C36.0445 32.1078 35.9127 31.927 35.7354 31.794C35.5604 31.661 35.3375 31.5945 35.0669 31.5945C34.8032 31.5945 34.5839 31.6587 34.4089 31.787C34.2362 31.9153 34.1067 32.0938 34.0204 32.3225C33.934 32.5488 33.8909 32.8102 33.8909 33.1065C33.8909 33.3982 33.934 33.6595 34.0204 33.8905C34.1067 34.1192 34.2374 34.2988 34.4124 34.4295C34.5874 34.5602 34.809 34.6255 35.0774 34.6255ZM39.2725 35.105C38.9248 35.105 38.6308 35.0175 38.3905 34.8425C38.1501 34.6652 37.9681 34.426 37.8445 34.125C37.7208 33.8217 37.659 33.4822 37.659 33.1065C37.659 32.7238 37.7208 32.3832 37.8445 32.0845C37.9705 31.7835 38.1548 31.5467 38.3975 31.374C38.6401 31.2013 38.9388 31.115 39.2935 31.115C39.6388 31.115 39.9351 31.2025 40.1825 31.3775C40.4298 31.5525 40.6188 31.7905 40.7495 32.0915C40.8825 32.3925 40.949 32.7308 40.949 33.1065C40.949 33.4845 40.8825 33.824 40.7495 34.125C40.6165 34.426 40.4251 34.6652 40.1755 34.8425C39.9258 35.0175 39.6248 35.105 39.2725 35.105ZM37.5715 36.68V31.22H38.0335V34.0655H38.0895V36.68H37.5715ZM39.22 34.6255C39.4836 34.6255 39.703 34.559 39.878 34.426C40.053 34.293 40.1836 34.1122 40.27 33.8835C40.3586 33.6525 40.403 33.3935 40.403 33.1065C40.403 32.8218 40.3598 32.5652 40.2735 32.3365C40.1871 32.1078 40.0553 31.927 39.878 31.794C39.703 31.661 39.4801 31.5945 39.2095 31.5945C38.9458 31.5945 38.7265 31.6587 38.5515 31.787C38.3788 31.9153 38.2493 32.0938 38.163 32.3225C38.0766 32.5488 38.0335 32.8102 38.0335 33.1065C38.0335 33.3982 38.0766 33.6595 38.163 33.8905C38.2493 34.1192 38.38 34.2988 38.555 34.4295C38.73 34.5602 38.9516 34.6255 39.22 34.6255ZM43.296 35.105C42.9204 35.105 42.5995 35.0198 42.3335 34.8495C42.0675 34.6792 41.8634 34.4435 41.721 34.1425C41.5787 33.8415 41.5075 33.4962 41.5075 33.1065C41.5075 32.7098 41.5799 32.3622 41.7245 32.0635C41.8692 31.7648 42.0745 31.5327 42.3405 31.367C42.6089 31.199 42.9274 31.115 43.296 31.115C43.674 31.115 43.996 31.2002 44.262 31.3705C44.5304 31.5385 44.7345 31.773 44.8745 32.074C45.0169 32.3727 45.088 32.7168 45.088 33.1065C45.088 33.5032 45.0169 33.852 44.8745 34.153C44.7322 34.4517 44.5269 34.685 44.2585 34.853C43.9902 35.021 43.6694 35.105 43.296 35.105ZM43.296 34.6115C43.716 34.6115 44.0287 34.4727 44.234 34.195C44.4394 33.915 44.542 33.5522 44.542 33.1065C44.542 32.6492 44.4382 32.2852 44.2305 32.0145C44.0252 31.7438 43.7137 31.6085 43.296 31.6085C43.0137 31.6085 42.7804 31.6727 42.596 31.801C42.414 31.927 42.2775 32.1032 42.1865 32.3295C42.0979 32.5535 42.0535 32.8125 42.0535 33.1065C42.0535 33.5615 42.1585 33.9267 42.3685 34.202C42.5785 34.475 42.8877 34.6115 43.296 34.6115ZM45.8601 35V31.22H46.3221V32.13L46.2311 32.011C46.2731 31.899 46.328 31.7963 46.3956 31.703C46.4633 31.6073 46.5368 31.5292 46.6161 31.4685C46.7141 31.3822 46.8285 31.3168 46.9591 31.2725C47.0898 31.2258 47.2216 31.199 47.3546 31.192C47.4876 31.1827 47.609 31.192 47.7186 31.22V31.703C47.581 31.668 47.4305 31.6598 47.2671 31.6785C47.1038 31.6972 46.9533 31.7625 46.8156 31.8745C46.6896 31.9725 46.5951 32.0903 46.5321 32.228C46.4691 32.3633 46.4271 32.508 46.4061 32.662C46.3851 32.8137 46.3746 32.9642 46.3746 33.1135V35H45.8601ZM50.4406 35C50.2282 35.0443 50.0182 35.0618 49.8106 35.0525C49.6052 35.0432 49.4209 34.9988 49.2576 34.9195C49.0966 34.8402 48.9741 34.7165 48.8901 34.5485C48.8224 34.4085 48.7851 34.2673 48.7781 34.125C48.7734 33.9803 48.7711 33.8158 48.7711 33.6315V30.17H49.2821V33.6105C49.2821 33.7692 49.2832 33.9022 49.2856 34.0095C49.2902 34.1145 49.3147 34.2078 49.3591 34.2895C49.4431 34.4458 49.5761 34.5392 49.7581 34.5695C49.9424 34.5998 50.1699 34.5928 50.4406 34.5485V35ZM47.9626 31.661V31.22H50.4406V31.661H47.9626Z" fill="black"/>
<defs>
<clipPath id="clip0_3005_1516">
<rect width="24" height="24" fill="white" transform="translate(13.5)"/>
</clipPath>
</defs>
</svg>
