<svg width="247" height="58" viewBox="0 0 247 58" fill="none" xmlns="http://www.w3.org/2000/svg">
<path d="M88.2281 56.5527C85.9054 56.5527 83.8254 55.9807 81.9881 54.8367C80.1507 53.6927 78.6947 52.1327 77.6201 50.1567C76.5801 48.1807 76.0601 45.962 76.0601 43.5007C76.0601 41.0047 76.5801 38.7687 77.6201 36.7927C78.6947 34.8167 80.1334 33.2567 81.9361 32.1127C83.7734 30.9687 85.8707 30.3967 88.2281 30.3967C90.0307 30.3967 91.6427 30.7607 93.0641 31.4887C94.5201 32.2167 95.6814 33.2393 96.5481 34.5567C97.4494 35.8393 97.9347 37.2953 98.0041 38.9247V47.8687C97.9347 49.498 97.4667 50.9713 96.6001 52.2887C95.7334 53.606 94.5721 54.646 93.1161 55.4087C91.6601 56.1713 90.0307 56.5527 88.2281 56.5527ZM89.3721 50.2607C90.6547 50.2607 91.7641 49.9833 92.7001 49.4287C93.6707 48.8393 94.4161 48.042 94.9361 47.0367C95.4907 45.9967 95.7681 44.8007 95.7681 43.4487C95.7681 42.1313 95.4907 40.97 94.9361 39.9647C94.4161 38.9247 93.6707 38.1273 92.7001 37.5727C91.7641 36.9833 90.6721 36.6887 89.4241 36.6887C88.1414 36.6887 87.0147 36.9833 86.0441 37.5727C85.1081 38.162 84.3627 38.9593 83.8081 39.9647C83.2881 40.97 83.0281 42.1313 83.0281 43.4487C83.0281 44.8007 83.2881 45.9967 83.8081 47.0367C84.3627 48.042 85.1254 48.8393 86.0961 49.4287C87.0667 49.9833 88.1587 50.2607 89.3721 50.2607ZM102.164 56.0327H95.4041V49.2727L96.4961 43.1367L95.3521 37.1047V18.4367H102.164V56.0327ZM117.082 56.5527C114.448 56.5527 112.108 55.998 110.062 54.8887C108.017 53.7447 106.388 52.1847 105.174 50.2087C103.996 48.2327 103.406 45.9793 103.406 43.4487C103.406 40.9527 103.978 38.734 105.122 36.7927C106.301 34.8167 107.896 33.2567 109.906 32.1127C111.917 30.934 114.153 30.3447 116.614 30.3447C119.041 30.3447 121.173 30.8993 123.01 32.0087C124.882 33.0833 126.338 34.574 127.378 36.4807C128.453 38.3527 128.99 40.4847 128.99 42.8767C128.99 43.3273 128.956 43.7953 128.886 44.2807C128.852 44.7313 128.765 45.2513 128.626 45.8407L107.514 45.8927V40.7967L125.454 40.7447L122.698 42.8767C122.629 41.386 122.352 40.138 121.866 39.1327C121.416 38.1273 120.74 37.3647 119.838 36.8447C118.972 36.29 117.897 36.0127 116.614 36.0127C115.262 36.0127 114.084 36.3247 113.078 36.9487C112.073 37.538 111.293 38.3873 110.738 39.4967C110.218 40.5713 109.958 41.854 109.958 43.3447C109.958 44.87 110.236 46.2047 110.79 47.3487C111.38 48.458 112.212 49.3247 113.286 49.9487C114.361 50.538 115.609 50.8327 117.03 50.8327C118.313 50.8327 119.474 50.6247 120.514 50.2087C121.554 49.758 122.456 49.0993 123.218 48.2327L127.222 52.2367C126.009 53.658 124.518 54.7327 122.75 55.4607C121.017 56.1887 119.128 56.5527 117.082 56.5527ZM146.983 56.0327V41.6287C146.983 40.138 146.515 38.9247 145.579 37.9887C144.643 37.0527 143.43 36.5847 141.939 36.5847C140.969 36.5847 140.102 36.7927 139.339 37.2087C138.577 37.6247 137.97 38.214 137.519 38.9767C137.103 39.7393 136.895 40.6233 136.895 41.6287L134.243 40.2767C134.243 38.3007 134.659 36.5847 135.491 35.1287C136.358 33.638 137.537 32.4767 139.027 31.6447C140.553 30.8127 142.269 30.3967 144.175 30.3967C146.013 30.3967 147.659 30.8647 149.115 31.8007C150.571 32.702 151.715 33.898 152.547 35.3887C153.379 36.8447 153.795 38.422 153.795 40.1207V56.0327H146.983ZM130.083 56.0327V30.9167H136.895V56.0327H130.083Z" fill="#015723"/>
<path d="M20.644 56.6168C18.044 56.6168 15.6 56.1488 13.312 55.2128C11.0587 54.2422 9.06533 52.8902 7.332 51.1568C5.63333 49.4235 4.29867 47.4302 3.328 45.1768C2.392 42.8888 1.924 40.4275 1.924 37.7928C1.924 35.1235 2.40933 32.6622 3.38 30.4088C4.35067 28.1208 5.70267 26.1275 7.436 24.4288C9.16933 22.6955 11.1973 21.3608 13.52 20.4248C15.8427 19.4542 18.356 18.9688 21.06 18.9688C24.076 18.9688 26.8493 19.5408 29.38 20.6848C31.9107 21.7942 34.008 23.3715 35.672 25.4168L30.888 30.2008C29.744 28.7102 28.3227 27.5662 26.624 26.7688C24.9253 25.9715 23.0533 25.5728 21.008 25.5728C18.6853 25.5728 16.6227 26.0928 14.82 27.1328C13.052 28.1382 11.6653 29.5595 10.66 31.3968C9.65467 33.1995 9.152 35.3142 9.152 37.7408C9.152 40.1675 9.63733 42.3168 10.608 44.1888C11.6133 46.0262 12.9653 47.4648 14.664 48.5048C16.3973 49.5448 18.3733 50.0648 20.592 50.0648C22.88 50.0648 24.8387 49.6488 26.468 48.8168C28.0973 47.9502 29.3453 46.7022 30.212 45.0728C31.0787 43.4088 31.512 41.3808 31.512 38.9888L36.14 42.1608L20.176 42.0048V35.8688H38.792V36.8568C38.792 41.2248 38.012 44.8822 36.452 47.8288C34.892 50.7408 32.7427 52.9422 30.004 54.4328C27.3 55.8888 24.18 56.6168 20.644 56.6168ZM50.8727 56.6168C48.5847 56.6168 46.522 56.0448 44.6847 54.9008C42.8473 53.7568 41.4087 52.1968 40.3687 50.2208C39.3287 48.2448 38.8087 46.0262 38.8087 43.5648C38.8087 41.0688 39.3287 38.8328 40.3687 36.8568C41.4087 34.8808 42.8473 33.3208 44.6847 32.1768C46.522 31.0328 48.5847 30.4608 50.8727 30.4608C52.6753 30.4608 54.2873 30.8248 55.7087 31.5528C57.13 32.2808 58.2567 33.3035 59.0887 34.6208C59.9553 35.9035 60.4233 37.3595 60.4927 38.9888V48.0368C60.4233 49.7008 59.9553 51.1742 59.0887 52.4568C58.2567 53.7395 57.13 54.7622 55.7087 55.5248C54.2873 56.2528 52.6753 56.6168 50.8727 56.6168ZM52.1207 50.3248C54.0273 50.3248 55.57 49.7008 56.7487 48.4528C57.9273 47.1702 58.5167 45.5235 58.5167 43.5128C58.5167 42.1955 58.2393 41.0342 57.6847 40.0288C57.1647 38.9888 56.4193 38.1915 55.4487 37.6368C54.5127 37.0475 53.4033 36.7528 52.1207 36.7528C50.8727 36.7528 49.7633 37.0475 48.7927 37.6368C47.8567 38.1915 47.1113 38.9888 46.5567 40.0288C46.0367 41.0342 45.7767 42.1955 45.7767 43.5128C45.7767 44.8648 46.0367 46.0608 46.5567 47.1008C47.1113 48.1062 47.8567 48.9035 48.7927 49.4928C49.7633 50.0475 50.8727 50.3248 52.1207 50.3248ZM58.1527 56.0968V49.3368L59.2447 43.2008L58.1527 37.1688V30.9808H64.9127V56.0968H58.1527Z" fill="#015723"/>
<mask id="mask0_12_1223" style="mask-type:luminance" maskUnits="userSpaceOnUse" x="68" y="3" width="47" height="34">
<path d="M68.2124 5.76613L112.253 3.47415L114.234 34.5412L70.1795 36.8338L68.2124 5.76613Z" fill="white"/>
</mask>
<g mask="url(#mask0_12_1223)">
<mask id="mask1_12_1223" style="mask-type:luminance" maskUnits="userSpaceOnUse" x="68" y="3" width="47" height="34">
<path d="M68.1979 5.76672L112.238 3.47475L114.22 34.5418L70.1649 36.8344L68.1979 5.76672Z" fill="white"/>
</mask>
<g mask="url(#mask1_12_1223)">
<mask id="mask2_12_1223" style="mask-type:luminance" maskUnits="userSpaceOnUse" x="68" y="3" width="47" height="34">
<path d="M68.1979 5.76672L112.238 3.47475L114.22 34.5418L70.1649 36.8344L68.1979 5.76672Z" fill="white"/>
</mask>
<g mask="url(#mask2_12_1223)">
<path d="M72.7402 36.6985C71.2646 36.7791 70.0452 36.0153 70.0937 35.0535C70.1794 33.2079 70.5727 31.0782 71.5834 28.7968C75.7062 19.503 86.8959 14.3563 90.6742 12.7648C88.4176 13.2559 85.206 14.155 81.8787 15.786C77.5701 17.8939 75.0123 20.2783 73.637 21.7798C73.6006 19.0571 74.3262 14.7226 78.8964 11.1786C83.312 7.75743 89.2995 6.66565 97.5318 5.15114C103.505 4.05996 108.635 3.64359 112.224 3.47535C111.433 9.08263 108.698 13.1903 106.805 15.518C103.668 19.3903 99.6758 24.3257 91.5517 26.0102C85.6705 27.2236 80.3368 26.1748 77.8324 25.5419C76.7645 27.118 75.4964 29.4876 75.1936 32.428C75.0981 33.3045 75.1162 34.1181 75.1753 34.8718C75.2703 35.7986 74.1727 36.6294 72.7402 36.6985Z" fill="#03A241"/>
</g>
</g>
</g>
<mask id="mask3_12_1223" style="mask-type:luminance" maskUnits="userSpaceOnUse" x="40" y="2" width="38" height="39">
<path d="M45.4534 2.79549L77.5821 7.18516L72.7693 40.513L40.6411 36.1338L45.4534 2.79549Z" fill="white"/>
</mask>
<g mask="url(#mask3_12_1223)">
<mask id="mask4_12_1223" style="mask-type:luminance" maskUnits="userSpaceOnUse" x="39" y="0" width="40" height="43">
<path d="M77.2885 0.90917L39.1147 2.49247L40.7211 42.6702L78.8949 41.0869L77.2885 0.90917Z" fill="white"/>
</mask>
<g mask="url(#mask4_12_1223)">
<mask id="mask5_12_1223" style="mask-type:luminance" maskUnits="userSpaceOnUse" x="44" y="1" width="30" height="42">
<path d="M44.5681 2.26627L71.8351 1.13534L73.4285 40.9887L46.1615 42.1196L44.5681 2.26627Z" fill="white"/>
</mask>
<g mask="url(#mask5_12_1223)">
<mask id="mask6_12_1223" style="mask-type:luminance" maskUnits="userSpaceOnUse" x="40" y="2" width="38" height="39">
<path d="M45.4534 2.79545L77.5821 7.18512L72.7693 40.5129L40.6411 36.1337L45.4534 2.79545Z" fill="white"/>
</mask>
<g mask="url(#mask6_12_1223)">
<mask id="mask7_12_1223" style="mask-type:luminance" maskUnits="userSpaceOnUse" x="40" y="2" width="38" height="39">
<path d="M77.0671 7.11216L44.9278 2.72293L40.1155 36.0612L72.2437 40.4404L77.0671 7.11216Z" fill="white"/>
</mask>
<g mask="url(#mask7_12_1223)">
<path d="M70.3491 40.5504C71.4111 40.695 72.383 39.9211 72.4583 38.87C72.5914 36.8627 72.5407 34.5277 72.0557 32.0011C70.1086 21.7273 62.5799 15.678 60.0183 13.7826C61.6014 14.4191 63.8219 15.5217 66.0533 17.4309C68.937 19.9104 70.5276 22.6008 71.3528 24.2958C71.6826 21.3371 71.6316 16.5917 68.7175 12.5519C65.8945 8.65502 61.6868 7.21557 55.8997 5.23377C51.692 3.79433 48.0273 3.12886 45.4535 2.79544C45.3893 8.92908 46.9269 13.4976 48.0344 16.1137C49.8827 20.4492 52.2269 25.9799 57.9253 28.1435C62.0421 29.7125 66.0169 28.7931 67.8927 28.2122C68.507 29.9684 69.1565 32.6034 69.0497 35.8044C69.0132 36.7596 68.9206 37.6438 68.793 38.456C68.6202 39.4693 69.319 40.4045 70.3491 40.5504Z" fill="#7ED957"/>
</g>
</g>
</g>
</g>
</g>
<path d="M72.5332 49.4266C72.6348 49.799 72.6348 50.1545 72.5332 50.493C72.4655 50.8315 72.5332 51.1532 72.7364 51.4579C72.6687 51.6271 72.6687 51.7964 72.7364 51.9657C72.8041 52.1011 72.8379 52.2534 72.8379 52.4227C72.8718 52.7274 72.9226 52.9305 72.9903 53.0321C73.0918 53.1336 73.1765 53.2521 73.2442 53.3875C73.1088 53.6245 73.0411 53.7769 73.0411 53.8446C73.0749 53.9123 73.0918 53.9631 73.0918 53.9969C72.8887 54.2 72.7364 54.3355 72.6348 54.4032C72.2963 54.7079 72.0593 54.8771 71.9239 54.911L71.5684 55.4696C71.2976 55.7743 71.1452 55.9097 71.1114 55.8758C71.1114 55.842 71.0775 55.825 71.0098 55.825C70.9421 55.8927 70.8575 55.9774 70.7559 56.0789C70.6882 56.1805 70.6205 56.2651 70.5528 56.3329C70.0788 56.4344 69.808 56.4852 69.7403 56.4852C69.4017 56.3159 69.2155 56.1636 69.1817 56.0282C69.1817 55.8927 69.1478 55.7573 69.0801 55.6219C69.1817 55.2834 69.1986 55.0464 69.1309 54.911C69.0632 54.8094 69.0632 54.6909 69.1309 54.5555C69.1647 54.2847 69.097 53.98 68.9278 53.6414C68.9955 53.4722 69.0124 53.286 68.9786 53.0829C68.9108 52.8459 68.8601 52.6427 68.8262 52.4735C68.8262 52.3042 68.8601 52.1688 68.9278 52.0672C68.8601 51.9995 68.8262 51.898 68.8262 51.7625C68.8262 51.5933 68.8262 51.424 68.8262 51.2547C68.7585 50.8485 68.7246 50.5946 68.7246 50.493C68.7585 50.3914 68.7754 50.2899 68.7754 50.1883C68.7754 50.0868 68.7416 49.9513 68.6739 49.7821C68.64 49.6128 68.6231 49.4435 68.6231 49.2743C68.5892 48.9696 68.5723 48.7664 68.5723 48.6649C68.6062 48.5295 68.6062 48.394 68.5723 48.2586C68.5723 48.1909 68.5723 48.1063 68.5723 48.0047C68.5723 47.9032 68.5554 47.7847 68.5215 47.6493C68.5215 47.5815 68.4877 47.48 68.42 47.3446C68.3861 47.2092 68.3692 47.0568 68.3692 46.8875C68.3692 46.4474 68.3353 46.1935 68.2676 46.1258C68.2338 46.0243 68.2168 45.9227 68.2168 45.8211C68.3184 45.5164 68.3522 45.3133 68.3184 45.2118C68.2845 45.1102 68.3015 45.0256 68.3692 44.9579C68.2676 44.7886 68.1999 44.5516 68.1661 44.2469C68.1661 43.9422 68.183 43.6883 68.2168 43.4852C68.1491 43.1128 68.1153 42.8758 68.1153 42.7743C68.1153 42.6727 68.1153 42.5542 68.1153 42.4188C68.0137 42.148 67.9629 41.9956 67.9629 41.9618C67.9968 41.9279 68.0137 41.8771 68.0137 41.8094C67.8783 41.437 67.8106 41.217 67.8106 41.1493C67.8444 41.0477 67.8614 40.9631 67.8614 40.8954C67.6582 40.3875 67.5567 40.0321 67.5567 39.8289C67.5905 39.6258 67.5567 39.4396 67.4551 39.2704C67.5228 39.1011 67.5059 38.9487 67.4043 38.8133C67.3366 38.6779 67.2858 38.5594 67.252 38.4579C67.1843 37.95 67.0827 37.6115 66.9473 37.4422C66.8119 37.273 66.7103 37.0698 66.6426 36.8329C66.5749 36.7651 66.5072 36.6974 66.4395 36.6297C66.3718 36.562 66.3041 36.4605 66.2364 36.325C65.8301 36.2573 65.4916 36.2743 65.2207 36.3758C64.9499 36.4435 64.696 36.562 64.459 36.7313C64.1882 36.9683 63.9851 37.1037 63.8496 37.1375C63.7142 37.1714 63.6127 37.256 63.545 37.3914C63.4095 37.3237 63.2911 37.256 63.1895 37.1883C63.0879 37.0868 62.9864 37.0021 62.8848 36.9344C62.9187 36.8329 62.9525 36.7313 62.9864 36.6297C63.0202 36.4943 63.0371 36.3589 63.0371 36.2235C63.1049 36.1219 63.2064 36.0373 63.3418 35.9696C63.4434 35.9019 63.5111 35.7834 63.545 35.6141C63.7481 35.5125 63.8666 35.4279 63.9004 35.3602C63.9004 35.2925 63.9343 35.2248 64.002 35.1571C64.239 34.8862 64.4082 34.7508 64.5098 34.7508C64.7129 34.5477 64.8314 34.4123 64.8653 34.3446C64.933 34.2769 65.0007 34.2599 65.0684 34.2938C65.4746 33.9214 65.7963 33.6675 66.0332 33.5321C66.3041 33.3967 66.5749 33.2951 66.8457 33.2274C66.9473 33.2274 67.0489 33.2274 67.1504 33.2274C67.2858 33.1935 67.3874 33.2105 67.4551 33.2782C67.8614 33.2782 68.0814 33.312 68.1153 33.3797C68.183 33.4136 68.2845 33.3967 68.42 33.3289C68.5215 33.4644 68.6908 33.5659 68.9278 33.6336C68.9955 33.769 69.0463 33.8875 69.0801 33.9891C69.114 34.0907 69.1647 34.1922 69.2325 34.2938C69.3002 34.4292 69.3848 34.5308 69.4864 34.5985C69.5879 34.6323 69.6726 34.7 69.7403 34.8016C69.9434 35.0724 70.045 35.2756 70.045 35.411C70.1804 35.7834 70.1804 35.9696 70.045 35.9696C70.1127 36.0711 70.1804 36.1727 70.2481 36.2743C70.3496 36.3758 70.4004 36.5282 70.4004 36.7313C70.502 37.1037 70.5866 37.4253 70.6543 37.6961C70.722 37.967 70.8067 38.187 70.9082 38.3563C71.0098 38.7625 71.0944 38.9995 71.1621 39.0672L71.5684 38.5594C71.6361 38.4579 71.67 38.3563 71.67 38.2547C71.7038 38.1193 71.7546 38.0177 71.8223 37.95C71.89 37.8823 71.9577 37.8146 72.0254 37.7469C72.127 37.6792 72.2116 37.6115 72.2793 37.5438C72.4825 37.2052 72.584 37.0021 72.584 36.9344C72.584 36.8667 72.6348 36.8159 72.7364 36.7821C72.7702 36.6128 72.821 36.4943 72.8887 36.4266C72.9564 36.3589 73.0241 36.2743 73.0918 36.1727C73.295 35.9357 73.4304 35.648 73.4981 35.3094C73.5658 35.2417 73.6166 35.1571 73.6504 35.0555C73.7181 34.9539 73.7858 34.8693 73.8536 34.8016C73.9213 34.7 73.989 34.6154 74.0567 34.5477C74.1244 34.4461 74.1921 34.3446 74.2598 34.243C74.4968 33.8706 74.6491 33.6336 74.7168 33.5321C74.7845 33.3967 74.8353 33.2443 74.8692 33.075C75.0046 32.9396 75.1062 32.855 75.1739 32.8211C75.2416 32.7534 75.2924 32.6688 75.3262 32.5672C75.6647 32.1948 75.8848 31.9748 75.9864 31.9071C76.1218 31.8055 76.1895 31.6532 76.1895 31.45C76.6296 31.2808 76.9174 31.0269 77.0528 30.6883C77.3236 30.3836 77.5267 30.2144 77.6621 30.1805C77.8314 30.1128 77.9161 29.9605 77.9161 29.7235C78.1192 29.7573 78.2546 29.7404 78.3223 29.6727C78.4239 29.5711 78.5254 29.4865 78.627 29.4188C78.8301 29.4865 78.9655 29.4526 79.0332 29.3172C79.1348 29.148 79.2533 29.0295 79.3887 28.9618C79.8965 28.8263 80.2181 28.7417 80.3536 28.7079C80.5228 28.6401 80.6921 28.5894 80.8614 28.5555C81.1999 28.4539 81.4538 28.3693 81.6231 28.3016C81.7924 28.2339 81.9447 28.1662 82.0801 28.0985C82.5202 28.0646 82.7911 28.0646 82.8926 28.0985C82.9942 28.0985 83.1127 28.0985 83.2481 28.0985C83.3158 28.0985 83.4174 28.0985 83.5528 28.0985C83.722 28.0646 83.8405 28.1323 83.9082 28.3016C84.1452 28.3355 84.3145 28.4201 84.4161 28.5555C84.5515 28.6571 84.7038 28.7417 84.8731 28.8094C84.9069 28.9787 84.9916 29.1141 85.127 29.2157C85.2963 29.2834 85.364 29.4357 85.3301 29.6727C85.3978 29.7404 85.4486 29.8589 85.4825 30.0282C85.5163 30.1974 85.5671 30.3329 85.6348 30.4344C85.6348 30.6714 85.6009 30.8237 85.5332 30.8914C85.4994 30.9253 85.5332 30.9592 85.6348 30.993C85.6348 31.3654 85.6179 31.5516 85.584 31.5516C85.584 31.5177 85.5671 31.5347 85.5332 31.6024C85.2963 31.9409 85.1778 32.1948 85.1778 32.3641C84.9408 32.5334 84.8054 32.6688 84.7715 32.7704C84.7038 32.9735 84.653 33.1089 84.6192 33.1766C84.6192 33.2105 84.5853 33.2612 84.5176 33.3289C84.2468 33.6336 84.0944 33.786 84.0606 33.786C83.8236 34.0568 83.6882 34.2092 83.6543 34.243C83.5189 34.4461 83.4343 34.5646 83.4004 34.5985C83.4004 34.6323 83.4004 34.7 83.4004 34.8016C83.2989 34.8693 83.1973 34.9201 83.0957 34.9539C82.9942 34.9878 82.9603 35.0894 82.9942 35.2586C82.6556 35.2925 82.4356 35.4618 82.334 35.7664C81.9278 36.105 81.7077 36.3081 81.6739 36.3758C81.5046 36.3758 81.3692 36.3927 81.2676 36.4266C81.1999 36.4605 81.0983 36.4774 80.9629 36.4774C80.9629 36.7144 80.8952 36.8836 80.7598 36.9852C80.6582 37.0868 80.5736 37.2222 80.5059 37.3914C80.2351 37.5269 80.0658 37.6284 79.9981 37.6961C79.9642 37.73 79.9642 37.7808 79.9981 37.8485C79.8288 37.95 79.6257 38.0347 79.3887 38.1024C79.1517 38.1362 78.9825 38.2378 78.8809 38.4071C78.9486 38.0347 78.9655 37.7808 78.9317 37.6454C79.1687 37.4084 79.3041 37.256 79.3379 37.1883C79.3718 37.0868 79.4395 37.0021 79.5411 36.9344C79.6426 36.6297 79.7103 36.4435 79.7442 36.3758C79.8119 36.2743 79.8796 36.1896 79.9473 36.1219C80.015 36.0542 80.0658 35.9865 80.0996 35.9188C80.1674 35.8511 80.2012 35.7495 80.2012 35.6141C80.472 35.4448 80.6244 35.3433 80.6582 35.3094C80.7259 35.2417 80.7598 35.174 80.7598 35.1063C81.0645 34.8693 81.2338 34.7508 81.2676 34.7508C81.3015 34.717 81.3015 34.6662 81.2676 34.5985C81.5384 34.3276 81.7077 34.1414 81.7754 34.0399C81.877 33.9383 81.9616 33.8368 82.0293 33.7352C82.0632 33.4982 82.0801 33.2612 82.0801 33.0243C82.0801 32.7873 82.097 32.5672 82.1309 32.3641L81.8262 31.8055C81.5554 31.7717 81.3522 31.6701 81.2168 31.5008C81.1153 31.5685 80.9799 31.5685 80.8106 31.5008C80.6413 31.3993 80.489 31.3993 80.3536 31.5008C79.5749 31.3993 78.9317 31.5516 78.4239 31.9579C78.2884 32.0594 78.17 32.144 78.0684 32.2118C77.9668 32.2456 77.8991 32.3472 77.8653 32.5164C77.5944 32.5164 77.3744 32.6349 77.2051 32.8719C77.1036 33.2443 77.0189 33.4644 76.9512 33.5321C76.8835 33.5998 76.8835 33.6506 76.9512 33.6844C76.545 33.9552 76.3418 34.1414 76.3418 34.243C76.3418 34.3107 76.3249 34.3954 76.2911 34.4969C76.1556 34.7677 76.0541 34.9201 75.9864 34.9539C75.9187 34.9539 75.9187 34.9878 75.9864 35.0555C75.6817 35.2586 75.5124 35.394 75.4786 35.4618C75.4786 35.5295 75.4447 35.5464 75.377 35.5125C75.3431 35.6818 75.2754 35.8172 75.1739 35.9188C75.1062 36.0204 75.0384 36.1219 74.9707 36.2235C75.0046 36.4943 74.9707 36.6974 74.8692 36.8329C74.8015 36.9683 74.7507 37.1375 74.7168 37.3407C74.3783 37.7808 74.1752 38.0855 74.1075 38.2547C74.0397 38.3901 73.972 38.5594 73.9043 38.7625C73.8366 38.9657 73.8028 39.1688 73.8028 39.3719C73.8366 39.5412 73.8028 39.6597 73.7012 39.7274C73.6674 39.9982 73.6335 40.1675 73.5996 40.2352C73.5658 40.3029 73.515 40.3537 73.4473 40.3875C73.4134 40.4891 73.3796 40.6076 73.3457 40.743C73.3457 40.8446 73.3119 40.9123 73.2442 40.9461C73.278 41.2847 73.3119 41.5555 73.3457 41.7586C73.4134 41.9279 73.3796 42.0633 73.2442 42.1649C73.1765 42.5034 73.1088 42.7743 73.0411 42.9774C73.1088 43.1467 73.1426 43.3498 73.1426 43.5868C73.0411 43.7899 72.9903 44.0099 72.9903 44.2469C72.8549 44.5177 72.8041 44.7209 72.8379 44.8563C72.8718 44.9579 72.8718 45.0594 72.8379 45.161C72.8379 45.2964 72.821 45.4149 72.7871 45.5164C72.7533 45.618 72.7194 45.7196 72.6856 45.8211C72.6856 45.9565 72.6856 46.092 72.6856 46.2274C72.7194 46.3289 72.7194 46.4644 72.6856 46.6336C72.6856 46.8706 72.6687 47.1076 72.6348 47.3446C72.6009 47.5477 72.584 47.7508 72.584 47.9539C72.5502 48.2248 72.5502 48.394 72.584 48.4618C72.6179 48.4956 72.6348 48.5464 72.6348 48.6141L72.5332 49.4266Z" fill="#7ED957"/>
<path d="M73.5414 48.3998C73.643 48.7722 73.643 49.1276 73.5414 49.4662C73.4737 49.8047 73.5414 50.1263 73.7445 50.431C73.6768 50.6003 73.6768 50.7696 73.7445 50.9388C73.8123 51.0742 73.8461 51.2266 73.8461 51.3959C73.88 51.7006 73.9307 51.9037 73.9984 52.0052C74.1 52.1068 74.1846 52.2253 74.2524 52.3607C74.1169 52.5977 74.0492 52.75 74.0492 52.8177C74.0831 52.8854 74.1 52.9362 74.1 52.9701C73.8969 53.1732 73.7445 53.3086 73.643 53.3763C73.3044 53.681 73.0675 53.8503 72.932 53.8841L72.5766 54.4427C72.3057 54.7474 72.1534 54.8828 72.1195 54.849C72.1195 54.8151 72.0857 54.7982 72.018 54.7982C71.9503 54.8659 71.8656 54.9506 71.7641 55.0521C71.6964 55.1537 71.6287 55.2383 71.5609 55.306C71.087 55.4076 70.8162 55.4584 70.7484 55.4584C70.4099 55.2891 70.2237 55.1367 70.1899 55.0013C70.1899 54.8659 70.156 54.7305 70.0883 54.5951C70.1899 54.2565 70.2068 54.0196 70.1391 53.8841C70.0714 53.7826 70.0714 53.6641 70.1391 53.5287C70.1729 53.2578 70.1052 52.9532 69.9359 52.6146C70.0037 52.4453 70.0206 52.2591 69.9867 52.056C69.919 51.819 69.8682 51.6159 69.8344 51.4466C69.8344 51.2774 69.8682 51.142 69.9359 51.0404C69.8682 50.9727 69.8344 50.8711 69.8344 50.7357C69.8344 50.5664 69.8344 50.3972 69.8344 50.2279C69.7667 49.8216 69.7328 49.5677 69.7328 49.4662C69.7667 49.3646 69.7836 49.2631 69.7836 49.1615C69.7836 49.0599 69.7498 48.9245 69.682 48.7552C69.6482 48.586 69.6313 48.4167 69.6313 48.2474C69.5974 47.9427 69.5805 47.7396 69.5805 47.6381C69.6143 47.5026 69.6143 47.3672 69.5805 47.2318C69.5805 47.1641 69.5805 47.0795 69.5805 46.9779C69.5805 46.8763 69.5636 46.7578 69.5297 46.6224C69.5297 46.5547 69.4958 46.4532 69.4281 46.3177C69.3943 46.1823 69.3774 46.03 69.3774 45.8607C69.3774 45.4206 69.3435 45.1667 69.2758 45.099C69.2419 44.9974 69.225 44.8959 69.225 44.7943C69.3266 44.4896 69.3604 44.2865 69.3266 44.1849C69.2927 44.0834 69.3096 43.9987 69.3774 43.931C69.2758 43.7617 69.2081 43.5248 69.1742 43.2201C69.1742 42.9154 69.1912 42.6615 69.225 42.4584C69.1573 42.086 69.1234 41.849 69.1234 41.7474C69.1234 41.6459 69.1234 41.5274 69.1234 41.392C69.0219 41.1211 68.9711 40.9688 68.9711 40.9349C69.005 40.9011 69.0219 40.8503 69.0219 40.7826C68.8865 40.4102 68.8188 40.1901 68.8188 40.1224C68.8526 40.0209 68.8695 39.9362 68.8695 39.8685C68.6664 39.3607 68.5649 39.0052 68.5649 38.8021C68.5987 38.599 68.5649 38.4128 68.4633 38.2435C68.531 38.0742 68.5141 37.9219 68.4125 37.7865C68.3448 37.6511 68.294 37.5326 68.2602 37.431C68.1925 36.9232 68.0909 36.5847 67.9555 36.4154C67.8201 36.2461 67.7185 36.043 67.6508 35.806C67.5831 35.7383 67.5154 35.6706 67.4477 35.6029C67.38 35.5352 67.3123 35.4336 67.2445 35.2982C66.8383 35.2305 66.4998 35.2474 66.2289 35.349C65.9581 35.4167 65.7042 35.5352 65.4672 35.7045C65.1964 35.9414 64.9932 36.0769 64.8578 36.1107C64.7224 36.1446 64.6208 36.2292 64.5531 36.3646C64.4177 36.2969 64.2992 36.2292 64.1977 36.1615C64.0961 36.0599 63.9945 35.9753 63.893 35.9076C63.9268 35.806 63.9607 35.7045 63.9945 35.6029C64.0284 35.4675 64.0453 35.3321 64.0453 35.1966C64.113 35.0951 64.2146 35.0104 64.35 34.9427C64.4516 34.875 64.5193 34.7565 64.5531 34.5873C64.7563 34.4857 64.8748 34.4011 64.9086 34.3334C64.9086 34.2657 64.9425 34.1979 65.0102 34.1302C65.2471 33.8594 65.4164 33.724 65.518 33.724C65.7211 33.5209 65.8396 33.3854 65.8734 33.3177C65.9412 33.25 66.0089 33.2331 66.0766 33.267C66.4828 32.8946 66.8044 32.6407 67.0414 32.5052C67.3123 32.3698 67.5831 32.2683 67.8539 32.2006C67.9555 32.2006 68.057 32.2006 68.1586 32.2006C68.294 32.1667 68.3956 32.1836 68.4633 32.2513C68.8695 32.2513 69.0896 32.2852 69.1234 32.3529C69.1912 32.3867 69.2927 32.3698 69.4281 32.3021C69.5297 32.4375 69.699 32.5391 69.9359 32.6068C70.0037 32.7422 70.0544 32.8607 70.0883 32.9623C70.1221 33.0638 70.1729 33.1654 70.2406 33.267C70.3083 33.4024 70.393 33.5039 70.4945 33.5716C70.5961 33.6055 70.6807 33.6732 70.7484 33.7748C70.9516 34.0456 71.0531 34.2487 71.0531 34.3841C71.1886 34.7565 71.1886 34.9427 71.0531 34.9427C71.1208 35.0443 71.1886 35.1459 71.2563 35.2474C71.3578 35.349 71.4086 35.5013 71.4086 35.7045C71.5102 36.0769 71.5948 36.3985 71.6625 36.6693C71.7302 36.9401 71.8149 37.1602 71.9164 37.3295C72.018 37.7357 72.1026 37.9727 72.1703 38.0404L72.5766 37.5326C72.6443 37.431 72.6781 37.3295 72.6781 37.2279C72.712 37.0925 72.7628 36.9909 72.8305 36.9232C72.8982 36.8555 72.9659 36.7878 73.0336 36.7201C73.1352 36.6524 73.2198 36.5847 73.2875 36.517C73.4906 36.1784 73.5922 35.9753 73.5922 35.9076C73.5922 35.8399 73.643 35.7891 73.7445 35.7552C73.7784 35.586 73.8292 35.4675 73.8969 35.3998C73.9646 35.3321 74.0323 35.2474 74.1 35.1459C74.3031 34.9089 74.4386 34.6211 74.5063 34.2826C74.574 34.2149 74.6248 34.1302 74.6586 34.0287C74.7263 33.9271 74.794 33.8425 74.8617 33.7748C74.9294 33.6732 74.9971 33.5886 75.0649 33.5209C75.1326 33.4193 75.2003 33.3177 75.268 33.2162C75.505 32.8438 75.6573 32.6068 75.725 32.5052C75.7927 32.3698 75.8435 32.2175 75.8774 32.0482C76.0128 31.9128 76.1143 31.8282 76.182 31.7943C76.2498 31.7266 76.3005 31.642 76.3344 31.5404C76.6729 31.168 76.893 30.9479 76.9945 30.8802C77.13 30.7787 77.1977 30.6263 77.1977 30.4232C77.6378 30.2539 77.9255 30 78.0609 29.6615C78.3318 29.3568 78.5349 29.1875 78.6703 29.1537C78.8396 29.086 78.9242 28.9336 78.9242 28.6966C79.1274 28.7305 79.2628 28.7136 79.3305 28.6459C79.432 28.5443 79.5336 28.4597 79.6352 28.392C79.8383 28.4597 79.9737 28.4258 80.0414 28.2904C80.143 28.1211 80.2615 28.0026 80.3969 27.9349C80.9047 27.7995 81.2263 27.7149 81.3617 27.681C81.531 27.6133 81.7003 27.5625 81.8695 27.5287C82.2081 27.4271 82.462 27.3425 82.6313 27.2748C82.8005 27.2071 82.9529 27.1394 83.0883 27.0716C83.5284 27.0378 83.7992 27.0378 83.9008 27.0716C84.0024 27.0716 84.1208 27.0716 84.2563 27.0716C84.324 27.0716 84.4255 27.0716 84.5609 27.0716C84.7302 27.0378 84.8487 27.1055 84.9164 27.2748C85.1534 27.3086 85.3227 27.3933 85.4242 27.5287C85.5596 27.6302 85.712 27.7149 85.8813 27.7826C85.9151 27.9519 85.9998 28.0873 86.1352 28.1888C86.3044 28.2565 86.3721 28.4089 86.3383 28.6459C86.406 28.7136 86.4568 28.8321 86.4906 29.0013C86.5245 29.1706 86.5753 29.306 86.643 29.4076C86.643 29.6446 86.6091 29.7969 86.5414 29.8646C86.5076 29.8985 86.5414 29.9323 86.643 29.9662C86.643 30.3386 86.6261 30.5248 86.5922 30.5248C86.5922 30.4909 86.5753 30.5078 86.5414 30.5756C86.3044 30.9141 86.1859 31.168 86.1859 31.3373C85.949 31.5065 85.8136 31.642 85.7797 31.7435C85.712 31.9466 85.6612 32.0821 85.6274 32.1498C85.6274 32.1836 85.5935 32.2344 85.5258 32.3021C85.255 32.6068 85.1026 32.7591 85.0688 32.7591C84.8318 33.03 84.6964 33.1823 84.6625 33.2162C84.5271 33.4193 84.4425 33.5378 84.4086 33.5716C84.4086 33.6055 84.4086 33.6732 84.4086 33.7748C84.307 33.8425 84.2055 33.8933 84.1039 33.9271C84.0024 33.961 83.9685 34.0625 84.0024 34.2318C83.6638 34.2657 83.4438 34.4349 83.3422 34.7396C82.9359 35.0782 82.7159 35.2813 82.682 35.349C82.5128 35.349 82.3774 35.3659 82.2758 35.3998C82.2081 35.4336 82.1065 35.4506 81.9711 35.4506C81.9711 35.6875 81.9034 35.8568 81.768 35.9584C81.6664 36.0599 81.5818 36.1953 81.5141 36.3646C81.2432 36.5 81.074 36.6016 81.0063 36.6693C80.9724 36.7032 80.9724 36.7539 81.0063 36.8216C80.837 36.9232 80.6339 37.0078 80.3969 37.0756C80.1599 37.1094 79.9906 37.211 79.8891 37.3802C79.9568 37.0078 79.9737 36.7539 79.9399 36.6185C80.1768 36.3815 80.3123 36.2292 80.3461 36.1615C80.38 36.0599 80.4477 35.9753 80.5492 35.9076C80.6508 35.6029 80.7185 35.4167 80.7524 35.349C80.8201 35.2474 80.8878 35.1628 80.9555 35.0951C81.0232 35.0274 81.074 34.9597 81.1078 34.892C81.1755 34.8242 81.2094 34.7227 81.2094 34.5873C81.4802 34.418 81.6326 34.3164 81.6664 34.2826C81.7341 34.2149 81.768 34.1472 81.768 34.0795C82.0727 33.8425 82.2419 33.724 82.2758 33.724C82.3096 33.6901 82.3096 33.6394 82.2758 33.5716C82.5466 33.3008 82.7159 33.1146 82.7836 33.0131C82.8852 32.9115 82.9698 32.8099 83.0375 32.7084C83.0714 32.4714 83.0883 32.2344 83.0883 31.9974C83.0883 31.7604 83.1052 31.5404 83.1391 31.3373L82.8344 30.7787C82.5636 30.7448 82.3604 30.6433 82.225 30.474C82.1234 30.5417 81.988 30.5417 81.8188 30.474C81.6495 30.3724 81.4971 30.3724 81.3617 30.474C80.5831 30.3724 79.9399 30.5248 79.432 30.931C79.2966 31.0326 79.1781 31.1172 79.0766 31.1849C78.975 31.2188 78.9073 31.3203 78.8734 31.4896C78.6026 31.4896 78.3826 31.6081 78.2133 31.8451C78.1117 32.2175 78.0271 32.4375 77.9594 32.5052C77.8917 32.5729 77.8917 32.6237 77.9594 32.6576C77.5531 32.9284 77.35 33.1146 77.35 33.2162C77.35 33.2839 77.3331 33.3685 77.2992 33.4701C77.1638 33.7409 77.0623 33.8933 76.9945 33.9271C76.9268 33.9271 76.9268 33.961 76.9945 34.0287C76.6899 34.2318 76.5206 34.3672 76.4867 34.4349C76.4867 34.5026 76.4529 34.5196 76.3852 34.4857C76.3513 34.655 76.2836 34.7904 76.182 34.892C76.1143 34.9935 76.0466 35.0951 75.9789 35.1966C76.0128 35.4675 75.9789 35.6706 75.8774 35.806C75.8096 35.9414 75.7589 36.1107 75.725 36.3138C75.3865 36.7539 75.1833 37.0586 75.1156 37.2279C75.0479 37.3633 74.9802 37.5326 74.9125 37.7357C74.8448 37.9388 74.8109 38.142 74.8109 38.3451C74.8448 38.5144 74.8109 38.6328 74.7094 38.7006C74.6755 38.9714 74.6417 39.1407 74.6078 39.2084C74.574 39.2761 74.5232 39.3269 74.4555 39.3607C74.4216 39.4623 74.3878 39.5808 74.3539 39.7162C74.3539 39.8177 74.3201 39.8854 74.2524 39.9193C74.2862 40.2578 74.3201 40.5287 74.3539 40.7318C74.4216 40.9011 74.3878 41.0365 74.2524 41.1381C74.1846 41.4766 74.1169 41.7474 74.0492 41.9506C74.1169 42.1198 74.1508 42.3229 74.1508 42.5599C74.0492 42.7631 73.9984 42.9831 73.9984 43.2201C73.863 43.4909 73.8123 43.694 73.8461 43.8295C73.88 43.931 73.88 44.0326 73.8461 44.1341C73.8461 44.2696 73.8292 44.3881 73.7953 44.4896C73.7615 44.5912 73.7276 44.6927 73.6938 44.7943C73.6938 44.9297 73.6938 45.0651 73.6938 45.2006C73.7276 45.3021 73.7276 45.4375 73.6938 45.6068C73.6938 45.8438 73.6768 46.0808 73.643 46.3177C73.6091 46.5209 73.5922 46.724 73.5922 46.9271C73.5583 47.1979 73.5583 47.3672 73.5922 47.4349C73.6261 47.4688 73.643 47.5196 73.643 47.5873L73.5414 48.3998Z" fill="#03A241"/>
<path d="M155.665 56.0653V38.9053V18.8853H163.205V27.4133C163.205 28.1066 163.17 28.8346 163.101 29.5973C163.066 30.36 162.979 31.14 162.841 31.9373C162.737 32.7 162.615 33.48 162.477 34.2773C162.373 35.0746 162.251 35.872 162.113 36.6693H163.257C163.742 34.9013 164.349 33.376 165.077 32.0933C165.839 30.8106 166.81 29.8226 167.989 29.1293C169.167 28.4013 170.658 28.0373 172.461 28.0373C175.65 28.0373 178.042 29.164 179.637 31.4173C181.231 33.636 182.029 37.0506 182.029 41.6613V56.0653H174.489V42.8053C174.489 39.8933 174.055 37.744 173.189 36.3573C172.357 34.936 171.091 34.2253 169.393 34.2253C168.006 34.2253 166.862 34.6413 165.961 35.4733C165.059 36.3053 164.383 37.432 163.933 38.8533C163.482 40.24 163.222 41.8 163.153 43.5333V56.0653H155.665ZM194.605 56.7933C191.416 56.7933 189.007 55.7186 187.377 53.5693C185.783 51.3853 184.985 48.0746 184.985 43.6373V28.7653H192.473V42.7013C192.473 45.3706 192.872 47.364 193.669 48.6813C194.467 49.964 195.68 50.6053 197.309 50.6053C198.28 50.6053 199.129 50.3626 199.857 49.8773C200.585 49.392 201.209 48.716 201.729 47.8493C202.249 46.9826 202.631 45.96 202.873 44.7813C203.151 43.6026 203.307 42.3373 203.341 40.9853V28.7653H210.829V44.9373V56.0653H204.797L204.745 47.5373H203.809C203.289 49.6866 202.631 51.4546 201.833 52.8413C201.071 54.1933 200.083 55.1986 198.869 55.8573C197.691 56.4813 196.269 56.7933 194.605 56.7933ZM231.113 56.7933C229.38 56.7933 227.872 56.464 226.589 55.8053C225.306 55.112 224.266 54.124 223.469 52.8413C222.672 51.5586 222.117 49.9986 221.805 48.1613H220.817L220.765 56.0653H214.577V42.6493V18.8853H222.065V27.8293C222.065 28.6613 222.013 29.5626 221.909 30.5333C221.805 31.4693 221.649 32.44 221.441 33.4453C221.268 34.4506 221.077 35.4906 220.869 36.5653H222.013C222.464 34.832 223.07 33.3413 223.833 32.0933C224.63 30.8106 225.636 29.84 226.849 29.1813C228.062 28.488 229.501 28.1413 231.165 28.1413C233.453 28.1413 235.429 28.7306 237.093 29.9093C238.757 31.088 240.04 32.752 240.941 34.9013C241.877 37.0506 242.345 39.5986 242.345 42.5453C242.345 45.4226 241.894 47.936 240.993 50.0853C240.092 52.2 238.792 53.8466 237.093 55.0253C235.429 56.204 233.436 56.7933 231.113 56.7933ZM228.461 50.6573C229.709 50.6573 230.784 50.328 231.685 49.6693C232.586 48.976 233.28 48.0053 233.765 46.7573C234.25 45.5093 234.493 44.0533 234.493 42.3893C234.493 40.7253 234.25 39.2866 233.765 38.0733C233.314 36.86 232.656 35.9066 231.789 35.2133C230.922 34.52 229.865 34.1733 228.617 34.1733C227.785 34.1733 227.022 34.3293 226.329 34.6413C225.636 34.9533 225.029 35.3866 224.509 35.9413C223.989 36.4613 223.538 37.068 223.157 37.7613C222.776 38.42 222.498 39.1133 222.325 39.8413C222.152 40.5693 222.065 41.2626 222.065 41.9213V42.9093C222.065 43.7066 222.186 44.5733 222.429 45.5093C222.672 46.4106 223.053 47.26 223.573 48.0573C224.128 48.82 224.804 49.444 225.601 49.9293C226.398 50.4146 227.352 50.6573 228.461 50.6573Z" fill="#7ED957"/>
<path d="M156.673 56.0653V38.9053V18.8853H164.213V27.4133C164.213 28.1066 164.178 28.8346 164.109 29.5973C164.074 30.36 163.988 31.14 163.849 31.9373C163.745 32.7 163.624 33.48 163.485 34.2773C163.381 35.0746 163.26 35.872 163.121 36.6693H164.265C164.75 34.9013 165.357 33.376 166.085 32.0933C166.848 30.8106 167.818 29.8226 168.997 29.1293C170.176 28.4013 171.666 28.0373 173.469 28.0373C176.658 28.0373 179.05 29.164 180.645 31.4173C182.24 33.636 183.037 37.0506 183.037 41.6613V56.0653H175.497V42.8053C175.497 39.8933 175.064 37.744 174.197 36.3573C173.365 34.936 172.1 34.2253 170.401 34.2253C169.014 34.2253 167.87 34.6413 166.969 35.4733C166.068 36.3053 165.392 37.432 164.941 38.8533C164.49 40.24 164.23 41.8 164.161 43.5333V56.0653H156.673ZM195.614 56.7933C192.424 56.7933 190.015 55.7186 188.386 53.5693C186.791 51.3853 185.994 48.0746 185.994 43.6373V28.7653H193.482V42.7013C193.482 45.3706 193.88 47.364 194.678 48.6813C195.475 49.964 196.688 50.6053 198.318 50.6053C199.288 50.6053 200.138 50.3626 200.866 49.8773C201.594 49.392 202.218 48.716 202.738 47.8493C203.258 46.9826 203.639 45.96 203.882 44.7813C204.159 43.6026 204.315 42.3373 204.35 40.9853V28.7653H211.838V44.9373V56.0653H205.806L205.754 47.5373H204.818C204.298 49.6866 203.639 51.4546 202.842 52.8413C202.079 54.1933 201.091 55.1986 199.878 55.8573C198.699 56.4813 197.278 56.7933 195.614 56.7933ZM232.121 56.7933C230.388 56.7933 228.88 56.464 227.597 55.8053C226.315 55.112 225.275 54.124 224.477 52.8413C223.68 51.5586 223.125 49.9986 222.813 48.1613H221.825L221.773 56.0653H215.585V42.6493V18.8853H223.073V27.8293C223.073 28.6613 223.021 29.5626 222.917 30.5333C222.813 31.4693 222.657 32.44 222.449 33.4453C222.276 34.4506 222.085 35.4906 221.877 36.5653H223.021C223.472 34.832 224.079 33.3413 224.841 32.0933C225.639 30.8106 226.644 29.84 227.857 29.1813C229.071 28.488 230.509 28.1413 232.173 28.1413C234.461 28.1413 236.437 28.7306 238.101 29.9093C239.765 31.088 241.048 32.752 241.949 34.9013C242.885 37.0506 243.353 39.5986 243.353 42.5453C243.353 45.4226 242.903 47.936 242.001 50.0853C241.1 52.2 239.8 53.8466 238.101 55.0253C236.437 56.204 234.444 56.7933 232.121 56.7933ZM229.469 50.6573C230.717 50.6573 231.792 50.328 232.693 49.6693C233.595 48.976 234.288 48.0053 234.773 46.7573C235.259 45.5093 235.501 44.0533 235.501 42.3893C235.501 40.7253 235.259 39.2866 234.773 38.0733C234.323 36.86 233.664 35.9066 232.797 35.2133C231.931 34.52 230.873 34.1733 229.625 34.1733C228.793 34.1733 228.031 34.3293 227.337 34.6413C226.644 34.9533 226.037 35.3866 225.517 35.9413C224.997 36.4613 224.547 37.068 224.165 37.7613C223.784 38.42 223.507 39.1133 223.333 39.8413C223.16 40.5693 223.073 41.2626 223.073 41.9213V42.9093C223.073 43.7066 223.195 44.5733 223.437 45.5093C223.68 46.4106 224.061 47.26 224.581 48.0573C225.136 48.82 225.812 49.444 226.609 49.9293C227.407 50.4146 228.36 50.6573 229.469 50.6573Z" fill="#03A241"/>
</svg>
