<svg width="24" height="24" viewBox="0 0 24 24" fill="none" xmlns="http://www.w3.org/2000/svg">
<g clip-path="url(#clip0_1031_3053)">
<path fill-rule="evenodd" clip-rule="evenodd" d="M21.62 18.94C21.3624 19.1238 21.0954 19.294 20.82 19.45C20.5452 19.5979 20.2613 19.7282 19.97 19.84L18.56 20.27L17.47 20.39C17.1658 20.4036 16.8609 20.3868 16.56 20.34C16.3141 20.3092 16.0801 20.2163 15.88 20.07C15.39 19.69 15.31 19.24 14.95 18.92C14.5944 18.6277 14.1586 18.4499 13.7 18.41C12.999 18.3226 12.2872 18.3979 11.62 18.63C10.9337 18.892 10.2655 19.1993 9.62 19.55C9.06895 19.8648 8.4602 20.0654 7.83 20.14H7.4C7.21374 20.1436 7.03018 20.0951 6.87 20C6.75614 19.8526 6.66822 19.6869 6.61 19.51C6.45254 19.2182 6.21713 18.9758 5.93 18.81C5.43162 18.5624 4.86381 18.4919 4.32 18.61C3.6469 18.7547 2.99262 18.9761 2.37 19.27L0.93 20C0.851761 20.0451 0.794637 20.1194 0.771195 20.2066C0.747753 20.2938 0.759913 20.3868 0.805 20.465C0.850087 20.5432 0.924407 20.6004 1.01161 20.6238C1.09882 20.6472 1.19176 20.6351 1.27 20.59L2.66 20C3.23544 19.7693 3.83636 19.6082 4.45 19.52C4.77129 19.4628 5.10247 19.5156 5.39 19.67C5.5713 19.8032 5.69617 19.9994 5.74 20.22C5.80625 20.4138 5.90798 20.5935 6.04 20.75C6.34754 21.0762 6.76358 21.2789 7.21 21.32H7.91C9.47 21.23 10.65 20.32 12.03 19.83C12.5147 19.648 13.0354 19.5829 13.55 19.64C13.7669 19.646 13.978 19.7118 14.16 19.83C14.55 20.14 14.67 20.6 15.16 20.97C15.4636 21.1661 15.8038 21.2988 16.16 21.36C16.608 21.4201 17.062 21.4201 17.51 21.36L18.77 21.15C19.04 21.08 19.3 20.99 19.56 20.9C19.82 20.81 20.07 20.7 20.31 20.59C20.6261 20.4413 20.9333 20.2744 21.23 20.09C21.5218 19.9106 21.8023 19.7136 22.07 19.5C22.1114 19.4703 22.1464 19.4326 22.1729 19.3891C22.1994 19.3457 22.2169 19.2973 22.2244 19.2469C22.2318 19.1966 22.2291 19.1452 22.2163 19.0959C22.2035 19.0466 22.181 19.0004 22.15 18.96C22.0805 18.8905 21.9872 18.8497 21.8889 18.846C21.7906 18.8423 21.6946 18.8759 21.62 18.94Z" fill="white"/>
<path fill-rule="evenodd" clip-rule="evenodd" d="M9.66 13.17C9.37 13.33 9.08 13.52 8.8 13.71C8.52 13.9 8.2 14.17 7.92 14.42C7.26361 15.0083 6.66121 15.6542 6.12 16.35C6.07565 16.3845 6.03927 16.4282 6.01337 16.4781C5.98747 16.528 5.97265 16.5828 5.96994 16.639C5.96722 16.6951 5.97667 16.7512 5.99763 16.8033C6.0186 16.8554 6.05059 16.9024 6.0914 16.9411C6.13222 16.9797 6.1809 17.0091 6.23412 17.0271C6.28734 17.0452 6.34383 17.0515 6.39973 17.0457C6.45563 17.0399 6.50962 17.0221 6.55799 16.9935C6.60636 16.9649 6.64799 16.9262 6.68 16.88C7.03 16.57 7.4 16.28 7.79 15.99C8.18 15.7 8.57 15.45 8.97 15.18L10.14 14.36L11.29 13.49C11.83 12.85 10.68 12.47 9.66 13.17Z" fill="white"/>
<path fill-rule="evenodd" clip-rule="evenodd" d="M23.55 7.43C23.2621 7.35034 22.9579 7.35034 22.67 7.43C21.92 7.6 20.81 8.12 20.45 8.22C18.6 8.79 16.4 10.06 14.27 10.67C13.4516 10.937 12.5869 11.0323 11.73 10.95C10.6117 10.7791 9.50842 10.5216 8.42999 10.18C7.98998 10.05 7.55998 9.9 7.12998 9.76C7.12998 9.76 7.21998 9.76 7.23998 9.66C7.49583 9.19207 7.78666 8.74413 8.10998 8.32C8.42156 7.89598 8.75536 7.48874 9.10998 7.1C9.68998 6.45 10.32 5.4 11 4.55C11.06 4.46 11.14 4.41 11.2 4.33C11.1887 4.94749 11.2121 5.56513 11.27 6.18C11.27 6.69 11.42 7.18 11.51 7.71C11.6809 8.46405 11.7979 9.22932 11.86 10C11.8545 10.0502 11.8593 10.101 11.8741 10.1493C11.889 10.1975 11.9136 10.2422 11.9464 10.2807C11.9791 10.3191 12.0195 10.3504 12.0648 10.3726C12.1101 10.3948 12.1595 10.4076 12.21 10.41C12.2607 10.4155 12.312 10.4107 12.3609 10.396C12.4097 10.3812 12.4551 10.3568 12.4943 10.3241C12.5335 10.2915 12.5657 10.2513 12.589 10.2059C12.6123 10.1605 12.6263 10.1109 12.63 10.06C12.7886 9.1558 12.8323 8.23517 12.76 7.32C12.7117 6.78509 12.6281 6.25394 12.51 5.73C12.39 5.24 12.25 4.73 12.12 4.29L12.42 4.66C12.8265 5.08621 13.2104 5.5335 13.57 6C14.45 7.15 15.24 8.38 16.13 9.5C16.1597 9.54138 16.1974 9.57636 16.2408 9.60288C16.2843 9.6294 16.3327 9.64691 16.383 9.65437C16.4334 9.66183 16.4848 9.65909 16.5341 9.64632C16.5834 9.63354 16.6296 9.61099 16.67 9.58C16.711 9.55125 16.7458 9.51445 16.7722 9.47185C16.7986 9.42924 16.8161 9.38172 16.8236 9.33215C16.8311 9.28259 16.8284 9.23202 16.8158 9.18352C16.8031 9.13502 16.7807 9.08959 16.75 9.05C16 7.9 15.27 6.61 14.49 5.4C14.152 4.85792 13.7814 4.33695 13.38 3.84C13.0089 3.41876 12.5893 3.04282 12.13 2.72C11.978 2.63224 11.8055 2.58603 11.63 2.58603C11.4544 2.58603 11.282 2.63224 11.13 2.72C10.6992 3.01473 10.3178 3.37587 9.99998 3.79C9.35998 4.67 8.85999 5.79 8.33998 6.48C8.00998 6.93 7.68998 7.39 7.39998 7.87C7.09754 8.35536 6.83341 8.86357 6.60998 9.39C6.58482 9.46118 6.58482 9.53883 6.60998 9.61C5.53998 9.25 4.47998 8.89 3.44998 8.61C2.59273 8.33056 1.71272 8.12646 0.819984 8C0.319984 8 0.0999845 8.28 0.0699845 8.49C-0.0714192 9.67597 0.0690546 10.8786 0.479984 12C1.05429 13.5857 1.79863 15.1046 2.69998 16.53C2.7464 16.6082 2.82199 16.6648 2.91013 16.6873C2.99827 16.7098 3.09175 16.6964 3.16998 16.65C3.24822 16.6036 3.30482 16.528 3.32732 16.4399C3.34983 16.3517 3.3364 16.2582 3.28998 16.18C2.45702 14.7736 1.78607 13.2774 1.28998 11.72C1.01538 10.8412 0.916836 9.91692 0.999985 9C1.72327 9.14943 2.43505 9.34993 3.12998 9.6C4.71998 10.16 6.37998 10.86 8.06998 11.4C9.29259 11.8115 10.5468 12.1226 11.82 12.33C12.7783 12.2917 13.73 12.1543 14.66 11.92C16.79 11.28 18.97 9.92 20.82 9.35C21.09 9.26 21.82 8.92 22.46 8.67L22.84 8.52C22.8456 8.58655 22.8456 8.65346 22.84 8.72C21.7015 11.5318 20.3196 14.2387 18.71 16.81C18.6772 16.8481 18.6521 16.8923 18.6364 16.94C18.6206 16.9878 18.6144 17.0381 18.6181 17.0883C18.6219 17.1384 18.6354 17.1874 18.658 17.2323C18.6807 17.2772 18.7119 17.3172 18.75 17.35C18.8269 17.4163 18.927 17.4493 19.0283 17.4418C19.1295 17.4343 19.2237 17.3869 19.29 17.31C20.8407 14.9986 22.2179 12.5752 23.41 10.06C23.7381 9.43484 23.9578 8.7586 24.06 8.06C24.0608 7.91226 24.0104 7.76881 23.9174 7.65398C23.8245 7.53914 23.6946 7.46001 23.55 7.43Z" fill="white"/>
<path fill-rule="evenodd" clip-rule="evenodd" d="M15.54 14.56C15.2612 14.2051 14.9571 13.8709 14.63 13.56L14.57 13.51C13.21 12.75 12.77 12.87 13.14 13.73L13.54 14.24C13.71 14.45 13.9 14.65 14.09 14.85L14.7 15.43C15.19 15.87 15.7 16.27 16.25 16.67C16.2846 16.7069 16.3264 16.7364 16.3729 16.7565C16.4193 16.7766 16.4694 16.787 16.52 16.787C16.5706 16.787 16.6207 16.7766 16.6671 16.7565C16.7136 16.7364 16.7554 16.7069 16.79 16.67C16.8257 16.6347 16.854 16.5926 16.8733 16.5463C16.8927 16.4999 16.9026 16.4502 16.9026 16.4C16.9026 16.3498 16.8927 16.3001 16.8733 16.2537C16.854 16.2074 16.8257 16.1653 16.79 16.13C16.34 15.62 16 15.08 15.54 14.56Z" fill="white"/>
</g>
<defs>
<clipPath id="clip0_1031_3053">
<rect width="24" height="24" fill="white"/>
</clipPath>
</defs>
</svg>
