<svg width="24" height="24" viewBox="0 0 24 24" fill="none" xmlns="http://www.w3.org/2000/svg">
<g clip-path="url(#clip0_1048_7314)">
<path fill-rule="evenodd" clip-rule="evenodd" d="M4.83002 5.18C4.83002 5.98 4.98002 6.76 5.03002 7.55C5.02453 7.60546 5.0304 7.66146 5.04728 7.71457C5.06416 7.76768 5.09169 7.8168 5.12819 7.85892C5.16469 7.90103 5.20939 7.93526 5.25957 7.95952C5.30975 7.98378 5.36434 7.99755 5.42002 8C5.5264 8.00027 5.62892 7.96016 5.70688 7.88777C5.78484 7.81538 5.83242 7.71611 5.84002 7.61C6.00002 6.81 6.06002 6 6.12002 5.26V4.8H6.50002H9.01002C9.06337 4.80549 9.11728 4.8002 9.16855 4.78444C9.21981 4.76868 9.26738 4.74277 9.30843 4.70825C9.34948 4.67373 9.38317 4.63131 9.40749 4.58351C9.43182 4.53571 9.44628 4.4835 9.45002 4.43C9.45875 4.32851 9.42844 4.22751 9.36526 4.1476C9.30208 4.06769 9.21079 4.0149 9.11002 4C8.29002 3.83 7.45002 3.67 6.59002 3.56H6.15002V3.34C6.09002 2.5 6.00002 1.74 5.90002 0.999998C5.90704 0.950347 5.9036 0.899777 5.88994 0.851529C5.87628 0.803282 5.85268 0.758421 5.82067 0.719821C5.78866 0.681222 5.74894 0.649735 5.70406 0.627379C5.65917 0.605023 5.61011 0.592291 5.56002 0.589998C5.46619 0.587248 5.375 0.621254 5.30589 0.684766C5.23677 0.748278 5.19519 0.836275 5.19002 0.929998C5.05002 1.77 4.89002 2.6 4.83002 3.44H4.39002C3.53412 3.51371 2.68287 3.63389 1.84002 3.8C1.78841 3.79131 1.73553 3.79397 1.68505 3.80781C1.63458 3.82164 1.58773 3.84632 1.54777 3.88011C1.50781 3.91391 1.47569 3.95601 1.45367 4.00348C1.43164 4.05096 1.42023 4.10266 1.42023 4.155C1.42023 4.20733 1.43164 4.25904 1.45367 4.30652C1.47569 4.35399 1.50781 4.39609 1.54777 4.42988C1.58773 4.46368 1.63458 4.48835 1.68505 4.50219C1.73553 4.51603 1.78841 4.51869 1.84002 4.51C2.66002 4.56 3.48002 4.67 4.33002 4.74H4.78002C4.83002 4.91 4.82002 5.05 4.83002 5.18Z" fill="white"/>
<path fill-rule="evenodd" clip-rule="evenodd" d="M22.36 4.76C22.2929 4.69524 22.2033 4.65904 22.11 4.65904C22.0168 4.65904 21.9272 4.69524 21.86 4.76C21.0925 5.47253 20.3616 6.22349 19.67 7.01C19.27 7.49 18.91 8.01 18.56 8.51C18.11 9.18 17.7 9.86 17.27 10.51C17.212 10.4588 17.1374 10.4304 17.06 10.43C16.54 10.12 16.06 9.77 15.46 9.43C14.86 9.09 14.46 8.8 14 8.52C13.32 8.13 12.66 7.82 12 7.52C12.33 6.83 12.66 6.14 13 5.44C13.16 5.07 13.31 4.7 13.45 4.32C13.59 3.94 13.72 3.57 13.84 3.18C14.11 2.28 14.32 1.38 14.59 0.470004C14.6078 0.426736 14.6166 0.380356 14.6161 0.333603C14.6156 0.286849 14.6058 0.24067 14.5871 0.197791C14.5685 0.154912 14.5414 0.116204 14.5076 0.0839505C14.4737 0.0516973 14.4338 0.0265535 14.39 0.0100038C14.3474 -0.00798756 14.3016 -0.0173408 14.2553 -0.0175146C14.209 -0.0176884 14.1632 -0.00867921 14.1204 0.00899141C14.0776 0.026662 14.0388 0.0526431 14.0061 0.0854305C13.9734 0.118218 13.9476 0.15716 13.93 0.200004C13.47 1.04 13.01 1.86 12.62 2.73C12.4495 3.09474 12.2992 3.46865 12.17 3.85C12.03 4.23 11.91 4.61 11.79 5C10.79 8.39 11.01 7.29 11.07 8C10.3303 8.23431 9.60841 8.52172 8.91005 8.86C7.78214 9.34144 6.71752 9.95939 5.74005 10.7C5.2902 11.1774 4.98806 11.7748 4.87005 12.42C4.7323 13.2424 4.68535 14.0774 4.73005 14.91C4.73005 16.08 4.88005 17.22 5.04005 18.36C5.27005 20.06 5.62005 21.73 6.04005 23.42C6.05952 23.523 6.11863 23.6142 6.20465 23.674C6.29067 23.7339 6.39674 23.7575 6.50005 23.74C6.53436 23.839 6.6053 23.9212 6.69829 23.9695C6.79128 24.0179 6.89926 24.0288 7.00005 24C8.65005 23.47 10.27 22.93 11.85 22.29C12.92 21.86 13.96 21.37 15 20.83C15.7157 20.4414 16.3864 19.9753 17 19.44C17.5026 19.018 17.871 18.4584 18.06 17.83C18.2088 16.6246 18.2088 15.4054 18.06 14.2C17.9929 13.2994 17.8491 12.4061 17.63 11.53C17.6968 11.4953 17.7497 11.4389 17.78 11.37C17.78 11.37 17.78 11.28 17.78 11.23C18.35 10.63 18.92 10.04 19.46 9.4C19.72 9.11 19.96 8.81 20.2 8.5C20.44 8.19 20.66 7.88 20.88 7.56C21.38 6.8 21.82 6.02 22.33 5.26C22.3666 5.23029 22.3965 5.19331 22.418 5.15141C22.4395 5.10951 22.4521 5.0636 22.4549 5.0166C22.4577 4.96959 22.4507 4.92251 22.4344 4.87834C22.4181 4.83417 22.3928 4.79387 22.36 4.76ZM16.83 17.49C16.691 17.8609 16.4522 18.1862 16.14 18.43C15.5654 18.8914 14.9456 19.2934 14.29 19.63C13.08 20.35 11.84 20.97 10.58 21.56C7.91005 22.82 7.81005 23.06 6.83005 22.77C6.60005 22.7 6.58005 21.6 6.53005 21.3C6.44005 20.72 6.38005 20.15 6.38005 20.15C6.38005 19.79 6.29005 19.43 6.26005 19.07C6.12458 17.6809 6.06449 16.2856 6.08005 14.89C6.04274 14.1578 6.08297 13.4237 6.20005 12.7C6.25415 12.3036 6.41681 11.9298 6.67005 11.62C7.65844 10.7526 8.75001 10.0103 9.92005 9.41C10.5545 9.05873 11.2251 8.7771 11.92 8.57C12.28 8.88 12.62 9.19 13.01 9.49C13.4 9.79 13.62 9.91 13.93 10.1C14.24 10.29 14.58 10.47 14.93 10.64C15.5799 10.944 16.2478 11.2078 16.93 11.43C17.0742 12.1309 17.1479 12.8444 17.15 13.56C17.214 14.8783 17.1064 16.1994 16.83 17.49Z" fill="white"/>
<path fill-rule="evenodd" clip-rule="evenodd" d="M12.57 12.06C12.3185 11.9883 12.0606 11.9414 11.8 11.92C11.5406 11.895 11.2794 11.895 11.02 11.92C10.8411 11.9345 10.6637 11.9646 10.49 12.01C10.3083 12.0583 10.131 12.1219 9.96001 12.2C9.51829 12.357 9.15472 12.6792 8.94581 13.0989C8.73691 13.5186 8.69898 14.0029 8.84001 14.45C9.10796 15.1534 9.57325 15.7645 10.18 16.21C9.67001 16.79 9.18001 17.36 8.65001 18.02C8.39001 18.37 8.15001 18.73 7.92001 19.1C7.69001 19.47 7.49001 19.86 7.30001 20.25C7.24001 20.37 7.20001 20.49 7.15001 20.61C6.90001 22.84 7.59001 21.95 8.15001 21.36C8.32001 21.08 8.51001 20.81 8.68001 20.53C8.98001 20.06 9.28001 19.53 9.57001 19.1C10.06 18.26 10.49 17.44 10.93 16.66C11 16.66 11.06 16.73 11.12 16.75C11.2063 16.7873 11.3039 16.7894 11.3917 16.7558C11.4795 16.7221 11.5507 16.6554 11.59 16.57C11.83 16.03 10.51 15.7 10.04 14.57C9.98105 14.4647 9.94732 14.3472 9.94145 14.2267C9.93559 14.1062 9.95776 13.986 10.0062 13.8755C10.0547 13.765 10.1281 13.6673 10.2207 13.59C10.3133 13.5127 10.4226 13.4579 10.54 13.43L11.17 13.29C11.353 13.2751 11.537 13.2751 11.72 13.29C11.8956 13.3054 12.0695 13.3355 12.24 13.38C12.5831 13.472 12.8852 13.677 13.0975 13.9619C13.3098 14.2468 13.4199 14.5948 13.41 14.95C13.4217 15.1346 13.3925 15.3196 13.3246 15.4917C13.2567 15.6638 13.1517 15.8189 13.0171 15.9458C12.8825 16.0728 12.7216 16.1685 12.5458 16.2263C12.37 16.284 12.1837 16.3024 12 16.28C11.9006 16.2844 11.8062 16.3248 11.7344 16.3937C11.6626 16.4625 11.6183 16.5551 11.6097 16.6543C11.6012 16.7534 11.6289 16.8522 11.6879 16.9324C11.7468 17.0126 11.8328 17.0686 11.93 17.09C12.2392 17.1465 12.5569 17.1352 12.8613 17.0569C13.1656 16.9786 13.4494 16.8351 13.6928 16.6363C13.9363 16.4376 14.1336 16.1883 14.2713 15.9058C14.4089 15.6233 14.4836 15.3142 14.49 15C14.5477 14.3653 14.3896 13.7298 14.0411 13.1962C13.6927 12.6626 13.1743 12.2623 12.57 12.06Z" fill="white"/>
</g>
<defs>
<clipPath id="clip0_1048_7314">
<rect width="24" height="24" fill="white"/>
</clipPath>
</defs>
</svg>
