<svg width="24" height="24" viewBox="0 0 24 24" fill="none" xmlns="http://www.w3.org/2000/svg">
<path d="M18.74 11C18.0844 10.2523 17.365 9.56305 16.59 8.93998C15.59 8.08998 14.5 7.22998 13.47 6.31998C13.03 5.93998 12.61 5.54998 12.21 5.13998C12.1176 5.09094 12.0146 5.06531 11.91 5.06531C11.8054 5.06531 11.7024 5.09094 11.61 5.13998C10.94 5.81998 10.27 6.48998 9.61 7.13998C8.95 7.78998 8.2 8.44998 7.49 9.05998C6.57247 9.80438 5.75562 10.6649 5.06 11.62C4.91039 11.8164 4.82446 12.0539 4.81373 12.3006C4.80301 12.5473 4.86801 12.7913 5 13C5.11 13.14 6.7 14.74 8.35 16.31C9.85 17.73 11.35 19.13 11.84 19.44C11.8725 19.4737 11.9119 19.4998 11.9556 19.5166C11.9992 19.5334 12.046 19.5404 12.0927 19.5372C12.1394 19.5339 12.1847 19.5205 12.2256 19.4978C12.2665 19.4751 12.302 19.4437 12.3294 19.4058C12.3569 19.368 12.3757 19.3246 12.3846 19.2786C12.3935 19.2327 12.3922 19.1854 12.3808 19.14C12.3694 19.0947 12.3482 19.0523 12.3187 19.0161C12.2892 18.9798 12.2521 18.9504 12.21 18.93C11.92 18.71 11.21 17.93 10.21 17.02C8.42 15.17 6.06 12.68 5.82 12.38C5.82 12.32 5.92 12.23 5.96 12.16C6.16137 11.8333 6.39594 11.5284 6.66 11.25C7.14 10.71 7.66 10.16 8.11 9.75998C8.56 9.35998 9.2 8.65998 9.73 8.08998C10.47 7.28998 11.19 6.46998 11.91 5.63998C12.39 6.17998 12.91 6.70998 13.42 7.22998C14.26 8.05998 15.13 8.85998 15.93 9.65998C16.35 10.07 16.88 10.54 17.32 10.98C17.5769 11.1959 17.8114 11.4371 18.02 11.7C17.97 11.78 17.52 12.31 16.91 13.06C16.12 14.06 15.08 15.31 14.17 16.38C13.6294 17.0451 13.0483 17.6763 12.43 18.27C12.3879 18.2904 12.3508 18.3198 12.3213 18.3561C12.2918 18.3923 12.2706 18.4347 12.2592 18.48C12.2478 18.5254 12.2465 18.5727 12.2554 18.6186C12.2643 18.6646 12.2831 18.708 12.3106 18.7458C12.338 18.7837 12.3735 18.8151 12.4144 18.8378C12.4553 18.8605 12.5007 18.8739 12.5473 18.8772C12.594 18.8804 12.6408 18.8734 12.6844 18.8566C12.7281 18.8398 12.7675 18.8137 12.8 18.78C13.9324 17.7953 15.0012 16.7399 16 15.62C17.48 14.02 18.88 12.38 19 12.23C19.0861 12.0227 19.1073 11.7942 19.0609 11.5746C19.0145 11.355 18.9026 11.1547 18.74 11Z" fill="white"/>
<path d="M22.93 16.61C23.7507 15.2983 24.1032 13.7475 23.93 12.21C23.7004 10.4663 22.9512 8.83203 21.78 7.51997C21.732 7.4711 21.6677 7.44153 21.5994 7.43687C21.531 7.4322 21.4633 7.45276 21.4091 7.49466C21.3549 7.53655 21.3179 7.59687 21.3052 7.6642C21.2924 7.73152 21.3048 7.80118 21.34 7.85997C22.3053 9.14766 22.8814 10.685 23 12.29C23.0404 12.9608 22.9866 13.6341 22.84 14.29C22.6914 14.9337 22.4523 15.5532 22.13 16.13C21.3748 17.3998 20.2851 18.4376 18.98 19.13C19.082 18.9057 19.1591 18.671 19.21 18.43C19.26 18.1 19.3 17.78 19.33 17.43C19.36 17.08 19.4 16.43 19.4 15.98C19.4056 15.9073 19.3826 15.8352 19.3359 15.7792C19.2893 15.7232 19.2225 15.6876 19.15 15.68C19.1137 15.6758 19.077 15.6791 19.042 15.6895C19.0071 15.7 18.9746 15.7174 18.9465 15.7408C18.9185 15.7642 18.8955 15.793 18.8789 15.8255C18.8623 15.858 18.8525 15.8936 18.85 15.93C18.79 16.32 18.72 16.7 18.63 17.08C18.54 17.46 18.45 17.82 18.33 18.2C18.2387 18.418 18.1247 18.6258 17.99 18.82C17.8423 19.0771 17.7892 19.3778 17.84 19.67C17.8842 19.8407 17.9692 19.9981 18.0877 20.1287C18.2061 20.2593 18.3545 20.3593 18.52 20.42L18.87 20.57L19.45 20.73L20.63 20.91H22.49C22.7313 20.9098 22.9721 20.9299 23.21 20.97C23.2921 20.9886 23.3782 20.9752 23.4507 20.9324C23.5232 20.8897 23.5766 20.8208 23.6 20.74C23.6183 20.6592 23.6046 20.5744 23.5617 20.5036C23.5188 20.4327 23.4501 20.3812 23.37 20.36C23.1911 20.302 23.0068 20.2619 22.82 20.24C22.15 20.13 21.22 20.06 20.82 19.96L19.74 19.69L19.46 19.61C20.8715 18.9495 22.0725 17.9111 22.93 16.61Z" fill="white"/>
<path d="M5.2 8C5.26 7.61 5.33 7.23 5.42 6.85C5.50002 6.4716 5.60016 6.09774 5.72 5.73C5.81135 5.51202 5.9253 5.30422 6.06 5.11C6.2077 4.85287 6.26077 4.55216 6.21 4.26C6.16577 4.08931 6.08079 3.9319 5.96236 3.80127C5.84392 3.67064 5.69556 3.57069 5.53 3.51L5.18 3.36L4.6 3.23L3.42 3.05C3 3 2.22 3 1.56 3C1.32042 3.02009 1.07958 3.02009 0.840002 3C0.757924 2.98138 0.671832 2.99482 0.599336 3.03757C0.52684 3.08033 0.473419 3.14916 0.450002 3.23C0.439583 3.27007 0.437296 3.31183 0.443276 3.35279C0.449256 3.39376 0.463382 3.43312 0.48482 3.46854C0.506258 3.50396 0.534574 3.53472 0.568097 3.55902C0.601619 3.58332 0.63967 3.60065 0.680002 3.61C0.85896 3.66793 1.04318 3.70812 1.23 3.73C1.9 3.84 2.83 3.91 3.23 4.01L4.31 4.28L4.59 4.36C3.15639 5.02094 1.93688 6.07069 1.07 7.39C0.246339 8.70042 -0.106365 10.2523 0.0700016 11.79C0.299607 13.5337 1.04877 15.1679 2.22 16.48C2.24032 16.514 2.2676 16.5432 2.30005 16.5659C2.3325 16.5885 2.36938 16.604 2.40826 16.6114C2.44714 16.6187 2.48714 16.6178 2.52562 16.6085C2.56409 16.5993 2.60018 16.582 2.63149 16.5578C2.6628 16.5336 2.68862 16.5031 2.70726 16.4682C2.72591 16.4333 2.73694 16.3948 2.73963 16.3553C2.74233 16.3158 2.73662 16.2762 2.7229 16.2391C2.70917 16.202 2.68773 16.1682 2.66 16.14C1.72323 14.8434 1.17518 13.3068 1.08 11.71C1.0396 11.0391 1.09346 10.3659 1.24 9.71C1.38185 9.07812 1.6107 8.46898 1.92 7.9C2.66798 6.61178 3.75833 5.55605 5.07 4.85C4.96806 5.07426 4.89093 5.30899 4.84 5.55C4.84 5.88 4.75 6.20001 4.72 6.55C4.69 6.9 4.65 7.55 4.65 8C4.64224 8.0405 4.64353 8.08221 4.65376 8.12216C4.66399 8.16211 4.68292 8.1993 4.70919 8.23108C4.73546 8.26286 4.76843 8.28845 4.80573 8.30601C4.84304 8.32358 4.88377 8.33268 4.925 8.33268C4.96624 8.33268 5.00696 8.32358 5.04427 8.30601C5.08157 8.28845 5.11454 8.26286 5.14081 8.23108C5.16709 8.1993 5.18601 8.16211 5.19624 8.12216C5.20648 8.08221 5.20776 8.0405 5.2 8Z" fill="white"/>
</svg>
