<svg width="24" height="24" viewBox="0 0 24 24" fill="none" xmlns="http://www.w3.org/2000/svg">
<g clip-path="url(#clip0_1033_3797)">
<path d="M7.17997 15.21C7.62997 13.83 8.71997 12.03 8.42998 10.41C8.19998 9.15001 6.11997 9.84001 5.47997 9.79001C3.59997 9.66001 3.57997 8.22001 3.99997 6.36001C4.44624 4.48293 5.00049 2.63319 5.65997 0.820008C5.6865 0.749725 5.68401 0.671786 5.65307 0.603335C5.62212 0.534884 5.56526 0.481529 5.49497 0.455008C5.42469 0.428486 5.34675 0.43097 5.2783 0.461914C5.20985 0.492857 5.1565 0.549725 5.12997 0.620008C3.48997 4.94001 0.839974 10.41 5.38997 10.86C5.63997 10.86 7.15997 10.68 7.38997 10.69C7.55997 11.86 6.61997 13.69 6.24997 14.91C5.45997 17.62 5.04997 20.34 4.46997 23.11C4.45141 23.1936 4.46679 23.281 4.51274 23.3532C4.55868 23.4254 4.63143 23.4764 4.71497 23.495C4.79852 23.5136 4.88601 23.4982 4.95822 23.4522C5.03042 23.4063 5.08141 23.3336 5.09997 23.25C5.76997 20.55 6.28997 17.83 7.17997 15.21Z" fill="white"/>
<path d="M13.73 2.45002C13.36 3.54002 12.58 4.71002 13.05 5.15002C14.21 6.24002 17.45 5.64002 17.87 6.45002C18.0467 6.93096 18.0467 7.45907 17.87 7.94002C17.38 9.83002 16.38 10.45 16.87 10.77C16.9432 10.8154 17.0313 10.8303 17.1154 10.8116C17.1994 10.7929 17.2729 10.7421 17.32 10.67C18.61 8.67002 19.77 6.01002 17.52 5.24002C16.58 4.92002 14.65 4.85002 14 4.54002C14.47 3.32002 15.56 1.34002 14.51 0.400019C13.75 -0.279981 12.51 0.0800186 11.32 0.0800186C9.6452 0.0174893 7.96857 0.138206 6.32 0.440019C6.24574 0.46654 6.18506 0.521476 6.1513 0.592739C6.11755 0.664003 6.11348 0.745758 6.14 0.820019C6.16652 0.894279 6.22146 0.954963 6.29272 0.988719C6.36399 1.02248 6.44574 1.02654 6.52 1.00002C8.12447 0.811266 9.74553 0.811266 11.35 1.00002C13.41 1.08002 14.41 0.490019 13.73 2.45002Z" fill="white"/>
<path d="M10.51 18.56C9.54376 19.2346 8.63712 19.9907 7.79996 20.82C7.00996 21.62 6.31996 22.48 5.49996 23.46C5.44028 23.521 5.40728 23.6032 5.40822 23.6885C5.40916 23.7739 5.44396 23.8553 5.50496 23.915C5.56596 23.9747 5.64816 24.0077 5.73349 24.0067C5.81882 24.0058 5.90028 23.971 5.95996 23.91C7.78095 22.4653 9.43157 20.8181 10.88 19C10.9383 18.9509 10.9748 18.8807 10.9813 18.8047C10.9879 18.7288 10.964 18.6533 10.915 18.595C10.8659 18.5367 10.7957 18.5002 10.7197 18.4936C10.6438 18.4871 10.5683 18.5109 10.51 18.56Z" fill="white"/>
<path d="M21.05 17.24C20.71 14.13 19.16 11.47 16.14 12.12C13.97 12.58 12.22 14.49 12.14 18.26C12.1411 20.0597 12.3594 21.8526 12.79 23.6C12.796 23.637 12.8093 23.6725 12.8293 23.7042C12.8493 23.736 12.8755 23.7634 12.9062 23.7849C12.937 23.8063 12.9718 23.8214 13.0085 23.8291C13.0452 23.8369 13.0831 23.8372 13.12 23.83C13.77 23.71 12.79 22.38 12.97 18.68C14.7926 18.7189 16.6153 18.6085 18.42 18.35C18.4964 18.3365 18.5656 18.2966 18.6155 18.2371C18.6654 18.1777 18.6927 18.1026 18.6927 18.025C18.6927 17.9474 18.6654 17.8723 18.6155 17.8128C18.5656 17.7534 18.4964 17.7134 18.42 17.7C16.6133 17.3985 14.7623 17.5009 13 18C13.24 15.77 14.16 13.67 16.36 13.2C18.56 12.73 19.82 15.02 20.18 17.37C20.3659 19.1 20.4294 20.841 20.37 22.58C20.3834 22.6564 20.4234 22.7256 20.4828 22.7755C20.5422 22.8254 20.6174 22.8528 20.695 22.8528C20.7726 22.8528 20.8477 22.8254 20.9071 22.7755C20.9665 22.7256 21.0065 22.6564 21.02 22.58C21.1557 20.8029 21.1657 19.0185 21.05 17.24Z" fill="white"/>
</g>
<defs>
<clipPath id="clip0_1033_3797">
<rect width="24" height="24" fill="white"/>
</clipPath>
</defs>
</svg>
