<svg width="24" height="24" viewBox="0 0 24 24" fill="none" xmlns="http://www.w3.org/2000/svg">
<g clip-path="url(#clip0_1031_3060)">
<path fill-rule="evenodd" clip-rule="evenodd" d="M11.23 16.18C11.2749 16.1856 11.3205 16.1818 11.3639 16.169C11.4073 16.1561 11.4477 16.1345 11.4824 16.1054C11.5171 16.0764 11.5454 16.0405 11.5657 16C11.5859 15.9595 11.5976 15.9152 11.6 15.87C11.6057 15.7803 11.5767 15.6919 11.519 15.623C11.4613 15.5541 11.3793 15.5101 11.29 15.5C10.8092 15.4054 10.3104 15.4906 9.88823 15.7395C9.4661 15.9883 9.15002 16.3835 8.99997 16.85C8.85997 17.45 9.12997 18.13 10.08 18.64C10.5219 18.8305 11.0109 18.8837 11.4834 18.7927C11.956 18.7018 12.3903 18.4709 12.73 18.13C12.9094 17.9548 13.0443 17.7391 13.1232 17.501C13.2021 17.2629 13.2229 17.0094 13.1837 16.7616C13.1446 16.5139 13.0466 16.2791 12.8981 16.077C12.7495 15.8749 12.5547 15.7114 12.33 15.6C12.2906 15.5672 12.2451 15.5424 12.1961 15.5272C12.1472 15.5119 12.0957 15.5065 12.0446 15.5111C11.9415 15.5205 11.8463 15.5704 11.78 15.65C11.7137 15.7296 11.6817 15.8322 11.6911 15.9354C11.7004 16.0385 11.7504 16.1337 11.83 16.2C12.2 16.55 12.26 16.89 12.1 17.2C11.9387 17.4088 11.7015 17.5454 11.44 17.58C11.1641 17.6391 10.8765 17.6075 10.62 17.49C10.22 17.33 10.04 17.14 10.15 16.9C10.2477 16.6933 10.3999 16.5171 10.5901 16.3902C10.7804 16.2634 11.0016 16.1907 11.23 16.18Z" fill="white"/>
<path fill-rule="evenodd" clip-rule="evenodd" d="M12.29 13.47C11.0867 13.7251 9.84328 13.7251 8.63999 13.47C8.11999 13.4 7.58999 13.35 7.06999 13.33C6.71042 13.3051 6.34956 13.3051 5.98999 13.33C2.39999 13.67 2.73999 13.91 3.34999 17.14C3.45999 17.72 3.61999 18.29 3.77999 18.85C4.01999 19.7 4.30999 20.52 4.54999 21.37C4.55956 21.4207 4.5791 21.469 4.60747 21.5121C4.63584 21.5552 4.67248 21.5922 4.71526 21.6211C4.75805 21.6499 4.80613 21.6699 4.85672 21.6801C4.90731 21.6902 4.9594 21.6902 5.00999 21.68C5.72574 20.9854 6.68259 20.5947 7.67999 20.59C8.34924 20.5717 9.01875 20.6152 9.67999 20.72C10.39 20.81 11.11 20.91 11.83 20.97C13.1076 21.0464 14.3894 20.9249 15.63 20.61C19.92 19.45 19.15 18.3 19.09 17.43C19.0815 17.2385 19.0581 17.0479 19.02 16.86C18.984 16.6764 18.9338 16.4959 18.87 16.32C18.71 15.89 18.5 15.52 18.32 15.11C18.2928 15.0477 18.2481 14.9947 18.1912 14.9574C18.1344 14.9201 18.068 14.9002 18 14.9C17.9559 14.9084 17.9139 14.9254 17.8765 14.9501C17.839 14.9748 17.8068 15.0066 17.7817 15.0438C17.7566 15.081 17.7391 15.1228 17.7302 15.1667C17.7214 15.2107 17.7213 15.256 17.73 15.3C17.6949 15.8061 17.6949 16.3139 17.73 16.82C17.7683 17.1116 17.8319 17.3994 17.92 17.68C18.01 17.96 18.11 18.22 18.2 18.49C17.3524 19.0244 16.4133 19.3974 15.43 19.59C14.2921 19.798 13.1303 19.8418 11.98 19.72C11.26 19.72 10.55 19.57 9.83999 19.53C9.08159 19.481 8.32009 19.5179 7.56999 19.64C6.72954 19.7888 5.93525 20.1312 5.24999 20.64C5.17999 19.99 5.10999 19.33 5.00999 18.64C4.94999 18.27 4.87999 17.91 4.79999 17.55C4.71999 17.19 4.61999 16.84 4.51999 16.49C4.32999 15.88 4.10999 15.29 3.89999 14.7C4.88144 14.4592 5.90037 14.4116 6.89999 14.56C7.49999 14.62 8.10999 14.68 8.71999 14.71C9.36414 14.7418 10.0098 14.7184 10.65 14.64C11.3123 14.5751 11.9602 14.4064 12.57 14.14C12.6632 14.1001 12.7378 14.0262 12.7786 13.9334C12.8195 13.8406 12.8235 13.7357 12.79 13.64C12.7432 13.5541 12.6658 13.489 12.5731 13.4575C12.4805 13.426 12.3795 13.4305 12.29 13.47Z" fill="white"/>
<path fill-rule="evenodd" clip-rule="evenodd" d="M23 5.23001C22.7 4.65001 21.54 3.88001 20.69 2.49001C20.3094 1.87791 20.0481 1.1993 19.92 0.490006C19.8925 0.363867 19.8269 0.24922 19.7321 0.161579C19.6373 0.0739389 19.5179 0.0175369 19.39 6.16722e-06C19.271 -0.0256803 19.147 -0.0145665 19.0345 0.0318719C18.9219 0.0783103 18.8262 0.157876 18.76 0.260006C17.9667 1.11262 17.0926 1.88625 16.15 2.57001C15.6951 2.96466 15.3303 3.4523 15.08 4.00001C14.9289 4.35014 14.8312 4.72092 14.79 5.10001C14.7524 5.62464 14.7793 6.1519 14.87 6.67001C14.87 6.67001 14.87 6.86001 14.92 7.03001L14.65 6.87001C14.5282 6.76813 14.4205 6.65042 14.33 6.52001C14.2411 6.38446 14.1737 6.23606 14.13 6.08001C14.03 5.79001 13.98 5.48001 13.9 5.18001C13.8622 4.99028 13.8121 4.80322 13.75 4.62001C13.7163 4.52439 13.6594 4.43867 13.5843 4.37058C13.5093 4.30248 13.4184 4.25417 13.32 4.23001C13.2058 4.20287 13.0864 4.20816 12.9751 4.24526C12.8637 4.28236 12.765 4.34981 12.69 4.44001C12.5201 4.66766 12.3632 4.9047 12.22 5.15001C11.9953 5.57177 11.8303 6.02277 11.73 6.49001C11.6351 6.95023 11.6048 7.42142 11.64 7.89001C11.7076 9.51276 12.3821 11.051 13.53 12.2C13.9888 12.6406 14.5342 12.981 15.1315 13.1996C15.7289 13.4182 16.3651 13.5103 17 13.47C17.3817 13.6515 17.7974 13.7504 18.22 13.76C18.8516 13.7632 19.4603 13.5233 19.92 13.09C19.9645 13.1704 20.0367 13.2319 20.1231 13.2631C20.2095 13.2944 20.3043 13.2933 20.39 13.26C21.1244 12.9587 21.7782 12.4898 22.2991 11.8908C22.82 11.2917 23.1936 10.5792 23.39 9.81001C23.8434 8.28891 23.7041 6.65253 23 5.23001ZM22.53 9.57001C22.4036 10.1439 22.1609 10.6857 21.8169 11.1622C21.4729 11.6386 21.0349 12.0395 20.53 12.34C20.6172 12.1718 20.6844 11.9939 20.73 11.81C20.8601 11.2909 20.8115 10.743 20.5919 10.255C20.3724 9.76688 19.9947 9.36704 19.52 9.12001C19.4331 9.08752 19.3374 9.08708 19.2502 9.11877C19.163 9.15046 19.09 9.21221 19.0442 9.29291C18.9984 9.37362 18.9829 9.46801 19.0005 9.55911C19.018 9.65022 19.0675 9.73209 19.14 9.79001C19.4186 9.97451 19.6266 10.2479 19.7301 10.5656C19.8336 10.8834 19.8265 11.2268 19.71 11.54C19.627 11.8311 19.4443 12.0838 19.1939 12.2538C18.9434 12.4238 18.6412 12.5004 18.34 12.47C18.0557 12.473 17.7751 12.4051 17.5237 12.2724C17.2723 12.1397 17.0579 11.9464 16.9 11.71C16.7357 11.4831 16.6472 11.2101 16.6472 10.93C16.6472 10.6499 16.7357 10.3769 16.9 10.15C17.0579 9.92818 17.2718 9.7522 17.52 9.64001C17.8159 9.50708 18.124 9.40325 18.44 9.33001C18.4847 9.32293 18.5275 9.30673 18.5656 9.28242C18.6038 9.25811 18.6366 9.2262 18.6619 9.18869C18.6872 9.15117 18.7046 9.10885 18.7128 9.06434C18.7211 9.01984 18.7201 8.97412 18.71 8.93001C18.693 8.84306 18.6427 8.76619 18.5698 8.71576C18.497 8.66533 18.4073 8.64533 18.32 8.66001C17.8331 8.70677 17.3552 8.82121 16.9 9.00001C16.5747 9.13277 16.284 9.33797 16.05 9.60001C15.7031 9.97259 15.4849 10.4466 15.4273 10.9523C15.3697 11.4581 15.4758 11.969 15.73 12.41C15.797 12.5081 15.8705 12.6016 15.95 12.69C15.263 12.5302 14.6333 12.1842 14.13 11.69C13.1905 10.6719 12.6723 9.33531 12.68 7.95001C12.6699 7.57299 12.7102 7.19632 12.8 6.83001C12.8 6.70001 12.87 6.57001 12.92 6.44001V6.54001C13.0672 7.10217 13.3894 7.60296 13.84 7.97001C14.0811 8.15333 14.3471 8.30147 14.63 8.41001C14.63 8.41001 15.37 8.62001 15.63 8.68001C15.7696 8.71158 15.9151 8.70604 16.0519 8.66393C16.1888 8.62183 16.3122 8.54462 16.41 8.44001C16.5192 8.26388 16.5651 8.05574 16.54 7.85001C16.54 7.51001 16.13 6.76001 16.1 6.57001C16.0465 6.23937 16.0197 5.90495 16.02 5.57001C16.0326 5.25727 16.1003 4.94921 16.22 4.66001C16.405 4.27988 16.6633 3.94004 16.98 3.66001C17.59 3.08001 18.32 2.58001 18.98 2.00001C19.1574 2.44415 19.3784 2.86958 19.64 3.27001C20.53 4.60001 21.69 5.32001 22.01 5.87001C22.6131 7.00439 22.7837 8.31926 22.49 9.57001H22.53Z" fill="white"/>
<path fill-rule="evenodd" clip-rule="evenodd" d="M22.11 18.88C22.1573 18.8383 22.1932 18.7851 22.2142 18.7256C22.2352 18.6661 22.2406 18.6022 22.23 18.54C22.23 18.05 22.17 17.54 22.1 17.08C22.1 16.88 22.02 16.68 21.97 16.48C21.9229 16.2805 21.8559 16.0862 21.77 15.9C21.59 15.44 21.35 15.04 21.13 14.6C21.1184 14.5565 21.0983 14.5158 21.0709 14.4801C21.0434 14.4445 21.0092 14.4146 20.9701 14.3923C20.931 14.37 20.8879 14.3556 20.8433 14.3501C20.7986 14.3445 20.7533 14.3479 20.71 14.36C20.6658 14.3703 20.6242 14.3896 20.5877 14.4168C20.5513 14.4439 20.5209 14.4782 20.4984 14.5177C20.4759 14.5571 20.4617 14.6007 20.4568 14.6459C20.4519 14.691 20.4564 14.7367 20.47 14.78C20.4818 15.2649 20.5185 15.7489 20.58 16.23C20.6089 16.4329 20.6524 16.6334 20.71 16.83C20.76 17.02 20.84 17.21 20.91 17.4C21.09 17.85 21.29 18.27 21.47 18.71C21.486 18.7727 21.5185 18.83 21.5643 18.8757C21.61 18.9215 21.6673 18.954 21.73 18.97C20.541 19.9397 19.1856 20.6851 17.73 21.17C16.2752 21.6581 14.7431 21.875 13.21 21.81C12.09 21.81 10.99 21.52 9.87999 21.45C9.35809 21.3952 8.83188 21.3952 8.30999 21.45C7.60615 21.5668 6.91822 21.7648 6.25999 22.04C5.38999 22.39 4.53999 22.82 3.69999 23.2C3.49999 22.07 3.33999 20.94 3.10999 19.82C3.01999 19.33 2.89999 18.82 2.77999 18.38C2.65999 17.94 2.52999 17.38 2.37999 16.95C2.00999 15.85 1.57999 14.79 1.12999 13.71C1.12999 13.71 1.12999 13.65 1.04999 13.62C1.72931 13.1527 2.48851 12.8137 3.28999 12.62C3.92596 12.4601 4.57542 12.3597 5.22999 12.32C5.89561 12.2674 6.56436 12.2674 7.22999 12.32C8.16999 12.38 9.22999 12.59 10.23 12.6C10.9664 12.6299 11.6986 12.4753 12.36 12.15C12.4502 12.1047 12.5199 12.0269 12.5551 11.9323C12.5903 11.8377 12.5885 11.7333 12.55 11.64C12.5285 11.5933 12.4979 11.5512 12.4601 11.5163C12.4222 11.4815 12.3779 11.4544 12.3295 11.4367C12.2812 11.4191 12.2299 11.4112 12.1784 11.4134C12.127 11.4157 12.0766 11.4281 12.03 11.45C11.468 11.6435 10.8677 11.6984 10.28 11.61C9.27999 11.5 8.27999 11.19 7.36999 11.04C6.63243 10.955 5.88754 10.955 5.14999 11.04C4.65795 11.1025 4.17262 11.2096 3.69999 11.36C2.49264 11.6981 1.39134 12.3383 0.499986 13.22C0.436478 13.2837 0.400818 13.37 0.400818 13.46C0.400818 13.55 0.436478 13.6363 0.499986 13.7H0.549986C0.514693 13.7405 0.491331 13.79 0.482503 13.8429C0.473675 13.8959 0.479727 13.9503 0.499986 14C0.749986 15.12 0.939986 16.24 1.17999 17.36C1.27999 17.84 1.39999 18.31 1.51999 18.78C1.63999 19.25 1.77999 19.78 1.92999 20.2C2.25999 21.29 2.61999 22.38 2.92999 23.48C2.9499 23.5549 2.99408 23.621 3.05561 23.668C3.11714 23.7151 3.19253 23.7404 3.26999 23.74C3.26999 23.74 3.26999 23.8 3.26999 23.82C3.30352 23.9059 3.3696 23.9751 3.45386 24.0125C3.53812 24.05 3.63376 24.0527 3.71999 24.02C4.63999 23.7 5.58999 23.29 6.54999 23.02C7.15706 22.8272 7.7847 22.7063 8.41999 22.66C8.71298 22.6399 9.007 22.6399 9.29999 22.66C10.6 22.75 11.87 23.12 13.18 23.17C14.8632 23.1751 16.5323 22.863 18.1 22.25C19.6394 21.624 21.0498 20.7188 22.26 19.58C22.3327 19.5069 22.3734 19.4081 22.3734 19.305C22.3734 19.202 22.3327 19.1031 22.26 19.03C22.2285 18.9644 22.1756 18.9115 22.11 18.88Z" fill="white"/>
</g>
<defs>
<clipPath id="clip0_1031_3060">
<rect width="24" height="24" fill="white"/>
</clipPath>
</defs>
</svg>
