<svg width="24" height="24" viewBox="0 0 24 24" fill="none" xmlns="http://www.w3.org/2000/svg">
<g clip-path="url(#clip0_1034_4628)">
<path d="M10.66 20.21C10.3747 19.53 9.90329 18.9442 9.3 18.52C8.95482 18.2798 8.58218 18.0818 8.19 17.93C8.65643 17.4838 8.98176 16.9107 9.12574 16.2814C9.26971 15.6522 9.22599 14.9946 9 14.39C8.68758 13.4898 8.0364 12.747 7.18487 12.3193C6.33335 11.8917 5.34863 11.813 4.44 12.1C3.84474 12.2843 3.31031 12.626 2.89315 13.0889C2.476 13.5518 2.1916 14.1188 2.07 14.73C1.91854 15.3194 1.92473 15.9382 2.08797 16.5245C2.2512 17.1107 2.56573 17.6437 3 18.07L3.07 18.13C2.81788 18.2352 2.57388 18.3588 2.34 18.5C2.0466 18.6896 1.77497 18.9109 1.53 19.16C1.28008 19.4177 1.0557 19.699 0.860005 20C0.449469 20.6643 0.158408 21.3953 4.86989e-06 22.16C-0.0219409 22.2422 -0.0113099 22.3297 0.02968 22.4042C0.0706699 22.4787 0.138853 22.5345 0.220005 22.56C0.300896 22.585 0.388417 22.577 0.463392 22.5376C0.538368 22.4983 0.594684 22.4308 0.620005 22.35C0.883535 21.7045 1.2407 21.1014 1.68 20.56C1.86 20.34 2.06 20.13 2.27 19.92C2.48 19.71 2.67 19.53 2.9 19.34C3.21622 19.071 3.55032 18.8238 3.9 18.6C3.98732 18.6327 4.07782 18.6561 4.17 18.67C4.80144 18.7854 5.44857 18.7854 6.08 18.67C6.13018 18.6612 6.17741 18.6402 6.21753 18.6088C6.25765 18.5774 6.28941 18.5366 6.31 18.49C6.29691 18.5323 6.29691 18.5777 6.31 18.62C6.34122 18.6977 6.40163 18.76 6.47828 18.7937C6.55492 18.8273 6.6417 18.8296 6.72 18.8C6.96317 18.7122 7.19754 18.6017 7.42 18.47C7.82854 18.7288 8.21337 19.0233 8.57 19.35C8.78295 19.5508 8.98333 19.7646 9.17 19.99C9.3601 20.2151 9.53071 20.456 9.68001 20.71C10.0353 21.345 10.3235 22.0153 10.54 22.71C10.5447 22.7549 10.5589 22.7984 10.5816 22.8374C10.6044 22.8765 10.6351 22.9103 10.6718 22.9366C10.7085 22.9629 10.7504 22.9812 10.7947 22.9901C10.839 22.9991 10.8847 22.9986 10.9287 22.9886C10.9728 22.9787 11.0143 22.9595 11.0504 22.9324C11.0865 22.9053 11.1165 22.8708 11.1383 22.8312C11.1602 22.7917 11.1734 22.748 11.1772 22.7029C11.1809 22.6579 11.175 22.6126 11.16 22.57C11.1049 21.7638 10.9366 20.9693 10.66 20.21ZM6.56 18.21C6.5165 18.227 6.47757 18.254 6.44632 18.2887C6.41507 18.3234 6.39236 18.365 6.38 18.41V18.36C6.37511 18.3231 6.3629 18.2875 6.34409 18.2553C6.32527 18.2232 6.30023 18.1951 6.27043 18.1728C6.24063 18.1504 6.20667 18.1342 6.17054 18.1252C6.1344 18.1161 6.09683 18.1144 6.06 18.12C2.18 18.51 3 15.26 3 15C3.09438 14.5742 3.29939 14.1808 3.59435 13.8595C3.88931 13.5382 4.26379 13.3004 4.68 13.17C5.33734 12.9462 6.05549 12.9833 6.68629 13.2736C7.31709 13.5638 7.81239 14.0852 8.07 14.73C8.20039 15.0547 8.26468 15.4021 8.25913 15.7519C8.25358 16.1017 8.17829 16.4469 8.03767 16.7672C7.89705 17.0876 7.69393 17.3766 7.4402 17.6175C7.18647 17.8584 6.88723 18.0462 6.56 18.17V18.21Z" fill="white"/>
<path d="M23.34 7.48001L23.09 7.31001C23.3464 6.72598 23.5246 6.11067 23.62 5.48001C23.7338 4.63959 23.6234 3.78401 23.3 3.00001C23.0513 2.49954 22.6864 2.0659 22.2358 1.73534C21.7852 1.40479 21.262 1.18694 20.71 1.10001C20.1555 1.00099 19.5851 1.04046 19.0496 1.21492C18.514 1.38937 18.0298 1.69341 17.64 2.10001C17.3021 2.48731 17.0408 2.93524 16.87 3.42001C16.6459 4.07171 16.4754 4.74059 16.36 5.42001L15.7 5.30001H15.63C15.5757 5.28586 15.5184 5.28777 15.4652 5.30552C15.4119 5.32327 15.365 5.3561 15.33 5.40001C14.9425 5.86531 14.6072 6.37167 14.33 6.91001C14.0438 7.43595 13.7933 7.98051 13.58 8.54001C13.2375 9.19012 12.9723 9.87815 12.79 10.59C12.7169 10.9686 12.7516 11.3601 12.89 11.72C13.0348 12.0545 13.2577 12.3494 13.54 12.58C13.9158 12.8768 14.3295 13.1223 14.77 13.31C15.5204 13.6632 16.2959 13.9607 17.09 14.2C17.8833 14.438 18.6918 14.6218 19.51 14.75C19.9483 14.8329 20.3941 14.8698 20.84 14.86C21.1874 14.8495 21.5285 14.7642 21.84 14.61C22.2717 14.3922 22.6222 14.0417 22.84 13.61C23.0791 13.0551 23.2665 12.4793 23.4 11.89C23.7424 10.9342 23.9445 9.9338 24 8.92001C24.0021 8.64631 23.9441 8.37549 23.83 8.12668C23.716 7.87786 23.5487 7.65711 23.34 7.48001ZM17.57 3.69001C17.7418 3.31253 17.9865 2.97269 18.29 2.69001C18.5929 2.43064 18.9527 2.24653 19.3403 2.15268C19.7278 2.05884 20.132 2.05792 20.52 2.15001C20.9122 2.20772 21.2858 2.35501 21.6118 2.58046C21.9379 2.80591 22.2076 3.10346 22.4 3.45001C22.7083 4.04432 22.8467 4.71213 22.8 5.38001C22.764 5.93159 22.6564 6.47615 22.48 7.00001C22.2183 6.90165 21.9512 6.81818 21.68 6.75001L20 6.35001C19.13 6.13001 18.29 5.88001 17.44 5.67001L16.88 5.55001C17.0618 4.91319 17.2925 4.29135 17.57 3.69001ZM23 9.30001C22.8588 10.0741 22.6479 10.8339 22.37 11.57C22.2563 12.0861 22.0887 12.5889 21.87 13.07C21.7548 13.3116 21.5703 13.5135 21.34 13.65C21.1563 13.7272 20.9593 13.7679 20.76 13.77C20.3883 13.7793 20.0166 13.7525 19.65 13.69C18.8776 13.5681 18.1129 13.4011 17.36 13.19C16.6018 12.9868 15.857 12.7363 15.13 12.44C14.7744 12.2963 14.4383 12.1082 14.13 11.88C13.9482 11.7466 13.8008 11.5717 13.7 11.37C13.5948 11.0724 13.5948 10.7477 13.7 10.45C13.869 9.88594 14.0693 9.33175 14.3 8.79001C14.4872 8.24697 14.7076 7.71597 14.96 7.20001C15.1446 6.78153 15.3654 6.37999 15.62 6.00001C16.19 6.11001 16.75 6.25001 17.28 6.40001C18.13 6.64001 18.96 6.92001 19.83 7.17001L21.44 7.65001C21.7366 7.73391 22.0272 7.83748 22.31 7.96001C22.4715 8.03764 22.6226 8.13506 22.76 8.25001C22.8812 8.39301 22.9663 8.56303 23.008 8.74575C23.0498 8.92848 23.047 9.11857 23 9.30001Z" fill="white"/>
<path d="M18.72 9.00001C17.72 8.69001 16.32 9.52001 17.21 10.52C18.39 11.87 20.88 9.71001 18.72 9.00001Z" fill="white"/>
<path d="M11.62 5.57002C10.6931 5.36222 9.72522 5.43533 8.84 5.78002C8.46495 5.92419 8.10351 6.10156 7.76 6.31002C7.42441 6.52651 7.11268 6.77791 6.83 7.06002C6.15423 7.71977 5.68218 8.55974 5.47 9.48002C5.46841 9.54268 5.48717 9.60418 5.52347 9.65528C5.55977 9.70639 5.61165 9.74436 5.67134 9.76351C5.73103 9.78265 5.79531 9.78194 5.85456 9.76148C5.91382 9.74102 5.96485 9.70191 6 9.65002C6.33605 8.925 6.85252 8.29835 7.5 7.83002C7.76413 7.61322 8.04132 7.41284 8.33 7.23002C8.61525 7.04082 8.91255 6.87046 9.22 6.72002C9.91606 6.34549 10.7003 6.16583 11.49 6.20002C11.572 6.21112 11.6551 6.19002 11.7219 6.14116C11.7887 6.0923 11.8339 6.01947 11.8482 5.93795C11.8624 5.85643 11.8445 5.77257 11.7982 5.70397C11.752 5.63537 11.6809 5.58736 11.6 5.57002H11.62Z" fill="white"/>
<path d="M18.27 15C18.1945 14.9885 18.1174 15.0072 18.0556 15.0521C17.9939 15.0971 17.9523 15.1646 17.94 15.24C17.681 16.0605 17.2516 16.817 16.68 17.46C16.4554 17.7463 16.2115 18.0169 15.95 18.27C15.7003 18.5282 15.433 18.7688 15.15 18.99C14.5069 19.5229 13.7131 19.8411 12.88 19.9C12.7941 19.8972 12.7106 19.9281 12.6471 19.986C12.5836 20.0439 12.5452 20.1242 12.54 20.21C12.5373 20.252 12.5429 20.2942 12.5565 20.3341C12.5702 20.3739 12.5915 20.4107 12.6194 20.4423C12.6473 20.4739 12.6811 20.4997 12.719 20.5181C12.7568 20.5366 12.7979 20.5475 12.84 20.55C13.8531 20.6341 14.8656 20.381 15.72 19.83C16.0829 19.6103 16.4186 19.3485 16.72 19.05C17.0203 18.745 17.2884 18.4099 17.52 18.05C18.0696 17.2308 18.4128 16.2907 18.52 15.31C18.5235 15.2367 18.4999 15.1647 18.4539 15.1075C18.4078 15.0504 18.3424 15.0121 18.27 15Z" fill="white"/>
</g>
<defs>
<clipPath id="clip0_1034_4628">
<rect width="24" height="24" fill="white"/>
</clipPath>
</defs>
</svg>
