<svg width="24" height="24" viewBox="0 0 24 24" fill="none" xmlns="http://www.w3.org/2000/svg">
<g clip-path="url(#clip0_1030_2207)">
<path fill-rule="evenodd" clip-rule="evenodd" d="M7.61 7.00001V6.91001C7.38 5.80103 6.93495 4.74786 6.3 3.81001C5.90036 3.2445 5.31739 2.83466 4.65 2.65001C3.97019 2.50192 3.25975 2.60494 2.65 2.94001C2.34727 3.0903 2.07845 3.30088 1.86006 3.55883C1.64166 3.81678 1.4783 4.11664 1.38 4.44001C1.28787 4.72729 1.24724 5.02859 1.26 5.33001C1.2579 5.57652 1.34693 5.81513 1.51 6.00001C1.82686 6.29063 2.21795 6.48791 2.64 6.57001C3.36494 6.72039 4.1005 6.81401 4.84 6.85001C5.78 7.00001 6.7 7.00001 7.61 7.00001ZM14.89 7.22001C13.2 7.47001 11.54 7.65001 9.89 7.73001H8.89C9.15694 9.25804 9.23085 10.8136 9.11 12.36C9.03763 13.353 8.89055 14.3391 8.67 15.31H8.85H10.21C10.66 15.31 10.83 15.31 11.13 15.39L13.7 15.69H15.41C15.35 15.45 15.3 15.21 15.26 14.97C14.9684 13.1419 14.8479 11.2905 14.9 9.44001C14.84 8.79001 14.84 8.00001 14.89 7.24001V7.22001ZM16.71 17C16.8585 17.4186 17.0288 17.8291 17.22 18.23C17.5653 19.2507 18.1559 20.171 18.94 20.91C19.4908 21.255 20.1525 21.3766 20.79 21.25L21.63 21.08C22.68 20.64 23.03 19.96 22.84 19.28C22.679 18.8678 22.4216 18.5001 22.0892 18.2078C21.7569 17.9155 21.3594 17.7071 20.93 17.6C20.2273 17.3853 19.5082 17.2281 18.78 17.13C18.0936 17.0416 17.4021 16.9982 16.71 17ZM7.09 16.57C5.59797 16.5139 4.11038 16.7658 2.72 17.31C2.17776 17.5452 1.73545 17.9635 1.47039 18.4918C1.20534 19.0201 1.1344 19.6247 1.27 20.2C1.27315 20.4182 1.32147 20.6334 1.41192 20.832C1.50236 21.0306 1.63297 21.2083 1.7955 21.3539C1.95803 21.4996 2.14897 21.6099 2.35627 21.6781C2.56358 21.7463 2.78276 21.7708 3 21.75C3.51093 21.7102 4.00713 21.5599 4.45431 21.3096C4.90149 21.0592 5.28898 20.7148 5.59 20.3C5.80392 19.9861 5.98488 19.651 6.13 19.3C6.37 18.75 6.55 18.18 6.76 17.6C6.88 17.27 7 16.92 7.09 16.58V16.57ZM15 6.55001V6.33001C15.0833 5.59225 15.2545 4.8671 15.51 4.17001C15.7886 3.47625 16.2118 2.84983 16.7515 2.33253C17.2913 1.81522 17.935 1.41891 18.64 1.17001C19.1421 0.997662 19.6835 0.974902 20.1984 1.1045C20.7132 1.23409 21.1793 1.51046 21.54 1.90001C21.9171 2.21148 22.2014 2.62055 22.3619 3.08258C22.5224 3.54461 22.5528 4.04184 22.45 4.52001C22.2485 4.98492 21.899 5.37026 21.456 5.61619C21.013 5.86212 20.5011 5.95486 20 5.88001C19.9136 5.86565 19.835 5.82109 19.7784 5.75425C19.7217 5.68741 19.6906 5.60263 19.6906 5.51501C19.6906 5.42739 19.7217 5.34261 19.7784 5.27577C19.835 5.20893 19.9136 5.16437 20 5.15001C20.93 5.15001 21.54 4.83001 21.71 4.30001C21.7626 3.95654 21.7247 3.6053 21.6002 3.2809C21.4757 2.9565 21.2689 2.67013 21 2.45001C20.6544 2.10392 20.1998 1.88797 19.7132 1.83877C19.2265 1.78956 18.7379 1.91012 18.33 2.18001C17.4205 2.69143 16.7144 3.49993 16.33 4.47001C16.1195 5.08567 15.9786 5.72298 15.91 6.37001C16.5953 6.14058 17.2931 5.95028 18 5.80001C18.078 5.79986 18.1534 5.8282 18.2119 5.8797C18.2705 5.9312 18.3083 6.00232 18.3181 6.0797C18.3279 6.15707 18.3091 6.23537 18.2653 6.29988C18.2214 6.36439 18.1556 6.41067 18.08 6.43001C17.44 6.52001 16.82 6.81001 15.97 7.03001H15.82V9.51001C15.781 11.3021 15.9149 13.0937 16.22 14.86C16.28 15.17 16.35 15.48 16.43 15.78H16.65C17.4428 15.7862 18.2344 15.8429 19.02 15.95C19.8108 16.0576 20.5905 16.235 21.35 16.48C21.9468 16.6632 22.4904 16.9881 22.9344 17.4269C23.3784 17.8657 23.7097 18.4054 23.9 19C24.22 20.13 23.8 21.37 22.05 22.1C21.8909 22.1605 21.727 22.2073 21.56 22.24C21.35 22.24 21.13 22.3 20.92 22.33C20.018 22.4875 19.0901 22.2905 18.33 21.78C17.422 20.924 16.7356 19.8601 16.33 18.68C16.0691 18.1369 15.8486 17.5754 15.67 17H13.59L10.93 16.71L8.79 16.61H8.3C8.17 17.09 8.03 17.56 7.86 18.04C7.69 18.52 7.47 19.26 7.22 19.83C7.03936 20.239 6.82179 20.6306 6.57 21C6.08603 21.6731 5.43195 22.2056 4.67466 22.5429C3.91738 22.8803 3.08408 23.0104 2.26 22.92C1.6626 22.8063 1.12082 22.4949 0.721789 22.0361C0.322754 21.5772 0.0896601 20.9974 0.0599958 20.39C-0.135738 19.5541 -0.0279879 18.6758 0.364009 17.9119C0.756006 17.1481 1.40673 16.5484 2.2 16.22C3.86577 15.5772 5.6461 15.2845 7.43 15.36C7.68433 14.3758 7.85823 13.3724 7.95 12.36C8.09079 10.8483 8.02688 9.32458 7.76 7.83001C6.76 7.83001 5.76 7.83001 4.76 7.70001C3.98105 7.66748 3.20559 7.57723 2.44 7.43001C1.85575 7.30994 1.31798 7.02544 0.889996 6.61001C0.630634 6.33537 0.465939 5.98496 0.419996 5.61001C0.360847 5.13467 0.394812 4.65237 0.519996 4.19001C0.649864 3.74724 0.867231 3.33503 1.15923 2.97775C1.45123 2.62048 1.81194 2.32541 2.22 2.11001C3.01796 1.65899 3.95261 1.51329 4.85 1.70001C5.74731 1.93214 6.53151 2.4786 7.06 3.24001C7.80447 4.27224 8.32867 5.44658 8.6 6.69001L8.68 7.00001H9.85C11.5 6.94001 13.16 6.78001 14.85 6.55001H15Z" fill="white"/>
</g>
<defs>
<clipPath id="clip0_1030_2207">
<rect width="24" height="24" fill="white"/>
</clipPath>
</defs>
</svg>
