<svg width="24" height="24" viewBox="0 0 24 24" fill="none" xmlns="http://www.w3.org/2000/svg">
<g clip-path="url(#clip0_1049_8041)">
<path fill-rule="evenodd" clip-rule="evenodd" d="M19.06 10.61C18.89 10.07 16.19 7.22 15.16 6.94C14.4646 6.88051 13.7654 6.88051 13.07 6.94C11.8932 6.88956 10.7144 6.90959 9.54 7C9.13 7 8.28 6.85 7.93 7.22C7.20154 7.88103 6.51047 8.58211 5.86 9.32C5.44111 9.75663 5.06908 10.2359 4.75 10.75C4.56 11.15 4.93 11.53 5.2 12C5.47 12.47 6.77 14.65 8 16.63C8.77 17.89 10.22 19.28 10.64 19.9C10.6798 19.9663 10.7443 20.0141 10.8193 20.0328C10.8943 20.0516 10.9737 20.0398 11.04 20C11.1063 19.9602 11.1541 19.8957 11.1728 19.8207C11.1916 19.7457 11.1798 19.6663 11.14 19.6C11.2216 18.0644 11.1613 16.5245 10.96 15C10.7213 13.932 10.3866 12.8878 9.96 11.88C11.2247 12.0447 12.5053 12.0447 13.77 11.88C13.5851 12.3268 13.3713 12.761 13.13 13.18C12.5778 14.4078 12.1491 15.6874 11.85 17C11.8316 17.0394 11.8212 17.082 11.8193 17.1255C11.8173 17.1689 11.824 17.2123 11.8389 17.2531C11.8537 17.294 11.8765 17.3315 11.9058 17.3636C11.9352 17.3957 11.9706 17.4216 12.01 17.44C12.0494 17.4584 12.092 17.4688 12.1355 17.4707C12.1789 17.4727 12.2223 17.466 12.2631 17.4511C12.304 17.4363 12.3415 17.4135 12.3736 17.3842C12.4056 17.3548 12.4316 17.3194 12.45 17.28C13.3131 15.7797 13.985 14.1772 14.45 12.51C14.5512 12.2914 14.6186 12.0588 14.65 11.82C15.79 11.68 16.92 11.52 18.04 11.44C17.65 12.3 12.57 18.95 11.83 19.34C11.7518 19.3811 11.6931 19.4516 11.6668 19.536C11.6405 19.6204 11.6489 19.7118 11.69 19.79C11.7311 19.8682 11.8016 19.9269 11.886 19.9532C11.9704 19.9795 12.0618 19.9711 12.14 19.93C12.97 19.52 16.86 14.66 17.43 13.93C18.1 13 19.39 11.71 19.06 10.61ZM14.43 8C14.86 8 15.01 8 15.54 8.44C15.0911 8.99101 14.696 9.58371 14.36 10.21C13.8596 9.63855 13.3288 9.09443 12.77 8.58C12.5224 8.40825 12.2884 8.21769 12.07 8.01C12.3598 7.99505 12.6502 7.99505 12.94 8.01C13.4364 8.03614 13.934 8.0328 14.43 8ZM9.54 8.1C11.07 8.1 10.96 7.94 10.84 8.18C10.76 8.26 9.05 9.97 8.95 10.18C8.83357 9.52481 8.64579 8.88433 8.39 8.27C8.74978 8.10639 9.14742 8.04415 9.54 8.09V8.1ZM9.29 12.1C9.96 16.53 9.91 14.28 10.39 18.73C9 17.07 8.92 17 6 11.55C6 11.55 5.76 11.27 5.65 11.09C5.85 10.78 6.4 10.24 6.65 9.96C7.02547 9.53286 7.42975 9.13192 7.86 8.76C7.93007 9.47389 8.07761 10.178 8.3 10.86H6.81C5.93 10.69 5.9 11.34 6.27 11.45L9.27 11.77C9.26 11.9 9.29 12 9.29 12.05V12.1ZM9.57 10.9C9.97 10.43 11.28 9.45 11.57 9.09C12.31 9.67 13.46 10.71 13.57 10.88C12.2371 10.9436 10.9018 10.9336 9.57 10.85V10.9ZM15.06 10.81C15.3235 10.1518 15.6588 9.52462 16.06 8.94C16.7401 9.49226 17.3879 10.0832 18 10.71C17 10.69 16 10.71 15.06 10.76V10.81Z" fill="white"/>
<path fill-rule="evenodd" clip-rule="evenodd" d="M3.87002 5.75C3.91511 5.82558 3.98838 5.88016 4.0737 5.90173C4.15903 5.9233 4.24944 5.91008 4.32502 5.865C4.40061 5.81991 4.45519 5.74664 4.47676 5.66131C4.49832 5.57599 4.48511 5.48558 4.44002 5.41C4.28002 5 4.15002 4.61 4.00002 4.23C3.69935 3.68765 3.25237 3.24067 2.71002 2.94C2.47002 2.82 2.37002 3.04 2.32002 3.1C1.91002 3.67 3.80002 5.67 3.87002 5.75Z" fill="white"/>
<path fill-rule="evenodd" clip-rule="evenodd" d="M20.13 5.71C21.55 4.11 20.8 5.23 21.63 3.41C21.71 3.23 21.71 3.11 21.68 3.06C21.65 3.01 21.53 2.78 21.29 2.9C20.7477 3.20067 20.3007 3.64765 20 4.19C19.81 4.57 19.68 4.95 19.52 5.36C19.4736 5.44089 19.4612 5.5369 19.4856 5.62692C19.51 5.71694 19.5691 5.79358 19.65 5.84C19.7309 5.88641 19.8269 5.89879 19.9169 5.87441C20.0069 5.85003 20.0836 5.79089 20.13 5.71Z" fill="white"/>
<path fill-rule="evenodd" clip-rule="evenodd" d="M3.94001 13.54C4.24001 13.54 4.45001 13.17 4.07001 12.87C3.58852 12.5862 3.04757 12.4185 2.49001 12.38C2.03001 12.38 0.240009 12.45 0.0300088 12.85C-0.0399912 12.97 0.0300088 13.07 0.120009 13.19C0.390009 13.48 3.38001 13.54 3.94001 13.54Z" fill="white"/>
<path fill-rule="evenodd" clip-rule="evenodd" d="M24 12.81C22.9306 12.2945 21.7069 12.1982 20.57 12.54C20.358 12.6131 20.1537 12.7069 19.96 12.82C19.59 13.11 19.78 13.5 20.09 13.5C21.2333 13.5777 22.3817 13.4901 23.5 13.24C23.6388 13.2161 23.7758 13.1827 23.91 13.14C24 13 24 12.93 24 12.81Z" fill="white"/>
<path fill-rule="evenodd" clip-rule="evenodd" d="M5.21 17.55C3.89 18.69 4.46 17.66 2.01 20.75C1.93 20.92 2.01 21.26 2.44 21.09C3.75823 20.332 4.87868 19.2732 5.71 18C5.7551 17.932 5.77427 17.8501 5.76402 17.7692C5.75377 17.6883 5.71478 17.6138 5.65417 17.5592C5.59355 17.5047 5.51534 17.4737 5.4338 17.472C5.35227 17.4703 5.27284 17.498 5.21 17.55Z" fill="white"/>
<path fill-rule="evenodd" clip-rule="evenodd" d="M20.17 18.55C19.73 18.16 19.17 17.88 18.79 17.5C18.41 17.12 17.99 17.63 18.29 17.95C18.853 18.7203 19.4748 19.4458 20.15 20.12C20.33 20.29 21.55 21.12 21.78 21.12C22.01 21.12 22.1 20.97 21.99 20.74C22 20.66 20.46 18.8 20.17 18.55Z" fill="white"/>
</g>
<defs>
<clipPath id="clip0_1049_8041">
<rect width="24" height="24" fill="white"/>
</clipPath>
</defs>
</svg>
