<svg width="24" height="24" viewBox="0 0 24 24" fill="none" xmlns="http://www.w3.org/2000/svg">
<g clip-path="url(#clip0_1031_3197)">
<path fill-rule="evenodd" clip-rule="evenodd" d="M1.32 3.89801C1.083 6.74001 1.157 9.59801 1.542 12.424C1.54884 12.5293 1.59602 12.6279 1.67371 12.6993C1.75141 12.7707 1.85364 12.8094 1.95914 12.8073C2.06464 12.8053 2.16528 12.7626 2.24013 12.6882C2.31498 12.6139 2.35827 12.5135 2.361 12.408C2.62415 9.56376 2.53683 6.69796 2.101 3.87501C2.09949 3.82379 2.0879 3.77338 2.06691 3.72664C2.04591 3.6799 2.01592 3.63775 1.97864 3.6026C1.94135 3.56746 1.89751 3.54 1.84962 3.52179C1.80172 3.50359 1.75071 3.495 1.6995 3.49651C1.64828 3.49802 1.59786 3.5096 1.55112 3.5306C1.50439 3.55159 1.46224 3.58158 1.42709 3.61887C1.39195 3.65615 1.36449 3.69999 1.34628 3.74789C1.32808 3.79578 1.31849 3.84679 1.32 3.89801Z" fill="white"/>
<path fill-rule="evenodd" clip-rule="evenodd" d="M6.92699 0.512992C5.88499 12.15 7.70899 9.69499 7.68599 9.34299C7.91766 6.40611 7.92368 3.45579 7.70399 0.517992C7.70465 0.414955 7.66436 0.315875 7.59197 0.242548C7.55612 0.206241 7.51348 0.177348 7.46647 0.157521C7.41946 0.137694 7.36901 0.12732 7.31799 0.126992C7.21495 0.126329 7.11587 0.166624 7.04255 0.239013C6.96922 0.311402 6.92765 0.409955 6.92699 0.512992Z" fill="white"/>
<path fill-rule="evenodd" clip-rule="evenodd" d="M13.036 2.61299C12.7101 4.72223 12.7419 6.87131 13.13 8.96999C13.1374 9.07594 13.1857 9.17488 13.2646 9.24597C13.3435 9.31707 13.4469 9.35477 13.553 9.35114C13.6592 9.34751 13.7598 9.30284 13.8336 9.22652C13.9075 9.1502 13.9489 9.0482 13.949 8.94199C14.1997 6.83467 14.1539 4.70261 13.813 2.60799C13.8124 2.50496 13.7708 2.4064 13.6975 2.33401C13.6241 2.26163 13.5251 2.22133 13.422 2.22199C13.319 2.22266 13.2204 2.26422 13.148 2.33755C13.0756 2.41088 13.0354 2.50996 13.036 2.61299Z" fill="white"/>
<path fill-rule="evenodd" clip-rule="evenodd" d="M18.65 3.46C18.6515 3.51378 18.6636 3.56673 18.6856 3.61584C18.7075 3.66494 18.739 3.70924 18.7781 3.7462C18.8172 3.78315 18.8632 3.81205 18.9134 3.83123C18.9637 3.85042 19.0172 3.85951 19.071 3.858C19.1248 3.85649 19.1777 3.84441 19.2268 3.82243C19.2759 3.80046 19.3202 3.76903 19.3572 3.72993C19.3942 3.69084 19.423 3.64485 19.4422 3.59459C19.4614 3.54433 19.4705 3.49078 19.469 3.437C20.308 -0.800996 17.469 -1.273 18.65 3.46Z" fill="white"/>
<path fill-rule="evenodd" clip-rule="evenodd" d="M1.808 17.488C1.50125 19.4849 1.52422 21.5186 1.876 23.508C1.88324 23.6115 1.92948 23.7085 2.00538 23.7793C2.08129 23.85 2.18121 23.8894 2.285 23.8894C2.38878 23.8894 2.4887 23.85 2.56461 23.7793C2.64051 23.7085 2.68675 23.6115 2.694 23.508C2.991 21.508 2.954 19.473 2.585 17.485C2.58746 17.4323 2.57918 17.3797 2.56067 17.3303C2.54216 17.2809 2.5138 17.2358 2.47731 17.1977C2.44083 17.1597 2.39698 17.1294 2.34843 17.1088C2.29989 17.0882 2.24766 17.0776 2.19492 17.0779C2.14218 17.0781 2.09003 17.089 2.04165 17.11C1.99326 17.131 1.94965 17.1616 1.91346 17.1999C1.87727 17.2383 1.84926 17.2836 1.83113 17.3331C1.813 17.3827 1.80513 17.4353 1.808 17.488Z" fill="white"/>
<path fill-rule="evenodd" clip-rule="evenodd" d="M7.23699 13.766C7.00399 16.19 7.09699 18.636 7.51399 21.035C7.52397 21.139 7.57326 21.2352 7.65181 21.3041C7.73036 21.373 7.83224 21.4093 7.93664 21.4056C8.04104 21.4019 8.14009 21.3585 8.21357 21.2842C8.28705 21.2099 8.3294 21.1104 8.33199 21.006C8.56317 18.5793 8.45615 16.1322 8.01399 13.735C8.01369 13.6828 8.00291 13.6313 7.98228 13.5834C7.96165 13.5354 7.93159 13.4922 7.8939 13.4561C7.85621 13.4201 7.81165 13.392 7.76288 13.3735C7.7141 13.355 7.66211 13.3465 7.60999 13.3485C7.55786 13.3505 7.50668 13.363 7.45948 13.3852C7.41227 13.4074 7.37001 13.4388 7.33522 13.4777C7.30042 13.5165 7.27379 13.562 7.25691 13.6114C7.24004 13.6607 7.23326 13.714 7.23699 13.766Z" fill="white"/>
<path fill-rule="evenodd" clip-rule="evenodd" d="M13.23 14.07C12.8849 16.6182 12.9287 19.204 13.36 21.739C13.3677 21.8475 13.4182 21.9485 13.5003 22.0197C13.5824 22.091 13.6895 22.1267 13.798 22.119C13.9065 22.1113 14.0075 22.0609 14.0787 21.9787C14.15 21.8966 14.1857 21.7895 14.178 21.681C14.3667 19.1387 14.3091 16.5842 14.006 14.053C13.9992 13.9531 13.9541 13.8597 13.8801 13.7922C13.8061 13.7247 13.709 13.6883 13.6089 13.6907C13.5088 13.693 13.4134 13.7338 13.3427 13.8047C13.2719 13.8755 13.2312 13.9709 13.229 14.071L13.23 14.07Z" fill="white"/>
<path fill-rule="evenodd" clip-rule="evenodd" d="M18.97 9.85599C18.6794 14.385 18.7138 18.9289 19.073 23.453C19.0803 23.5565 19.1265 23.6535 19.2024 23.7242C19.2783 23.795 19.3782 23.8344 19.482 23.8344C19.5858 23.8344 19.6857 23.795 19.7616 23.7242C19.8375 23.6535 19.8838 23.5565 19.891 23.453C20.1939 18.9228 20.1471 14.376 19.751 9.85299C19.7436 9.7544 19.6991 9.66229 19.6264 9.5952C19.5538 9.52811 19.4585 9.49102 19.3596 9.4914C19.2607 9.49178 19.1657 9.5296 19.0936 9.59725C19.0215 9.66489 18.9777 9.75735 18.971 9.85599H18.97Z" fill="white"/>
<path fill-rule="evenodd" clip-rule="evenodd" d="M20.213 7.157C19.6817 7.09441 19.1484 7.05072 18.614 7.026C18.5609 7.0296 18.5076 7.02241 18.4574 7.00485C18.4071 6.98729 18.3609 6.95973 18.3216 6.92384C18.2823 6.88794 18.2507 6.84445 18.2287 6.796C18.2066 6.74754 18.1947 6.69513 18.1934 6.64191C18.1922 6.58869 18.2018 6.53578 18.2216 6.48637C18.2414 6.43696 18.271 6.39207 18.3086 6.35442C18.3462 6.31676 18.3911 6.28712 18.4405 6.26728C18.4899 6.24745 18.5428 6.23782 18.596 6.239C20.1633 6.06095 21.7416 5.99912 23.318 6.054C24.231 6.05 24.046 7.493 23.794 9.462C23.711 10.084 23.6393 10.7074 23.579 11.332C23.5829 11.3881 23.5753 11.4444 23.5565 11.4975C23.5377 11.5505 23.5082 11.5991 23.4699 11.6402C23.4315 11.6814 23.3851 11.7142 23.3335 11.7366C23.2819 11.759 23.2263 11.7706 23.17 11.7706C23.1138 11.7706 23.0581 11.759 23.0065 11.7366C22.9549 11.7142 22.9085 11.6814 22.8702 11.6402C22.8318 11.5991 22.8023 11.5505 22.7835 11.4975C22.7647 11.4444 22.7571 11.3881 22.761 11.332C22.665 9.877 22.677 9.358 22.691 8.732C22.696 8.536 22.701 8.33 22.702 8.081C22.417 8.301 22.038 8.582 21.539 8.953C20.638 9.623 19.347 10.583 17.517 11.988C14.746 14.115 13.901 15.196 13.25 15.089C12.695 14.999 12.282 14.043 10.936 12.137C7.38401 14.624 5.81001 15.651 4.29001 16.642C3.24801 17.322 2.23001 17.986 0.617014 19.093C0.533235 19.1444 0.433156 19.1622 0.336793 19.1429C0.24043 19.1237 0.154885 19.0688 0.0972678 18.9892C0.0396502 18.9096 0.0142067 18.8111 0.0260255 18.7136C0.0378444 18.616 0.0860544 18.5265 0.161014 18.463C2.37163 16.7537 4.61539 15.0877 6.89101 13.466C9.65501 11.487 10.557 10.533 11.225 10.676C11.802 10.799 12.205 11.744 13.485 13.557C16.589 11.101 18.787 9.644 22.14 7.42L22.295 7.317C21.415 7.285 20.798 7.219 20.213 7.157Z" fill="white"/>
</g>
<defs>
<clipPath id="clip0_1031_3197">
<rect width="24" height="24" fill="white"/>
</clipPath>
</defs>
</svg>
