<svg width="71" height="79" viewBox="0 0 71 79" fill="none" xmlns="http://www.w3.org/2000/svg">
<path fill-rule="evenodd" clip-rule="evenodd" d="M50.013 31.661C45.5441 31.661 41.075 31.661 36.6061 31.661C36.4644 33.5616 36.6137 35.3708 37.053 37.0887C45.8431 37.1642 54.6322 37.0887 63.42 36.8625C64.9989 34.8122 66.9353 34.3599 69.2297 35.5056C71.4302 37.4519 71.5795 39.5627 69.6766 41.8378C68.2456 42.5086 66.7556 42.6596 65.2076 42.2901C64.4018 42.002 63.8061 41.4746 63.42 40.7071C53.2937 40.3303 43.1638 40.1041 33.0309 40.0286C30.4098 38.735 28.1754 36.9258 26.3275 34.601C23.4205 32.9596 20.292 32.1301 16.9427 32.1133C16.0775 29.7482 14.5878 27.9391 12.4737 26.6857C11.6735 26.8947 11.2265 27.4226 11.1332 28.2688C11.7501 29.6542 12.5693 30.9356 13.5906 32.1133C13.889 33.018 13.889 33.9225 13.5906 34.8272C12.5589 36.7006 11.1435 38.2085 9.34506 39.3502C8.85368 41.7881 9.74715 42.4665 12.0266 41.3855C13.9201 39.9974 15.4098 38.2637 16.4957 36.184C19.1162 35.488 21.6486 35.7141 24.0928 36.8625C25.9154 39.0105 28.0011 40.8197 30.3495 42.2901C32.344 43.1834 34.4293 43.5602 36.6061 43.4208C36.6061 44.1749 36.6061 44.9284 36.6061 45.6824C41.3754 45.6068 46.1424 45.6824 50.9068 45.9085C53.7849 47.9357 56.8385 49.5188 60.0683 50.6577C60.7386 50.5071 61.4089 50.356 62.0793 50.2054C64.0747 47.9905 66.235 47.8394 68.5593 49.7531C69.9746 54.9546 68.1124 56.8393 62.973 55.4069C61.4979 54.0748 59.7103 53.4715 57.6103 53.5976C54.9289 51.939 52.2475 50.2809 49.5661 48.6223C45.2487 48.3962 40.9285 48.3211 36.6061 48.3962C36.6061 50.356 36.6061 52.3162 36.6061 54.2761C40.1844 54.201 43.7596 54.2761 47.3317 54.5022C49.7149 56.6131 52.0987 58.7236 54.482 60.8344C58.9644 60.0515 60.8266 61.9362 60.0683 66.4882C57.6657 69.4359 55.2819 69.4359 52.9179 66.4882C52.769 65.2819 52.6198 64.0761 52.471 62.8698C50.46 61.1361 48.4489 59.402 46.4378 57.6684C43.1638 57.4422 39.8867 57.3671 36.6061 57.4422C36.6061 58.7991 36.6061 60.156 36.6061 61.5129C31.9914 60.9466 28.1928 62.4546 25.2102 66.0359C24.7691 67.8478 25.4395 68.6769 27.2212 68.5235C28.5624 66.6388 30.35 65.4325 32.584 64.9052C36.7549 64.6035 40.9262 64.6035 45.0972 64.9052C45.456 66.9016 45.6794 68.937 45.7675 71.0112C48.6178 73.1551 48.8413 75.4917 46.4378 78.0219C41.3638 79.4475 39.5015 77.5628 40.8516 72.3681C42.2151 71.0429 42.7366 69.3843 42.4158 67.3928C40.4793 67.3928 38.5425 67.3928 36.6061 67.3928C38.6967 75.7468 35.5684 79.5914 27.2212 78.9265C19.1974 75.4261 16.4416 69.4707 18.9538 61.0606C21.9666 57.1211 25.8399 54.4073 30.573 52.9192C30.871 52.1652 30.871 51.4117 30.573 50.6577C30.2489 50.4049 29.8767 50.2543 29.4557 50.2054C25.2567 51.4999 21.5328 53.6107 18.2832 56.5376C16.7918 55.2539 15.4507 53.8215 14.2612 52.2407C12.393 51.7341 11.5738 52.4126 11.8031 54.2761C13.4195 55.9672 14.9835 57.7009 16.4957 59.4775C15.1673 61.6129 14.5717 63.9499 14.7082 66.4882C8.18199 65.3656 4.45775 61.446 3.53547 54.7284C3.68467 54.2761 3.83387 53.8238 3.9825 53.3715C5.35641 54.1399 6.39908 53.8387 7.11109 52.4669C5.9388 51.0535 4.67262 49.6965 3.31196 48.3961C-0.155352 43.5407 -0.900198 38.2637 1.07742 32.5657C1.38504 31.6361 1.90638 30.8826 2.64201 30.3042C3.57984 31.88 4.6974 32.031 5.99354 30.7565C4.43587 23.6442 6.59552 18.0656 12.4737 14.0212C13.7658 20.8828 17.9364 24.6521 24.9867 25.3289C26.7631 25.0602 27.2101 24.0802 26.3275 22.3888C16.4139 21.0904 13.8067 16.0396 18.5067 7.23709C20.9337 3.37338 24.3602 1.11183 28.7854 0.452427C34.5312 0.918848 37.1379 4.08467 36.6061 9.9505C38.5425 9.9505 40.4793 9.9505 42.4158 9.9505C42.6888 8.38507 42.1673 7.17879 40.8517 6.33224C39.5109 3.01482 40.554 0.904273 43.9799 -3.75918e-08C47.813 0.973653 48.856 3.23521 47.1082 6.78467C46.8003 7.1718 46.428 7.47322 45.9909 7.68894C45.6781 9.29051 45.3801 10.874 45.0972 12.4383C40.9263 12.7397 36.7549 12.7397 32.584 12.4383C30.35 11.9106 28.5624 10.7049 27.2212 8.82001C25.4395 8.66667 24.7691 9.49573 25.2102 11.3078C28.2482 14.7208 32.0468 16.2285 36.6061 15.8303C36.6061 17.1876 36.6061 18.5443 36.6061 19.901C39.8867 19.9762 43.1639 19.901 46.4378 19.6754C48.4489 17.9415 50.46 16.2075 52.471 14.4736C52.0536 11.8203 53.022 9.93534 55.3758 8.82001C59.1879 8.75996 60.752 10.6443 60.0683 14.4736C59.696 14.926 59.3232 15.3785 58.951 15.8303C57.1942 16.4617 55.4067 16.9894 53.5882 17.4138C51.5026 19.2229 49.4173 21.0321 47.3317 22.8412C43.7596 23.0672 40.1844 23.1426 36.6061 23.0674C36.6061 25.0273 36.6061 26.9874 36.6061 28.9472C40.9285 29.0223 45.2487 28.9472 49.5661 28.7211C52.2475 27.0625 54.9289 25.4042 57.6103 23.7458C59.1217 23.666 60.6112 23.4399 62.0793 23.0674C64.0747 20.8525 66.235 20.7015 68.5593 22.615C69.9746 27.8165 68.1124 29.7013 62.9731 28.2688C61.6605 26.8151 60.0218 26.3628 58.0572 26.9119C55.5345 28.7907 52.8531 30.3738 50.013 31.661Z" fill="#FF7F3E"/>
</svg>
