<svg width="156" height="167" viewBox="0 0 156 167" fill="none" xmlns="http://www.w3.org/2000/svg">
<path fill-rule="evenodd" clip-rule="evenodd" d="M109.869 67.016C100.051 67.016 90.2336 67.016 80.4162 67.016C80.105 71.0147 80.4329 74.821 81.398 78.4351C100.708 78.5941 120.016 78.4351 139.321 77.9593C142.79 73.6458 147.043 72.6942 152.084 75.1046C156.918 79.1993 157.246 83.6402 153.065 88.4268C149.922 89.838 146.649 90.1558 143.248 89.3784C141.478 88.7722 140.169 87.6627 139.321 86.0478C117.076 85.2551 94.8223 84.7793 72.5623 84.6204C66.8043 81.8988 61.8956 78.0925 57.8362 73.2013C51.4502 69.7481 44.5774 68.0028 37.2198 67.9676C35.319 62.9917 32.0464 59.1854 27.4021 56.5486C25.6443 56.9882 24.6623 58.0988 24.4573 59.8792C25.8126 62.7939 27.6122 65.4897 29.8559 67.9676C30.5114 69.8708 30.5114 71.7739 29.8559 73.6772C27.5894 77.6186 24.4801 80.7912 20.5292 83.193C19.4497 88.3221 21.4125 89.7494 26.42 87.4751C30.5797 84.5547 33.8523 80.9073 36.2378 76.5319C41.9945 75.0674 47.5576 75.5432 52.9271 77.9593C56.9309 82.4784 61.5128 86.2847 66.6718 89.3784C71.0533 91.2578 75.6342 92.0504 80.4162 91.7572C80.4162 93.3436 80.4162 94.9289 80.4162 96.5153C90.8935 96.3563 101.366 96.5153 111.832 96.991C118.155 101.256 124.863 104.587 131.958 106.983C133.43 106.666 134.903 106.348 136.376 106.031C140.759 101.371 145.505 101.053 150.611 105.08C153.72 116.023 149.629 119.988 138.339 116.974C135.098 114.172 131.172 112.903 126.558 113.168C120.668 109.678 114.777 106.19 108.887 102.701C99.4023 102.225 89.9117 102.067 80.4162 102.225C80.4162 106.348 80.4162 110.472 80.4162 114.595C88.2771 114.437 96.1311 114.595 103.978 115.071C109.214 119.512 114.45 123.952 119.686 128.393C129.533 126.746 133.624 130.711 131.958 140.288C126.68 146.49 121.443 146.49 116.25 140.288C115.923 137.75 115.595 135.213 115.268 132.676C110.85 129.028 106.432 125.38 102.015 121.732C94.8223 121.257 87.6232 121.099 80.4162 121.257C80.4162 124.111 80.4162 126.966 80.4162 129.821C70.2787 128.629 61.9339 131.802 55.3817 139.337C54.4127 143.149 55.8854 144.893 59.7996 144.57C62.7457 140.605 66.6728 138.067 71.5805 136.958C80.7432 136.323 89.9068 136.323 99.0694 136.958C99.8577 141.158 100.349 145.44 100.542 149.804C106.804 154.315 107.294 159.231 102.015 164.554C90.8679 167.553 86.7769 163.588 89.7427 152.659C92.7382 149.871 93.8838 146.381 93.1789 142.191C88.925 142.191 84.6701 142.191 80.4162 142.191C85.0088 159.767 78.1367 167.856 59.7995 166.457C42.1729 159.093 36.1188 146.563 41.6376 128.869C48.2561 120.581 56.765 114.871 67.1627 111.741C67.8175 110.154 67.8175 108.569 67.1627 106.983C66.4509 106.451 65.6331 106.134 64.7083 106.031C55.4839 108.755 47.3032 113.196 40.1646 119.353C36.8882 116.653 33.9421 113.639 31.3289 110.313C27.2249 109.247 25.4254 110.675 25.929 114.595C29.48 118.153 32.9158 121.801 36.2377 125.539C33.3195 130.031 32.011 134.948 32.3109 140.288C17.9741 137.926 9.79274 129.68 7.76669 115.547C8.09445 114.595 8.42221 113.644 8.74871 112.692C11.7669 114.309 14.0574 113.675 15.6216 110.789C13.0463 107.815 10.2648 104.961 7.27568 102.225C-0.341312 92.0094 -1.97759 80.9073 2.36685 68.9192C3.04262 66.9636 4.18789 65.3784 5.80393 64.1613C7.86415 67.4766 10.3192 67.7944 13.1666 65.1129C9.74469 50.1495 14.489 38.4129 27.4021 29.9039C30.2406 44.3399 39.4027 52.27 54.8909 53.6939C58.7933 53.1286 59.775 51.0669 57.8362 47.5083C36.0581 44.7766 30.3304 34.1504 40.6556 15.631C45.9871 7.50216 53.5145 2.74412 63.2358 1.35682C75.858 2.33811 81.5845 8.99863 80.4162 21.3396C84.6702 21.3396 88.925 21.3396 93.179 21.3396C93.7788 18.0462 92.6331 15.5083 89.7429 13.7272C86.7976 6.74778 89.089 2.30745 96.615 0.404967C105.035 2.45342 107.327 7.21146 103.487 14.6791C102.811 15.4936 101.993 16.1277 101.033 16.5816C100.346 19.9511 99.6909 23.2826 99.0694 26.5736C89.9068 27.2078 80.7432 27.2078 71.5805 26.5736C66.6728 25.4635 62.7458 22.9269 59.7996 18.9612C55.8854 18.6386 54.4127 20.3829 55.3817 24.1952C62.0557 31.3758 70.4005 34.5478 80.4162 33.7101C80.4162 36.5656 80.4162 39.42 80.4162 42.2743C87.6232 42.4325 94.8224 42.2743 102.015 41.7996C106.432 38.1516 110.85 34.5037 115.268 30.8557C114.351 25.2734 116.479 21.3077 121.65 18.9612C130.024 18.8349 133.46 22.7993 131.958 30.8557C131.14 31.8076 130.321 32.7594 129.504 33.7101C125.644 35.0385 121.717 36.1486 117.723 37.0415C113.141 40.8477 108.56 44.6539 103.978 48.4601C96.1311 48.9356 88.2771 49.0943 80.4162 48.9359C80.4162 53.0595 80.4162 57.1833 80.4162 61.3065C89.9117 61.4645 99.4023 61.3065 108.887 60.8307C114.777 57.3413 120.668 53.8525 126.558 50.3632C129.879 50.1954 133.151 49.7196 136.376 48.9359C140.759 44.2761 145.505 43.9585 150.611 47.9843C153.72 58.9276 149.629 62.8929 138.339 59.8792C135.456 56.8208 131.856 55.8691 127.54 57.0244C121.998 60.9773 116.108 64.3078 109.869 67.016Z" fill="white"/>
</svg>
